<svg width="20" height="20" viewBox="0 0 20 20" fill="none" xmlns="http://www.w3.org/2000/svg">
<path d="M14.8828 19.1161H4.78906C2.33361 19.1161 0.335938 17.1184 0.335938 14.663V4.56921C0.335938 2.11376 2.33361 0.116089 4.78906 0.116089H14.8828C17.3383 0.116089 19.3359 2.11376 19.3359 4.56921V14.663C19.3359 17.1184 17.3383 19.1161 14.8828 19.1161ZM4.78906 1.60046C3.15209 1.60046 1.82031 2.93225 1.82031 4.56921V14.663C1.82031 16.2999 3.15209 17.6317 4.78906 17.6317H14.8828C16.5198 17.6317 17.8516 16.2999 17.8516 14.663V4.56921C17.8516 2.93225 16.5198 1.60046 14.8828 1.60046H4.78906ZM8.16602 3.86414C8.16602 3.45423 7.83374 3.12195 7.42383 3.12195H4.30664C3.89673 3.12195 3.56445 3.45423 3.56445 3.86414C3.56445 4.27405 3.89673 4.60632 4.30664 4.60632H7.42383C7.83374 4.60632 8.16602 4.27405 8.16602 3.86414ZM14.957 12.5106C14.957 12.1007 14.6248 11.7684 14.2148 11.7684H8.01758C7.60767 11.7684 7.27539 12.1007 7.27539 12.5106C7.27539 12.9205 7.60767 13.2528 8.01758 13.2528H14.2148C14.6248 13.2528 14.957 12.9205 14.957 12.5106ZM15.959 15.4052C15.959 14.9952 15.6267 14.663 15.2168 14.663H13.584C13.1741 14.663 12.8418 14.9952 12.8418 15.4052C12.8418 15.8151 13.1741 16.1473 13.584 16.1473H15.2168C15.6267 16.1473 15.959 15.8151 15.959 15.4052Z" fill="black"/>
<path d="M15.3281 10.3583H10.0957C9.68579 10.3583 9.35352 10.026 9.35352 9.61609C9.35352 9.20618 9.68579 8.8739 10.0957 8.8739H15.3281C15.738 8.8739 16.0703 9.20618 16.0703 9.61609C16.0703 10.026 15.738 10.3583 15.3281 10.3583ZM13.4727 6.75867C13.4727 6.34876 13.1404 6.01648 12.7305 6.01648H5.79102C5.38111 6.01648 5.04883 6.34876 5.04883 6.75867C5.04883 7.16858 5.38111 7.50085 5.79102 7.50085H12.7305C13.1404 7.50085 13.4727 7.16858 13.4727 6.75867Z" fill="#1A6291"/>
</svg>
