<svg width="142" height="150" viewBox="0 0 142 150" fill="none" xmlns="http://www.w3.org/2000/svg">
<path d="M103.588 34.2437V118.009C103.588 122.091 100.421 125.401 96.5156 125.401H44.0977C40.1927 125.401 37.0254 122.091 37.0254 118.009V34.2437C37.0254 30.1627 40.1927 26.8526 44.0977 26.8526C44.1304 26.8526 96.4829 26.8526 96.5156 26.8526C100.421 26.8526 103.588 30.1627 103.588 34.2437Z" fill="#FFF4F3"/>
<path d="M121.615 32.6496C125.445 32.6496 128.549 35.893 128.549 39.8957C128.549 43.8985 125.445 47.1419 121.615 47.1419C117.785 47.1419 114.682 43.8985 114.682 39.8957C114.682 35.893 117.785 32.6496 121.615 32.6496Z" fill="white"/>
<path d="M18.998 97.8651C22.0627 97.8651 24.5449 100.459 24.5449 103.662C24.5449 106.865 22.0627 109.459 18.998 109.459C15.9334 109.459 13.4512 106.865 13.4512 103.662C13.4512 100.459 15.9334 97.8651 18.998 97.8651Z" fill="white"/>
<path d="M82.7871 21.0557C85.8518 21.0557 88.334 23.6498 88.334 26.8526C88.334 28.4526 87.7127 29.9018 86.7088 30.9511C85.7048 32.0003 84.318 32.6496 82.7871 32.6496H57.8262C54.7615 32.6496 52.2793 30.0554 52.2793 26.8526C52.2793 25.2527 52.9005 23.8034 53.9045 22.7542C54.9085 21.7049 56.2952 21.0557 57.8262 21.0557H82.7871Z" fill="white"/>
<path d="M125.082 65.982C126.231 65.982 127.162 65.0087 127.162 63.8081C127.162 62.6075 126.231 61.6342 125.082 61.6342C123.933 61.6342 123.002 62.6075 123.002 63.8081C123.002 65.0087 123.933 65.982 125.082 65.982Z" fill="#1A6291"/>
<path d="M113.988 102.213C115.137 102.213 116.068 101.24 116.068 100.039C116.068 98.8384 115.137 97.8651 113.988 97.8651C112.839 97.8651 111.908 98.8384 111.908 100.039C111.908 101.24 112.839 102.213 113.988 102.213Z" fill="#1A6291"/>
<path d="M109.828 21.0557C110.977 21.0557 111.908 20.0824 111.908 18.8818C111.908 17.6812 110.977 16.708 109.828 16.708C108.679 16.708 107.748 17.6812 107.748 18.8818C107.748 20.0824 108.679 21.0557 109.828 21.0557Z" fill="#1A6291"/>
<path d="M90.4141 136.994C91.5629 136.994 92.4941 136.021 92.4941 134.821C92.4941 133.62 91.5629 132.647 90.4141 132.647C89.2653 132.647 88.334 133.62 88.334 134.821C88.334 136.021 89.2653 136.994 90.4141 136.994Z" fill="#1A6291"/>
<path d="M81.4004 47.8665V55.1127H74.4668V61.6343H67.5332V55.1127H60.5996V47.8665H67.5332V41.345H74.4668V47.8665H81.4004Z" fill="white"/>
<path d="M25.2383 67.4312C26.3871 67.4312 27.3184 66.4579 27.3184 65.2573C27.3184 64.0568 26.3871 63.0835 25.2383 63.0835C24.0895 63.0835 23.1582 64.0568 23.1582 65.2573C23.1582 66.4579 24.0895 67.4312 25.2383 67.4312Z" fill="#1A6291"/>
<path d="M18.3047 23.9541C19.4535 23.9541 20.3848 22.9809 20.3848 21.7803C20.3848 20.5797 19.4535 19.6064 18.3047 19.6064C17.1559 19.6064 16.2246 20.5797 16.2246 21.7803C16.2246 22.9809 17.1559 23.9541 18.3047 23.9541Z" fill="#1A6291"/>
<path d="M96.5156 126.85H44.0977C39.4333 126.85 35.6387 122.884 35.6387 118.009V34.2437C35.6387 29.3691 39.4333 25.4034 44.0977 25.4034H52.2793C53.045 25.4034 53.666 26.0523 53.666 26.8526C53.666 27.6529 53.045 28.3019 52.2793 28.3019H44.0977C40.9626 28.3019 38.4121 30.9673 38.4121 34.2437V118.009C38.4121 121.286 40.9626 123.951 44.0977 123.951H96.5156C99.6507 123.951 102.201 121.286 102.201 118.009V34.2437C102.201 30.9673 99.6507 28.3019 96.5156 28.3019H88.334C87.5682 28.3019 86.9473 27.6529 86.9473 26.8526C86.9473 26.0523 87.5682 25.4034 88.334 25.4034H96.5156C101.18 25.4034 104.975 29.3691 104.975 34.2437V118.009C104.975 122.884 101.18 126.85 96.5156 126.85Z" fill="#1A6291"/>
<path d="M82.7871 34.0988H57.8262C54.003 34.0988 50.8926 30.8482 50.8926 26.8526C50.8926 24.9182 51.614 23.0985 52.9238 21.7296C54.234 20.3603 55.9752 19.6064 57.8262 19.6064H82.7871C86.6103 19.6064 89.7207 22.8571 89.7207 26.8526C89.7207 28.7871 88.9993 30.6067 87.6894 31.9757C86.3793 33.3449 84.6381 34.0988 82.7871 34.0988ZM57.8262 22.5049C56.7157 22.5049 55.6712 22.9574 54.8849 23.7791C54.099 24.6005 53.666 25.6921 53.666 26.8526C53.666 29.2499 55.5323 31.2003 57.8262 31.2003H82.7871C83.8976 31.2003 84.9421 30.7479 85.7283 29.9262C86.5143 29.1047 86.9473 28.0132 86.9473 26.8526C86.9473 24.4553 85.081 22.5049 82.7871 22.5049H57.8262Z" fill="#1A6291"/>
<path d="M74.4668 63.0835H67.5332C66.7675 63.0835 66.1465 62.4345 66.1465 61.6343V56.5619H60.5996C59.8339 56.5619 59.2129 55.913 59.2129 55.1127V47.8665C59.2129 47.0663 59.8339 46.4173 60.5996 46.4173H66.1465V41.345C66.1465 40.5447 66.7675 39.8957 67.5332 39.8957H74.4668C75.2325 39.8957 75.8535 40.5447 75.8535 41.345V46.4173H81.4004C82.1661 46.4173 82.7871 47.0663 82.7871 47.8665V55.1127C82.7871 55.913 82.1661 56.5619 81.4004 56.5619H75.8535V61.6343C75.8535 62.4345 75.2325 63.0835 74.4668 63.0835ZM68.9199 60.185H73.0801V55.1127C73.0801 54.3124 73.7011 53.6635 74.4668 53.6635H80.0137V49.3158H74.4668C73.7011 49.3158 73.0801 48.6668 73.0801 47.8665V42.7942H68.9199V47.8665C68.9199 48.6668 68.2989 49.3158 67.5332 49.3158H61.9863V53.6635H67.5332C68.2989 53.6635 68.9199 54.3124 68.9199 55.1127V60.185Z" fill="#1A6291"/>
<path d="M70.3066 73.2281H48.1191C47.3534 73.2281 46.7324 72.5792 46.7324 71.7789C46.7324 70.9786 47.3534 70.3297 48.1191 70.3297H70.3066C71.0724 70.3297 71.6934 70.9786 71.6934 71.7789C71.6934 72.5792 71.0724 73.2281 70.3066 73.2281Z" fill="#1A6291"/>
<path d="M92.4941 81.9235H48.1191C47.3534 81.9235 46.7324 81.2749 46.7324 80.4743C46.7324 79.6737 47.3534 79.0251 48.1191 79.0251H92.4941C93.2599 79.0251 93.8809 79.6737 93.8809 80.4743C93.8809 81.2749 93.2599 81.9235 92.4941 81.9235Z" fill="#1A6291"/>
<path d="M92.4941 90.619H48.1191C47.3534 90.619 46.7324 89.9703 46.7324 89.1697C46.7324 88.3692 47.3534 87.7205 48.1191 87.7205H92.4941C93.2599 87.7205 93.8809 88.3692 93.8809 89.1697C93.8809 89.9703 93.2599 90.619 92.4941 90.619Z" fill="#1A6291"/>
<path d="M92.4941 99.3144H48.1191C47.3534 99.3144 46.7324 98.6657 46.7324 97.8651C46.7324 97.0646 47.3534 96.4159 48.1191 96.4159H92.4941C93.2599 96.4159 93.8809 97.0646 93.8809 97.8651C93.8809 98.6657 93.2599 99.3144 92.4941 99.3144Z" fill="#1A6291"/>
<path d="M92.4941 108.01H48.1191C47.3534 108.01 46.7324 107.361 46.7324 106.561C46.7324 105.76 47.3534 105.111 48.1191 105.111H92.4941C93.2599 105.111 93.8809 105.76 93.8809 106.561C93.8809 107.361 93.2599 108.01 92.4941 108.01Z" fill="#1A6291"/>
<path d="M92.4941 116.705H48.1191C47.3534 116.705 46.7324 116.056 46.7324 115.256C46.7324 114.455 47.3534 113.807 48.1191 113.807H92.4941C93.2599 113.807 93.8809 114.455 93.8809 115.256C93.8809 116.056 93.2599 116.705 92.4941 116.705Z" fill="#1A6291"/>
<path d="M121.615 48.5911C117.027 48.5911 113.295 44.6904 113.295 39.8957C113.295 35.1011 117.027 31.2003 121.615 31.2003C126.203 31.2003 129.936 35.1011 129.936 39.8957C129.936 44.6904 126.203 48.5911 121.615 48.5911ZM121.615 34.0988C118.557 34.0988 116.068 36.6993 116.068 39.8957C116.068 43.0922 118.557 45.6927 121.615 45.6927C124.674 45.6927 127.162 43.0922 127.162 39.8957C127.162 36.6993 124.674 34.0988 121.615 34.0988Z" fill="#1A6291"/>
<path d="M18.998 110.908C15.1749 110.908 12.0645 107.658 12.0645 103.662C12.0645 99.6665 15.1749 96.4159 18.998 96.4159C22.8212 96.4159 25.9316 99.6665 25.9316 103.662C25.9316 107.658 22.8212 110.908 18.998 110.908ZM18.998 99.3144C16.7041 99.3144 14.8379 101.264 14.8379 103.662C14.8379 106.06 16.7041 108.01 18.998 108.01C21.292 108.01 23.1582 106.06 23.1582 103.662C23.1582 101.264 21.292 99.3144 18.998 99.3144Z" fill="#1A6291"/>
</svg>
