<svg width="20" height="19" viewBox="0 0 20 19" fill="none" xmlns="http://www.w3.org/2000/svg">
<path d="M14.8828 19H4.78906C2.33361 19 0.335938 17.0023 0.335938 14.5469V4.45312C0.335938 1.99767 2.33361 0 4.78906 0H14.8828C17.3383 0 19.3359 1.99767 19.3359 4.45312V14.5469C19.3359 17.0023 17.3383 19 14.8828 19ZM4.78906 1.48438C3.15209 1.48438 1.82031 2.81616 1.82031 4.45312V14.5469C1.82031 16.1838 3.15209 17.5156 4.78906 17.5156H14.8828C16.5198 17.5156 17.8516 16.1838 17.8516 14.5469V4.45312C17.8516 2.81616 16.5198 1.48438 14.8828 1.48438H4.78906ZM8.16602 3.74805C8.16602 3.33814 7.83374 3.00586 7.42383 3.00586H4.30664C3.89673 3.00586 3.56445 3.33814 3.56445 3.74805C3.56445 4.15796 3.89673 4.49023 4.30664 4.49023H7.42383C7.83374 4.49023 8.16602 4.15796 8.16602 3.74805ZM14.957 12.3945C14.957 11.9846 14.6248 11.6523 14.2148 11.6523H8.01758C7.60767 11.6523 7.27539 11.9846 7.27539 12.3945C7.27539 12.8044 7.60767 13.1367 8.01758 13.1367H14.2148C14.6248 13.1367 14.957 12.8044 14.957 12.3945ZM15.959 15.2891C15.959 14.8792 15.6267 14.5469 15.2168 14.5469H13.584C13.1741 14.5469 12.8418 14.8792 12.8418 15.2891C12.8418 15.699 13.1741 16.0312 13.584 16.0312H15.2168C15.6267 16.0312 15.959 15.699 15.959 15.2891Z" fill="black"/>
</svg>
