<svg width="17" height="14" viewBox="0 0 17 14" fill="none" xmlns="http://www.w3.org/2000/svg">
<path d="M13.0156 11.686H3.98367C1.78709 11.686 0 10.1291 0 8.21548V3.47107C0 1.55712 1.78739 0 3.98437 0H10.5586C10.9253 0 11.2226 0.259 11.2226 0.578512C11.2226 0.898025 10.9253 1.15702 10.5586 1.15702H3.98437C2.51971 1.15702 1.32812 2.19511 1.32812 3.47107V8.21548C1.32812 9.4911 2.51942 10.5289 3.98367 10.5289H13.0156C14.4803 10.5289 15.6718 9.49084 15.6718 8.21488V5.61157C15.6718 5.29206 15.9691 5.03306 16.3359 5.03306C16.7027 5.03306 17 5.29206 17 5.61157V8.21488C17 10.1288 15.2126 11.686 13.0156 11.686ZM12.3515 13.4215C12.3515 13.102 12.0542 12.843 11.6875 12.843H5.31249C4.94573 12.843 4.64843 13.102 4.64843 13.4215C4.64843 13.741 4.94573 14 5.31249 14H11.6875C12.0542 14 12.3515 13.741 12.3515 13.4215Z" fill="black"/>
<path d="M16.3358 3.87603C15.9691 3.87603 15.6718 3.61703 15.6718 3.29752V1.76958C15.6718 1.43182 15.3563 1.15702 14.9687 1.15702H13.2147C12.848 1.15702 12.5507 0.898025 12.5507 0.578512C12.5507 0.259 12.848 0 13.2147 0H14.9687C16.0887 0 16.9999 0.793806 16.9999 1.76958V3.29752C16.9999 3.61703 16.7026 3.87603 16.3358 3.87603ZM14.6908 2.94471C14.9441 2.71366 14.9344 2.34746 14.6691 2.12681C14.4039 1.90617 13.9836 1.91459 13.7303 2.14564C12.1186 3.6159 9.97811 4.42562 7.70304 4.42562H7.31055C6.94378 4.42562 6.64648 4.68462 6.64648 5.00413C6.64648 5.32364 6.94378 5.58264 7.31055 5.58264H7.70304C10.3445 5.58264 12.8261 4.6458 14.6908 2.94471Z" fill="#1A6291"/>
</svg>
