<svg width="15" height="14" viewBox="0 0 15 14" fill="none" xmlns="http://www.w3.org/2000/svg">
<path d="M11.4844 14H3.51562C1.57711 14 0 12.528 0 10.7188V6.09766C0 4.28837 1.57711 2.81641 3.51562 2.81641H5.85938C6.18299 2.81641 6.44531 3.06124 6.44531 3.36328C6.44531 3.66532 6.18299 3.91016 5.85938 3.91016H3.51562C2.22328 3.91016 1.17188 4.89147 1.17188 6.09766V10.7188C1.17188 11.9249 2.22328 12.9062 3.51562 12.9062H11.4844C12.7767 12.9062 13.8281 11.9249 13.8281 10.7188V7.57422C13.8281 7.27218 14.0904 7.02734 14.4141 7.02734C14.7377 7.02734 15 7.27218 15 7.57422V10.7188C15 12.528 13.4229 14 11.4844 14ZM15 3.44531C15 1.54555 13.3441 0 11.3086 0C9.27314 0 7.61719 1.54555 7.61719 3.44531C7.61719 5.34507 9.27314 6.89062 11.3086 6.89062C13.3441 6.89062 15 5.34507 15 3.44531ZM13.8281 3.44531C13.8281 4.74195 12.6979 5.79688 11.3086 5.79688C9.91934 5.79688 8.78906 4.74195 8.78906 3.44531C8.78906 2.14867 9.91934 1.09375 11.3086 1.09375C12.6979 1.09375 13.8281 2.14867 13.8281 3.44531Z" fill="black"/>
<path d="M7.49983 10.1698C6.74763 10.1698 5.99555 9.94637 5.36798 9.49963L2.57505 7.51734C2.31747 7.33452 2.26743 6.99141 2.46331 6.75101C2.65922 6.51057 3.02681 6.46387 3.28439 6.64672L6.07799 8.62947C6.91553 9.2257 8.08453 9.22567 8.9214 8.62996L9.89795 7.93281C10.155 7.74933 10.5228 7.79505 10.7193 8.03493C10.916 8.27482 10.867 8.61807 10.6099 8.80154L9.63273 9.49914C9.00466 9.94626 8.2522 10.1698 7.49983 10.1698ZM11.8946 4.29297V2.59766C11.8946 2.29562 11.6322 2.05078 11.3086 2.05078H10.7227C10.3991 2.05078 10.1368 2.29562 10.1368 2.59766C10.1368 2.8997 10.3991 3.14453 10.7227 3.14453V4.29297C10.7227 4.59501 10.985 4.83984 11.3086 4.83984C11.6322 4.83984 11.8946 4.59501 11.8946 4.29297Z" fill="#1A6291"/>
</svg>
