<svg width="60" height="60" viewBox="0 0 60 60" fill="none" xmlns="http://www.w3.org/2000/svg">
<path d="M40.4199 6.50076H52.4072" stroke="#AFAFAF" stroke-width="2" stroke-miterlimit="2.6131" stroke-linecap="round" stroke-linejoin="round"/>
<path d="M52.4082 6.50076C53.2776 6.50076 53.99 7.21464 53.99 8.07972" stroke="#AFAFAF" stroke-width="2" stroke-miterlimit="2.6131" stroke-linecap="round" stroke-linejoin="round"/>
<path d="M53.9902 8.07973V30.067" stroke="#AFAFAF" stroke-width="2" stroke-miterlimit="2.6131" stroke-linecap="round" stroke-linejoin="round"/>
<path d="M53.99 30.067C53.99 30.9335 53.2762 31.6474 52.4082 31.6474" stroke="#AFAFAF" stroke-width="2" stroke-miterlimit="2.6131" stroke-linecap="round" stroke-linejoin="round"/>
<path d="M52.4069 31.6474H51.459" stroke="#AFAFAF" stroke-width="2" stroke-miterlimit="2.6131" stroke-linecap="round" stroke-linejoin="round"/>
<path d="M33.582 18.1392V12.8267L40.4197 6.50076" stroke="#AFAFAF" stroke-width="2" stroke-miterlimit="2.6131" stroke-linecap="round" stroke-linejoin="round"/>
<path d="M40.7422 6.50076V12.1927" stroke="#AFAFAF" stroke-width="2" stroke-miterlimit="2.6131" stroke-linecap="round" stroke-linejoin="round"/>
<path d="M40.7426 12.1927C40.7426 12.6565 40.3588 13.0403 39.8965 13.0403" stroke="#AFAFAF" stroke-width="2" stroke-miterlimit="2.6131" stroke-linecap="round" stroke-linejoin="round"/>
<path d="M39.8964 13.0404H33.582" stroke="#AFAFAF" stroke-width="2" stroke-miterlimit="2.6131" stroke-linecap="round" stroke-linejoin="round"/>
<path d="M40.8379 33.2015V22.9705M40.8379 47.3638V46.6237V47.3638ZM40.8379 44.1347V42.9788V44.1347ZM40.8379 40.4898V39.334V40.4898ZM40.8379 36.8449V35.6891V36.8449Z" stroke="#AFAFAF" stroke-width="2" stroke-miterlimit="2.6131" stroke-linecap="round" stroke-linejoin="round"/>
<path d="M40.837 22.9705L36.3867 27.4237" stroke="#AFAFAF" stroke-width="2" stroke-miterlimit="2.6131" stroke-linecap="round" stroke-linejoin="round"/>
<path d="M40.8379 22.9705L45.7099 27.8438" stroke="#AFAFAF" stroke-width="2" stroke-miterlimit="2.6131" stroke-linecap="round" stroke-linejoin="round"/>
<path fill-rule="evenodd" clip-rule="evenodd" d="M5.31206 18.1407H7.1207L6.99566 16.7681C6.9113 15.8392 7.6019 15.0802 8.53094 15.0802H21.2509C22.18 15.0802 23.0086 15.8392 23.0931 16.7681L23.2167 18.1407H47.7029C49.0957 18.1407 50.3388 19.2791 50.4654 20.6719L53.2117 50.9667C53.3383 52.3594 52.3017 53.4993 50.9103 53.4993H8.5193C7.12646 53.4993 5.88338 52.3594 5.7569 50.9667L3.01046 20.6719C2.88398 19.2791 3.91922 18.1407 5.31206 18.1407Z" stroke="#AFAFAF" stroke-width="2" stroke-miterlimit="2.6131" stroke-linecap="round" stroke-linejoin="round"/>
<path d="M53.9904 22.793H55.0576C56.2673 22.793 57.1338 23.7816 56.9841 24.9913L53.7158 51.2994C53.566 52.509 52.4537 53.4991 51.2441 53.4991" stroke="#AFAFAF" stroke-width="2" stroke-miterlimit="2.6131" stroke-linecap="round" stroke-linejoin="round"/>
</svg>
