<svg width="29" height="30" viewBox="0 0 29 30" fill="none" xmlns="http://www.w3.org/2000/svg">
<path d="M5.3418 0.729261C5.3418 0.326505 5.68346 0 6.10495 0C6.52645 0 6.86811 0.326505 6.86811 0.729261V5.10483C6.86811 5.5076 6.52645 5.83409 6.10495 5.83409C5.68346 5.83409 5.3418 5.5076 5.3418 5.10483V0.729261Z" fill="#FF6700"/>
<path d="M17.5527 0.729261C17.5527 0.326505 17.8944 0 18.3159 0C18.7374 0 19.0791 0.326505 19.0791 0.729261V5.10483C19.0791 5.5076 18.7374 5.83409 18.3159 5.83409C17.8944 5.83409 17.5527 5.5076 17.5527 5.10483V0.729261Z" fill="#FF6700"/>
<path fill-rule="evenodd" clip-rule="evenodd" d="M6.86904 13.856H5.34272V15.3145H6.86904V13.856ZM5.34272 12.3975C4.49974 12.3975 3.81641 13.0504 3.81641 13.856V15.3145C3.81641 16.12 4.49974 16.773 5.34272 16.773H6.86904C7.71202 16.773 8.39535 16.12 8.39535 15.3145V13.856C8.39535 13.0504 7.71202 12.3975 6.86904 12.3975H5.34272Z" fill="#FF6700"/>
<path fill-rule="evenodd" clip-rule="evenodd" d="M12.9745 13.856H11.4482V15.3145H12.9745V13.856ZM11.4482 12.3975C10.6052 12.3975 9.92188 13.0504 9.92188 13.856V15.3145C9.92188 16.12 10.6052 16.773 11.4482 16.773H12.9745C13.8175 16.773 14.5008 16.12 14.5008 15.3145V13.856C14.5008 13.0504 13.8175 12.3975 12.9745 12.3975H11.4482Z" fill="#FF6700"/>
<path fill-rule="evenodd" clip-rule="evenodd" d="M19.078 13.856H17.5517V15.3145H19.078V13.856ZM17.5517 12.3975C16.7087 12.3975 16.0254 13.0504 16.0254 13.856V15.3145C16.0254 16.12 16.7087 16.773 17.5517 16.773H19.078C19.921 16.773 20.6043 16.12 20.6043 15.3145V13.856C20.6043 13.0504 19.921 12.3975 19.078 12.3975H17.5517Z" fill="#FF6700"/>
<path fill-rule="evenodd" clip-rule="evenodd" d="M6.86904 19.69H5.34272V21.1485H6.86904V19.69ZM5.34272 18.2314C4.49974 18.2314 3.81641 18.8844 3.81641 19.69V21.1485C3.81641 21.954 4.49974 22.607 5.34272 22.607H6.86904C7.71202 22.607 8.39535 21.954 8.39535 21.1485V19.69C8.39535 18.8844 7.71202 18.2314 6.86904 18.2314H5.34272Z" fill="#FF6700"/>
<path fill-rule="evenodd" clip-rule="evenodd" d="M12.9745 19.69H11.4482V21.1485H12.9745V19.69ZM11.4482 18.2314C10.6052 18.2314 9.92188 18.8844 9.92188 19.69V21.1485C9.92188 21.954 10.6052 22.607 11.4482 22.607H12.9745C13.8175 22.607 14.5008 21.954 14.5008 21.1485V19.69C14.5008 18.8844 13.8175 18.2314 12.9745 18.2314H11.4482Z" fill="#FF6700"/>
<path fill-rule="evenodd" clip-rule="evenodd" d="M3.05263 4.37552H21.3684C22.2114 4.37552 22.8947 5.0285 22.8947 5.83404V17.5022C23.4218 17.5022 23.9332 17.566 24.4211 17.686V5.83404C24.4211 4.223 23.0543 2.91699 21.3684 2.91699H3.05263C1.36671 2.91699 0 4.223 0 5.83404V23.3363C0 24.9473 1.36671 26.2534 3.05263 26.2534H17.6063C17.333 25.8019 17.1212 25.3122 16.9818 24.7948H3.05263C2.20967 24.7948 1.52632 24.1419 1.52632 23.3363V5.83404C1.52632 5.0285 2.20967 4.37552 3.05263 4.37552Z" fill="#FF6700"/>
<path fill-rule="evenodd" clip-rule="evenodd" d="M23.6584 10.9389H0.763672V9.48035H23.6584V10.9389Z" fill="#FF6700"/>
<path fill-rule="evenodd" clip-rule="evenodd" d="M22.8943 27.712C25.4232 27.712 27.4733 25.753 27.4733 23.3364C27.4733 20.9199 25.4232 18.9608 22.8943 18.9608C20.3654 18.9608 18.3154 20.9199 18.3154 23.3364C18.3154 25.753 20.3654 27.712 22.8943 27.712ZM22.8943 29.1705C26.2662 29.1705 28.9996 26.5585 28.9996 23.3364C28.9996 20.1143 26.2662 17.5023 22.8943 17.5023C19.5225 17.5023 16.7891 20.1143 16.7891 23.3364C16.7891 26.5585 19.5225 29.1705 22.8943 29.1705Z" fill="#FF6700"/>
<path fill-rule="evenodd" clip-rule="evenodd" d="M22.894 19.8204C23.3155 19.8204 23.6572 20.1469 23.6572 20.5497V23.6841L25.5281 24.9251C25.8743 25.1548 25.9602 25.6092 25.7198 25.94C25.4794 26.2709 25.0039 26.3529 24.6577 26.1233L22.1309 24.4472V20.5497C22.1309 20.1469 22.4725 19.8204 22.894 19.8204Z" fill="#FF6700"/>
</svg>
