<svg width="22" height="27" viewBox="0 0 22 27" fill="none" xmlns="http://www.w3.org/2000/svg">
<path fill-rule="evenodd" clip-rule="evenodd" d="M6.6 0C5.38494 0 4.4 0.929872 4.4 2.07692H2.2C0.98494 2.07692 0 3.00679 0 4.15384V23.5384C0 24.6855 0.98494 25.6154 2.2 25.6154H11V24.2308H2.2C1.79498 24.2308 1.46667 23.9208 1.46667 23.5384V4.15384C1.46667 3.7715 1.79498 3.46154 2.2 3.46154H4.4C4.4 4.60862 5.38494 5.53846 6.6 5.53846H12.4667C13.6817 5.53846 14.6667 4.60862 14.6667 3.46154H16.8667C17.2717 3.46154 17.6 3.7715 17.6 4.15384V14.5385H19.0667V4.15384C19.0667 3.00679 18.0817 2.07692 16.8667 2.07692H14.6667C14.6667 0.929872 13.6817 0 12.4667 0H6.6ZM5.86667 2.07692C5.86667 1.69457 6.19498 1.38461 6.6 1.38461H12.4667C12.8717 1.38461 13.2 1.69457 13.2 2.07692V3.46154C13.2 3.84388 12.8717 4.15384 12.4667 4.15384H6.6C6.19498 4.15384 5.86667 3.84388 5.86667 3.46154V2.07692ZM8.8 10.3846V8.30769H10.2667V10.3846H12.4667V11.7692H10.2667V13.8461H8.8V11.7692H6.6V10.3846H8.8ZM11.7333 16.6154C11.7333 16.233 12.0616 15.9231 12.4667 15.9231H21.2667C21.6717 15.9231 22 16.233 22 16.6154V21.3154C22 22.9357 21.1422 24.4488 19.7141 25.3477L17.2734 26.8837C17.0271 27.0388 16.7062 27.0388 16.4599 26.8837L14.0192 25.3477C12.5911 24.4488 11.7333 22.9357 11.7333 21.3154V16.6154ZM13.2 17.3077V21.3154C13.2 22.4728 13.8127 23.5535 14.8328 24.1956L16.8667 25.4756L18.9006 24.1956C19.9206 23.5535 20.5333 22.4728 20.5333 21.3154V17.3077H13.2ZM16.6519 22.6434L19.5852 19.8742L18.5481 18.8951L16.1333 21.1748L15.1852 20.2798L14.1481 21.2588L15.6147 22.6434C15.9012 22.9138 16.3654 22.9138 16.6519 22.6434Z" fill="#333333"/>
</svg>
