<svg width="18" height="23" viewBox="0 0 18 23" fill="none" xmlns="http://www.w3.org/2000/svg">
<path d="M9.01128 22.3998C10.0757 22.3998 10.937 21.5057 10.937 20.4006H7.08556C7.08556 21.5057 7.94681 22.3998 9.01128 22.3998ZM17.0335 17.6679L15.7852 16.3719V10.344C15.7852 6.97841 13.5014 4.16539 10.4628 3.48222V2.30678C10.4628 1.47292 9.81447 0.799805 9.01128 0.799805C8.20809 0.799805 7.55973 1.47292 7.55973 2.30678V3.48222C4.52115 4.16539 2.23738 6.97841 2.23738 10.344V16.3719L0.989049 17.6679C0.379399 18.3008 0.805186 19.3859 1.66644 19.3859H16.3464C17.2174 19.3859 17.6432 18.3008 17.0335 17.6679ZM10.0915 16.9998H8.01093V14.8398H10.0915V16.9998ZM10.0915 12.1398C10.0915 12.6924 9.55662 12.9498 9.02438 12.9498C8.49215 12.9498 8.01093 12.6924 8.01093 12.1398L7.98411 6.7398C7.98411 6.18725 8.49215 5.9298 9.02438 5.9298C9.55662 5.9298 10.0915 6.18725 10.0915 6.7398V12.1398Z" fill="#FFB300"/>
</svg>
