<svg width="130" height="100" viewBox="0 0 130 100" fill="none" xmlns="http://www.w3.org/2000/svg">
<rect y="30.5557" width="129.167" height="69.4445" rx="10" fill="url(#paint0_linear)" fill-opacity="0.7"/>
<path d="M26.3154 86.0117H21.4741L20.3755 89H19.4307L23.4663 78.3359H24.3232L28.3589 89H27.4214L26.3154 86.0117ZM21.7524 85.2427H26.0298L23.8911 79.4346L21.7524 85.2427ZM36.1006 85.1182C36.1006 86.3535 35.8271 87.335 35.2803 88.0625C34.7334 88.7852 34.001 89.1465 33.083 89.1465C31.999 89.1465 31.1689 88.7656 30.5928 88.0039V92.0469H29.7212V81.0752H30.5342L30.5781 82.1958C31.1494 81.3511 31.9771 80.9287 33.061 80.9287C34.0083 80.9287 34.7505 81.2876 35.2876 82.0054C35.8296 82.7231 36.1006 83.7192 36.1006 84.9937V85.1182ZM35.2217 84.9644C35.2217 83.9536 35.0142 83.1553 34.5991 82.5693C34.1841 81.9834 33.6055 81.6904 32.8633 81.6904C32.3262 81.6904 31.8647 81.8198 31.479 82.0786C31.0933 82.3374 30.7979 82.7134 30.5928 83.2065V87.0078C30.8027 87.4619 31.103 87.8086 31.4937 88.0479C31.8843 88.2871 32.3457 88.4067 32.8779 88.4067C33.6152 88.4067 34.189 88.1138 34.5991 87.5278C35.0142 86.937 35.2217 86.0825 35.2217 84.9644ZM44.4209 85.1182C44.4209 86.3535 44.1475 87.335 43.6006 88.0625C43.0537 88.7852 42.3213 89.1465 41.4033 89.1465C40.3193 89.1465 39.4893 88.7656 38.9131 88.0039V92.0469H38.0415V81.0752H38.8545L38.8984 82.1958C39.4697 81.3511 40.2974 80.9287 41.3813 80.9287C42.3286 80.9287 43.0708 81.2876 43.6079 82.0054C44.1499 82.7231 44.4209 83.7192 44.4209 84.9937V85.1182ZM43.542 84.9644C43.542 83.9536 43.3345 83.1553 42.9194 82.5693C42.5044 81.9834 41.9258 81.6904 41.1836 81.6904C40.6465 81.6904 40.1851 81.8198 39.7993 82.0786C39.4136 82.3374 39.1182 82.7134 38.9131 83.2065V87.0078C39.123 87.4619 39.4233 87.8086 39.814 88.0479C40.2046 88.2871 40.666 88.4067 41.1982 88.4067C41.9355 88.4067 42.5093 88.1138 42.9194 87.5278C43.3345 86.937 43.542 86.0825 43.542 84.9644ZM45.8857 84.9204C45.8857 84.1587 46.0322 83.4727 46.3252 82.8623C46.623 82.252 47.0405 81.7783 47.5776 81.4414C48.1196 81.0996 48.7324 80.9287 49.416 80.9287C50.4707 80.9287 51.3252 81.2998 51.9795 82.042C52.6338 82.7793 52.9609 83.7583 52.9609 84.979V85.1621C52.9609 85.9287 52.812 86.6196 52.5142 87.2349C52.2212 87.8452 51.8062 88.3164 51.269 88.6484C50.7319 88.9805 50.1191 89.1465 49.4307 89.1465C48.3809 89.1465 47.5264 88.7778 46.8672 88.0405C46.2129 87.2983 45.8857 86.3169 45.8857 85.0962V84.9204ZM46.7646 85.1621C46.7646 86.1094 47.0088 86.8882 47.4971 87.4985C47.9902 88.104 48.6348 88.4067 49.4307 88.4067C50.2217 88.4067 50.8613 88.104 51.3496 87.4985C51.8428 86.8882 52.0894 86.085 52.0894 85.0889V84.9204C52.0894 84.3149 51.9771 83.7607 51.7524 83.2578C51.5278 82.7549 51.2129 82.3667 50.8076 82.0933C50.4023 81.8149 49.9385 81.6758 49.416 81.6758C48.6348 81.6758 47.9976 81.9834 47.5044 82.5986C47.0112 83.209 46.7646 84.0098 46.7646 85.001V85.1621ZM55.7588 89H54.8799V81.0752H55.7588V89ZM54.7261 78.7827C54.7261 78.6167 54.7798 78.4775 54.8872 78.3652C54.9946 78.248 55.1411 78.1895 55.3267 78.1895C55.5122 78.1895 55.6587 78.248 55.7661 78.3652C55.8784 78.4775 55.9346 78.6167 55.9346 78.7827C55.9346 78.9487 55.8784 79.0879 55.7661 79.2002C55.6587 79.3125 55.5122 79.3687 55.3267 79.3687C55.1411 79.3687 54.9946 79.3125 54.8872 79.2002C54.7798 79.0879 54.7261 78.9487 54.7261 78.7827ZM58.9814 81.0752L59.0107 82.4302C59.3086 81.9419 59.6797 81.5708 60.124 81.3169C60.5684 81.0581 61.0591 80.9287 61.5962 80.9287C62.4458 80.9287 63.0781 81.168 63.4932 81.6465C63.9082 82.125 64.1182 82.8428 64.123 83.7998V89H63.2515V83.7925C63.2466 83.0845 63.0952 82.5571 62.7974 82.2104C62.5044 81.8638 62.0332 81.6904 61.3838 81.6904C60.8418 81.6904 60.3608 81.8613 59.9409 82.2031C59.5259 82.54 59.2183 82.9966 59.0181 83.5728V89H58.1465V81.0752H58.9814ZM67.7559 79.0464V81.0752H69.3965V81.793H67.7559V87.0737C67.7559 87.5132 67.834 87.8403 67.9902 88.0552C68.1514 88.27 68.4175 88.3774 68.7886 88.3774C68.9351 88.3774 69.1719 88.353 69.499 88.3042L69.5356 89.022C69.3062 89.105 68.9937 89.1465 68.5981 89.1465C67.9976 89.1465 67.5605 88.9731 67.2871 88.6265C67.0137 88.2749 66.877 87.7598 66.877 87.0811V81.793H65.4194V81.0752H66.877V79.0464H67.7559ZM72.0112 81.0752L72.0405 82.3643C72.3335 81.8857 72.6997 81.5269 73.1392 81.2876C73.5786 81.0483 74.0669 80.9287 74.604 80.9287C75.854 80.9287 76.6475 81.4414 76.9844 82.4668C77.2676 81.9736 77.646 81.5952 78.1196 81.3315C78.5933 81.063 79.1157 80.9287 79.687 80.9287C81.3862 80.9287 82.2529 81.8564 82.2871 83.7119V89H81.4082V83.7778C81.4033 83.0698 81.2495 82.5449 80.9468 82.2031C80.6489 81.8613 80.1606 81.6904 79.4819 81.6904C78.8521 81.7002 78.3198 81.9053 77.8853 82.3057C77.4507 82.7012 77.209 83.1846 77.1602 83.7559V89H76.2812V83.7119C76.2764 83.0332 76.1152 82.5278 75.7979 82.1958C75.4854 81.8589 75.002 81.6904 74.3477 81.6904C73.7959 81.6904 73.3223 81.8491 72.9268 82.1665C72.5312 82.479 72.2383 82.9453 72.0479 83.5654V89H71.1689V81.0752H72.0112ZM87.5825 89.1465C86.9087 89.1465 86.2983 88.9805 85.7515 88.6484C85.2095 88.3164 84.7871 87.855 84.4844 87.2642C84.1816 86.6685 84.0303 86.002 84.0303 85.2646V84.9497C84.0303 84.188 84.1768 83.502 84.4697 82.8916C84.7676 82.2812 85.1802 81.8027 85.7075 81.4561C86.2349 81.1045 86.8062 80.9287 87.4214 80.9287C88.3833 80.9287 89.145 81.2583 89.7065 81.9175C90.2729 82.5718 90.5562 83.4678 90.5562 84.6055V85.0962H84.9019V85.2646C84.9019 86.1631 85.1582 86.9126 85.6709 87.5132C86.1885 88.1089 86.8379 88.4067 87.6191 88.4067C88.0879 88.4067 88.5005 88.3213 88.8569 88.1504C89.2183 87.9795 89.5454 87.7061 89.8384 87.3301L90.3877 87.7476C89.7432 88.6802 88.8081 89.1465 87.5825 89.1465ZM87.4214 81.6758C86.7622 81.6758 86.2056 81.9175 85.7515 82.4009C85.3022 82.8843 85.0288 83.5337 84.9312 84.3491H89.6846V84.2539C89.6602 83.4922 89.4429 82.8721 89.0327 82.3936C88.6226 81.915 88.0854 81.6758 87.4214 81.6758ZM93.0977 81.0752L93.127 82.4302C93.4248 81.9419 93.7959 81.5708 94.2402 81.3169C94.6846 81.0581 95.1753 80.9287 95.7124 80.9287C96.562 80.9287 97.1943 81.168 97.6094 81.6465C98.0244 82.125 98.2344 82.8428 98.2393 83.7998V89H97.3677V83.7925C97.3628 83.0845 97.2114 82.5571 96.9136 82.2104C96.6206 81.8638 96.1494 81.6904 95.5 81.6904C94.958 81.6904 94.4771 81.8613 94.0571 82.2031C93.6421 82.54 93.3345 82.9966 93.1343 83.5728V89H92.2627V81.0752H93.0977ZM101.872 79.0464V81.0752H103.513V81.793H101.872V87.0737C101.872 87.5132 101.95 87.8403 102.106 88.0552C102.268 88.27 102.534 88.3774 102.905 88.3774C103.051 88.3774 103.288 88.353 103.615 88.3042L103.652 89.022C103.422 89.105 103.11 89.1465 102.714 89.1465C102.114 89.1465 101.677 88.9731 101.403 88.6265C101.13 88.2749 100.993 87.7598 100.993 87.0811V81.793H99.5356V81.0752H100.993V79.0464H101.872ZM110.075 86.9858C110.075 86.5513 109.899 86.2021 109.548 85.9385C109.201 85.6748 108.676 85.4697 107.973 85.3232C107.27 85.1719 106.723 85.001 106.333 84.8105C105.947 84.6152 105.659 84.3784 105.468 84.1001C105.283 83.8218 105.19 83.4849 105.19 83.0894C105.19 82.4644 105.451 81.9492 105.974 81.5439C106.496 81.1338 107.165 80.9287 107.98 80.9287C108.864 80.9287 109.572 81.1484 110.104 81.5879C110.642 82.0225 110.91 82.5913 110.91 83.2944H110.031C110.031 82.8306 109.836 82.4448 109.445 82.1372C109.06 81.8296 108.571 81.6758 107.98 81.6758C107.404 81.6758 106.94 81.8052 106.589 82.064C106.242 82.3179 106.069 82.6499 106.069 83.0601C106.069 83.4556 106.213 83.7632 106.501 83.9829C106.794 84.1978 107.324 84.3955 108.09 84.5762C108.862 84.7568 109.438 84.9497 109.819 85.1548C110.205 85.3599 110.49 85.6064 110.676 85.8945C110.861 86.1826 110.954 86.5317 110.954 86.9419C110.954 87.6108 110.683 88.1455 110.141 88.5459C109.604 88.9463 108.901 89.1465 108.032 89.1465C107.109 89.1465 106.359 88.9243 105.783 88.48C105.212 88.0308 104.926 87.4644 104.926 86.7808H105.805C105.839 87.2935 106.054 87.6938 106.45 87.9819C106.85 88.2651 107.377 88.4067 108.032 88.4067C108.642 88.4067 109.135 88.2725 109.511 88.0039C109.887 87.7354 110.075 87.396 110.075 86.9858Z" fill="black"/>
<g clip-path="url(#clip0)" filter="url(#filter0_d)">
<path d="M85.5525 58.1834H36.7537C35.7581 58.1834 34.8034 57.7879 34.0994 57.0839C33.3954 56.38 32.9999 55.4252 32.9999 54.4296V7.50766C32.9999 6.51211 33.3954 5.55732 34.0994 4.85336C34.8034 4.14939 35.7581 3.75391 36.7537 3.75391H85.5525C86.5481 3.75391 87.5029 4.14939 88.2068 4.85336C88.9108 5.55732 89.3063 6.51211 89.3063 7.50766V54.4296C89.3063 55.4252 88.9108 56.38 88.2068 57.0839C87.5029 57.7879 86.5481 58.1834 85.5525 58.1834ZM76.5904 5.63079C75.6114 5.64807 74.6792 6.05298 73.9984 6.75671C73.3175 7.46043 72.9436 8.40548 72.9587 9.38454C72.9394 9.87363 73.0191 10.3616 73.193 10.8191C73.3669 11.2766 73.6314 11.6944 73.9706 12.0472C74.3098 12.4001 74.7168 12.6808 75.1672 12.8725C75.6175 13.0643 76.1019 13.1631 76.5914 13.1631C77.0808 13.1631 77.5653 13.0643 78.0156 12.8725C78.466 12.6808 78.8729 12.4001 79.2122 12.0472C79.5514 11.6944 79.8159 11.2766 79.9898 10.8191C80.1636 10.3616 80.2433 9.87363 80.2241 9.38454C80.2386 8.40531 79.8643 7.46026 79.1832 6.75659C78.502 6.05292 77.5696 5.64807 76.5904 5.63079ZM45.7139 5.63079C44.7349 5.64807 43.8027 6.05298 43.1219 6.75671C42.441 7.46043 42.0671 8.40548 42.0822 9.38454C42.0676 10.3635 42.4417 11.3082 43.1224 12.0118C43.8032 12.7155 44.7351 13.1205 45.7139 13.1383C46.6931 13.121 47.6255 12.7162 48.3066 12.0125C48.9878 11.3088 49.3621 10.3638 49.3476 9.38454C49.3621 8.40531 48.9878 7.46026 48.3066 6.75659C47.6255 6.05292 46.6931 5.64807 45.7139 5.63079Z" fill="#84A70F"/>
<path d="M32.9999 16.8916H89.3063V56.306C89.3063 57.3016 88.9108 58.2564 88.2068 58.9604C87.5029 59.6643 86.5481 60.0598 85.5525 60.0598H36.7537C35.7581 60.0598 34.8034 59.6643 34.0994 58.9604C33.3954 58.2564 32.9999 57.3016 32.9999 56.306V16.8916Z" fill="#D5EB74"/>
<path d="M57.6528 20.6455H52.0221C50.9856 20.6455 50.1453 21.4858 50.1453 22.5224V28.153C50.1453 29.1896 50.9856 30.0299 52.0221 30.0299H57.6528C58.6894 30.0299 59.5297 29.1896 59.5297 28.153V22.5224C59.5297 21.4858 58.6894 20.6455 57.6528 20.6455Z" fill="white"/>
<path d="M70.2842 20.6455H64.6535C63.6169 20.6455 62.7766 21.4858 62.7766 22.5224V28.153C62.7766 29.1896 63.6169 30.0299 64.6535 30.0299H70.2842C71.3207 30.0299 72.161 29.1896 72.161 28.153V22.5224C72.161 21.4858 71.3207 20.6455 70.2842 20.6455Z" fill="white"/>
<path d="M82.7372 20.6455H77.1066C76.07 20.6455 75.2297 21.4858 75.2297 22.5224V28.153C75.2297 29.1896 76.07 30.0299 77.1066 30.0299H82.7372C83.7738 30.0299 84.6141 29.1896 84.6141 28.153V22.5224C84.6141 21.4858 83.7738 20.6455 82.7372 20.6455Z" fill="#E64A19"/>
<path d="M45.1997 33.7842H39.569C38.5325 33.7842 37.6922 34.6245 37.6922 35.6611V41.2917C37.6922 42.3283 38.5325 43.1686 39.569 43.1686H45.1997C46.2363 43.1686 47.0766 42.3283 47.0766 41.2917V35.6611C47.0766 34.6245 46.2363 33.7842 45.1997 33.7842Z" fill="white"/>
<path d="M57.6528 33.7842H52.0221C50.9856 33.7842 50.1453 34.6245 50.1453 35.6611V41.2917C50.1453 42.3283 50.9856 43.1686 52.0221 43.1686H57.6528C58.6894 43.1686 59.5297 42.3283 59.5297 41.2917V35.6611C59.5297 34.6245 58.6894 33.7842 57.6528 33.7842Z" fill="#A9C145"/>
<path d="M70.2842 33.7842H64.6535C63.6169 33.7842 62.7766 34.6245 62.7766 35.6611V41.2917C62.7766 42.3283 63.6169 43.1686 64.6535 43.1686H70.2842C71.3207 43.1686 72.161 42.3283 72.161 41.2917V35.6611C72.161 34.6245 71.3207 33.7842 70.2842 33.7842Z" fill="white"/>
<path d="M82.7372 33.7842H77.1066C76.07 33.7842 75.2297 34.6245 75.2297 35.6611V41.2917C75.2297 42.3283 76.07 43.1686 77.1066 43.1686H82.7372C83.7738 43.1686 84.6141 42.3283 84.6141 41.2917V35.6611C84.6141 34.6245 83.7738 33.7842 82.7372 33.7842Z" fill="white"/>
<path d="M45.1997 46.9219H39.569C38.5325 46.9219 37.6922 47.7622 37.6922 48.7988V54.4294C37.6922 55.466 38.5325 56.3063 39.569 56.3063H45.1997C46.2363 56.3063 47.0766 55.466 47.0766 54.4294V48.7988C47.0766 47.7622 46.2363 46.9219 45.1997 46.9219Z" fill="white"/>
<path d="M57.6528 46.9219H52.0221C50.9856 46.9219 50.1453 47.7622 50.1453 48.7988V54.4294C50.1453 55.466 50.9856 56.3063 52.0221 56.3063H57.6528C58.6894 56.3063 59.5297 55.466 59.5297 54.4294V48.7988C59.5297 47.7622 58.6894 46.9219 57.6528 46.9219Z" fill="white"/>
<path d="M32.9999 16.8916H89.3063" stroke="#A9C145"/>
<path d="M48.015 1.87688C48.015 0.840307 47.1747 0 46.1381 0C45.1015 0 44.2612 0.840307 44.2612 1.87688V7.50751C44.2612 8.54409 45.1015 9.38439 46.1381 9.38439C47.1747 9.38439 48.015 8.54409 48.015 7.50751V1.87688Z" fill="#C68400"/>
<path d="M78.045 1.87688C78.045 0.840307 77.2047 0 76.1682 0C75.1316 0 74.2913 0.840307 74.2913 1.87688V7.50751C74.2913 8.54409 75.1316 9.38439 76.1682 9.38439C77.2047 9.38439 78.045 8.54409 78.045 7.50751V1.87688Z" fill="#C68400"/>
<path d="M78.9835 68.0366C68.8931 68.0366 60.6839 59.8275 60.6839 49.7371C60.6839 39.6467 68.8931 31.4375 78.9835 31.4375C89.0739 31.4375 97.2831 39.6467 97.2831 49.7371C97.2831 54.9056 95.1167 59.673 91.0183 63.524C88.0401 66.3515 83.5431 68.0366 78.9835 68.0366Z" fill="white"/>
<path d="M78.9835 32.8456C69.6692 32.8456 62.0916 40.4233 62.0916 49.7375C62.0916 59.0517 69.6692 66.6294 78.9835 66.6294C83.1913 66.6294 87.326 65.0889 90.0438 62.5086L90.049 62.5036L90.0544 62.4986C93.8625 58.9204 95.8754 54.5077 95.8754 49.7375C95.8754 40.4233 88.2977 32.8456 78.9835 32.8456ZM78.9835 30.0303C89.8675 30.0303 98.6907 38.8535 98.6907 49.7375C98.6907 55.3863 96.3141 60.48 91.9822 64.5503C88.9772 67.4034 84.2187 69.4447 78.9835 69.4447C68.0995 69.4447 59.2762 60.6215 59.2762 49.7375C59.2762 38.8535 68.0995 30.0303 78.9835 30.0303Z" fill="#84A70F"/>
<path d="M78.9835 36.7422V49.7377H87.7429" stroke="#84A70F" stroke-linecap="round" stroke-linejoin="bevel"/>
<path d="M78.9834 52.5525C80.5383 52.5525 81.7988 51.292 81.7988 49.7372C81.7988 48.1823 80.5383 46.9219 78.9834 46.9219C77.4286 46.9219 76.1681 48.1823 76.1681 49.7372C76.1681 51.292 77.4286 52.5525 78.9834 52.5525Z" fill="white"/>
<path d="M78.9834 51.6141C80.02 51.6141 80.8603 50.7738 80.8603 49.7372C80.8603 48.7007 80.02 47.8604 78.9834 47.8604C77.9468 47.8604 77.1065 48.7007 77.1065 49.7372C77.1065 50.7738 77.9468 51.6141 78.9834 51.6141Z" stroke="#84A70F"/>
</g>
<defs>
<filter id="filter0_d" x="28.9999" y="0" width="73.6908" height="77.4445" filterUnits="userSpaceOnUse" color-interpolation-filters="sRGB">
<feFlood flood-opacity="0" result="BackgroundImageFix"/>
<feColorMatrix in="SourceAlpha" type="matrix" values="0 0 0 0 0 0 0 0 0 0 0 0 0 0 0 0 0 0 127 0"/>
<feOffset dy="4"/>
<feGaussianBlur stdDeviation="2"/>
<feColorMatrix type="matrix" values="0 0 0 0 0 0 0 0 0 0 0 0 0 0 0 0 0 0 0.25 0"/>
<feBlend mode="normal" in2="BackgroundImageFix" result="effect1_dropShadow"/>
<feBlend mode="normal" in="SourceGraphic" in2="effect1_dropShadow" result="shape"/>
</filter>
<linearGradient id="paint0_linear" x1="0" y1="30.5557" x2="129.167" y2="100" gradientUnits="userSpaceOnUse">
<stop stop-color="#BCE7FF"/>
<stop offset="0.895833" stop-color="#E1C9F8"/>
</linearGradient>
<clipPath id="clip0">
<rect width="65.6908" height="69.4445" fill="white" transform="translate(32.9999)"/>
</clipPath>
</defs>
</svg>
