<svg width="25" height="25" viewBox="0 0 25 25" fill="none" xmlns="http://www.w3.org/2000/svg">
<g clip-path="url(#clip0)">
<path d="M20.8333 16.6667H22.9167C23.4896 16.6667 23.9583 17.1354 23.9583 17.7083C23.9583 18.2813 23.4896 18.75 22.9167 18.75H20.8333V20.8333C20.8333 21.4063 20.3646 21.875 19.7917 21.875C19.2188 21.875 18.75 21.4063 18.75 20.8333V18.75H16.6667C16.0938 18.75 15.625 18.2813 15.625 17.7083C15.625 17.1354 16.0938 16.6667 16.6667 16.6667H18.75V14.5833C18.75 14.0104 19.2188 13.5417 19.7917 13.5417C20.3646 13.5417 20.8333 14.0104 20.8333 14.5833V16.6667Z" fill="#225B73"/>
<path fill-rule="evenodd" clip-rule="evenodd" d="M19.4444 3.35648H20.6019C21.875 3.35648 22.9167 4.39815 22.9167 5.6713L22.9167 11.3009C22.9167 10.7486 22.469 10.3009 21.9167 10.3009H20.6019V9.14352H4.39815V21.875H14.8148V23.1898C14.8148 23.7421 15.2625 24.1898 15.8148 24.1898H20.6061C20.6047 24.1898 20.6033 24.1898 20.6019 24.1898H4.39815C3.11343 24.1898 2.08334 23.1482 2.08334 21.875L2.09491 5.6713C2.09491 4.39815 3.11343 3.35648 4.39815 3.35648H5.55556V1.04167H7.87037V3.35648H17.1296V1.04167H19.4444V3.35648ZM12.5 11.4583H6.71297V17.2454H12.5V11.4583Z" fill="#225B73"/>
</g>
<defs>
<clipPath id="clip0">
<rect width="25" height="25" fill="white"/>
</clipPath>
</defs>
</svg>
