<svg xmlns="http://www.w3.org/2000/svg" width="35" height="37" viewBox="0 0 35 37"><path d="M28,29H2a2,2,0,0,1-2-2V2A2,2,0,0,1,2,0H28a2,2,0,0,1,2,2V27A2,2,0,0,1,28,29ZM23.225,1A1.97,1.97,0,0,0,21.29,3a1.937,1.937,0,1,0,3.871,0A1.971,1.971,0,0,0,23.225,1ZM6.774,1A1.97,1.97,0,0,0,4.839,3,1.971,1.971,0,0,0,6.774,5,1.971,1.971,0,0,0,8.71,3,1.971,1.971,0,0,0,6.774,1Z" transform="translate(0 2)" fill="#84a70f"/><path d="M0,0H30a0,0,0,0,1,0,0V21a2,2,0,0,1-2,2H2a2,2,0,0,1-2-2V0A0,0,0,0,1,0,0Z" transform="translate(0 9)" fill="#d5eb74"/><rect width="5" height="5" rx="1" transform="translate(9.135 11)" fill="#fff"/><rect width="5" height="5" rx="1" transform="translate(15.865 11)" fill="#fff"/><rect width="5" height="5" rx="1" transform="translate(22.5 11)" fill="#e64a19"/><rect width="5" height="5" rx="1" transform="translate(2.5 18)" fill="#fff"/><rect width="5" height="5" rx="1" transform="translate(9.135 18)" fill="#a9c145"/><rect width="5" height="5" rx="1" transform="translate(15.865 18)" fill="#fff"/><rect width="5" height="5" rx="1" transform="translate(22.5 18)" fill="#fff"/><rect width="5" height="5" rx="1" transform="translate(2.5 25)" fill="#fff"/><rect width="5" height="5" rx="1" transform="translate(9.135 25)" fill="#fff"/><line x2="30" transform="translate(0 9)" fill="none" stroke="#a9c145" stroke-width="1"/><rect width="2" height="5" rx="1" transform="translate(6)" fill="#c68400"/><rect width="2" height="5" rx="1" transform="translate(22)" fill="#c68400"/><g transform="translate(14 16)"><g fill="#fff"><path d="M 10.5 20.25 C 5.12382984161377 20.25 0.75 15.87617015838623 0.75 10.5 C 0.75 5.12382984161377 5.12382984161377 0.75 10.5 0.75 C 15.87617015838623 0.75 20.25 5.12382984161377 20.25 10.5 C 20.25 13.2537899017334 19.09577941894531 15.79388046264648 16.91213035583496 17.84565925598145 C 15.3253698348999 19.35218048095703 12.92936992645264 20.25 10.5 20.25 Z" stroke="none"/><path d="M 10.5 1.5 C 5.537380218505859 1.5 1.5 5.537380218505859 1.5 10.5 C 1.5 15.46261978149414 5.537380218505859 19.5 10.5 19.5 C 12.74193954467773 19.5 14.94489002227783 18.67922973632813 16.39290046691895 17.30443954467773 L 16.39571952819824 17.30175018310547 L 16.3985595703125 17.2990894317627 C 18.42753982543945 15.39262962341309 19.5 13.04154968261719 19.5 10.5 C 19.5 5.537380218505859 15.46261978149414 1.5 10.5 1.5 M 10.5 0 C 16.29899024963379 0 21 4.701009750366211 21 10.5 C 21 13.50965976715088 19.73374938964844 16.22356986999512 17.42569923400879 18.39224052429199 C 15.82462978363037 19.9123592376709 13.28932952880859 21 10.5 21 C 4.701009750366211 21 0 16.29899024963379 0 10.5 C 0 4.701009750366211 4.701009750366211 0 10.5 0 Z" stroke="none" fill="#84a70f"/></g><path d="M0,0V6.924H4.667" transform="translate(10.5 3.576)" fill="none" stroke="#84a70f" stroke-linecap="round" stroke-linejoin="bevel" stroke-width="1"/></g><g transform="translate(23 25)" fill="#fff" stroke="#84a70f" stroke-width="1"><circle cx="1.5" cy="1.5" r="1.5" stroke="none"/><circle cx="1.5" cy="1.5" r="1" fill="none"/></g></svg>