<svg width="24" height="24" viewBox="0 0 24 24" fill="none" xmlns="http://www.w3.org/2000/svg">
<g clip-path="url(#clip0)">
<path d="M20.4142 17.0001L21.8284 18.4143C22.2173 18.8032 22.2173 19.4396 21.8284 19.8285C21.4395 20.2175 20.8031 20.2175 20.4142 19.8285L19 18.4143L17.5858 19.8285C17.1969 20.2175 16.5605 20.2175 16.1716 19.8285C15.7827 19.4396 15.7827 18.8032 16.1716 18.4143L17.5858 17.0001L16.1716 15.5859C15.7827 15.197 15.7827 14.5606 16.1716 14.1717C16.5605 13.7828 17.1969 13.7828 17.5858 14.1717L19 15.5859L20.4142 14.1717C20.8031 13.7828 21.4395 13.7828 21.8284 14.1717C22.2173 14.5606 22.2173 15.197 21.8284 15.5859L20.4142 17.0001Z" fill="#EB5151"/>
<path fill-rule="evenodd" clip-rule="evenodd" d="M18.6667 3.22222H19.7778C21 3.22222 22 4.22222 22 5.44444V10.8889C22 10.3366 21.5523 9.8889 21 9.8889H19.7778V8.77778H4.22222V21H14.2222V22.2222C14.2222 22.7734 14.6681 23.2204 15.2188 23.2222H4.22222C2.98889 23.2222 2 22.2222 2 21L2.01111 5.44444C2.01111 4.22222 2.98889 3.22222 4.22222 3.22222H5.33333V1H7.55556V3.22222H16.4444V1H18.6667V3.22222ZM12 11H6.44444V16.5556H12V11Z" fill="#EB5151"/>
</g>
<defs>
<clipPath id="clip0">
<rect width="24" height="24" fill="white"/>
</clipPath>
</defs>
</svg>
