<svg width="20" height="25" viewBox="0 0 20 25" fill="none" xmlns="http://www.w3.org/2000/svg">
<path d="M11.4625 0H2.5C1.125 0 0 1.125 0 2.5V22.5C0 23.875 1.125 25 2.5 25H17.5C18.875 25 20 23.875 20 22.5V8.5375C20 7.875 19.7375 7.2375 19.2625 6.775L13.225 0.7375C12.7625 0.2625 12.125 0 11.4625 0ZM15 16.25C15 19.175 12.4875 21.5125 9.5125 21.225C6.9125 20.975 5 18.65 5 16.0375V9.55C5 7.9125 6.175 6.425 7.8 6.2625C9.675 6.075 11.25 7.5375 11.25 9.375V15C11.25 15.6875 10.6875 16.25 10 16.25C9.3125 16.25 8.75 15.6875 8.75 15V9.375C8.75 9.025 8.475 8.75 8.125 8.75C7.775 8.75 7.5 9.025 7.5 9.375V16.1125C7.5 17.3625 8.35 18.5125 9.575 18.7125C11.15 18.975 12.5 17.7625 12.5 16.25V12.5C12.5 11.8125 13.0625 11.25 13.75 11.25C14.4375 11.25 15 11.8125 15 12.5V16.25ZM12.5 6.25V2.5L17.5 7.5H13.75C13.0625 7.5 12.5 6.9375 12.5 6.25Z" fill="#225B73"/>
</svg>
