<svg id="Capa_1" enable-background="new 0 0 512 512" height="512" viewBox="0 0 512 512" width="512" xmlns="http://www.w3.org/2000/svg" xmlns:xlink="http://www.w3.org/1999/xlink"><linearGradient id="SVGID_1_" gradientUnits="userSpaceOnUse" x1="256" x2="256" y1="311.195" y2="121"><stop offset="0" stop-color="#c3ffe8"/><stop offset=".9973" stop-color="#f0fff4"/></linearGradient><linearGradient id="SVGID_2_" gradientUnits="userSpaceOnUse" x1="256" x2="256" y1="421" y2="91"><stop offset="0" stop-color="#00b59c"/><stop offset="1" stop-color="#9cffac"/></linearGradient><g><g><g><path d="m286 226c0-16.816-13.184-30-30-30s-30 13.184-30 30c-16.816 0-30 13.184-30 30s13.184 30 30 30c0 16.816 13.184 30 30 30s30-13.184 30-30c16.816 0 30-13.184 30-30s-13.184-30-30-30zm-241-75c8.262 0 15 6.724 15 15 0 8.291 6.709 15 15 15s15-6.709 15-15c0-24.814-20.186-45-45-45s-45 20.186-45 45v30c0 .02.011.037.011.055.004.703.319 1.395.423 2.1.192 1.285.296 2.604.793 3.759.002.006.002.013.004.018.879 2.08 22.471 51.782 61.846 103.359 5.08 6.639 14.497 7.819 21.035 2.827 6.563-5.024 7.852-14.443 2.813-21.021-32.1-42.039-52.034-83.624-56.925-94.303v-26.794c0-8.276 6.738-15 15-15zm422-30c-24.814 0-45 20.186-45 45 0 8.291 6.709 15 15 15s15-6.709 15-15c0-8.276 6.738-15 15-15s15 6.724 15 15v26.794c-4.891 10.679-24.825 52.264-56.924 94.305-5.039 6.577-3.75 15.996 2.813 21.021 6.539 4.992 15.955 3.812 21.035-2.827 39.375-51.577 60.967-101.279 61.846-103.359.002-.005.002-.013.004-.018.496-1.156.601-2.474.793-3.759.104-.705.419-1.397.423-2.1 0-.018.011-.035.011-.055v-30c-.001-24.816-20.187-45.002-45.001-45.002z" fill="url(#SVGID_1_)"/></g></g><g><g><path d="m437 151c-45.601 0-75.099-16.5-102.7-32.4-24.3-14.1-47.399-27.6-78.3-27.6s-54 13.5-78.3 27.6c-27.601 15.9-57.099 32.4-102.7 32.4-8.401 0-15 6.599-15 15v130.199c0 3.302 1.199 6.601 2.999 9.001 58.2 75.9 125.501 115.8 193.001 115.8s134.801-39.9 193.001-115.8c1.8-2.401 2.999-5.7 2.999-9.001v-130.199c0-8.401-6.599-15-15-15zm-151 120h-15v15c0 8.399-6.599 15-15 15s-15-6.601-15-15v-15h-15c-8.401 0-15-6.601-15-15 0-8.401 6.599-15 15-15h15v-15c0-8.401 6.599-15 15-15s15 6.599 15 15v15h15c8.401 0 15 6.599 15 15 0 8.399-6.599 15-15 15z" fill="url(#SVGID_2_)"/></g></g></g></svg>