<svg width="29" height="29" viewBox="0 0 29 29" fill="none" xmlns="http://www.w3.org/2000/svg">
<path d="M22.7695 9.51562C22.6036 11.8192 20.8947 13.5937 19.0313 13.5937C17.1678 13.5937 15.4561 11.8198 15.293 9.51562C15.1231 7.11916 16.7866 5.4375 19.0313 5.4375C21.2759 5.4375 22.9395 7.16277 22.7695 9.51562Z" fill="#225B73" stroke="#225B73" stroke-width="1.5" stroke-linecap="round" stroke-linejoin="round"/>
<path d="M19.0312 17.2188C15.3399 17.2188 11.7903 19.0522 10.901 22.6228C10.7832 23.0952 11.0794 23.5625 11.5648 23.5625H19.0312H26.4981C26.9835 23.5625 27.2781 23.0952 27.162 22.6228C26.2727 18.995 22.723 17.2188 19.0312 17.2188Z" fill="#225B73" stroke="#225B73" stroke-width="1.5" stroke-miterlimit="10"/>
<path d="M11.3281 10.5318C11.1956 12.3714 9.81465 13.8203 8.32614 13.8203C6.83762 13.8203 5.45446 12.372 5.32418 10.5318C5.18881 8.61787 6.53289 7.25 8.32614 7.25C10.1194 7.25 11.4635 8.65299 11.3281 10.5318Z" stroke="#225B73" stroke-width="1.5" stroke-linecap="round" stroke-linejoin="round"/>
<path d="M11.6679 17.3321C10.6456 16.8636 9.51957 16.6835 8.32615 16.6835C5.38084 16.6835 2.54314 18.1477 1.8323 20.9995C1.73885 21.3768 1.9756 21.75 2.36303 21.75H8.72263" stroke="#225B73" stroke-width="1.5" stroke-miterlimit="10" stroke-linecap="round"/>
</svg>
