<svg width="137" height="41" viewBox="0 0 137 41" fill="none" xmlns="http://www.w3.org/2000/svg">
<path d="M131.083 40.1426H5.59284C2.83206 40.1426 0.573242 37.8954 0.573242 35.149V5.18723C0.573242 2.44074 2.83206 0.193611 5.59284 0.193611H131.083C133.844 0.193611 136.103 2.44074 136.103 5.18723V35.149C136.103 37.8954 133.844 40.1426 131.083 40.1426Z" fill="white"/>
<path d="M131.083 0.193604H5.59284C2.83206 0.193604 0.573242 2.44074 0.573242 5.18723V35.149C0.573242 37.8954 2.83206 40.1426 5.59284 40.1426H131.083C133.844 40.1426 136.102 37.8954 136.102 35.149V5.18723C136.102 2.44074 133.844 0.193604 131.083 0.193604ZM131.083 0.992584C133.408 0.992584 135.299 2.87458 135.299 5.18723V35.149C135.299 37.462 133.408 39.344 131.083 39.344H5.59284C3.26817 39.344 1.37638 37.462 1.37638 35.149V5.18723C1.37638 2.87458 3.26817 0.992584 5.59284 0.992584H131.083Z" fill="black"/>
<path d="M48.1776 10.4236C48.1776 11.2604 47.9285 11.9267 47.4297 12.4238C46.863 13.0148 46.1246 13.3105 45.2167 13.3105C44.3473 13.3105 43.6081 13.0109 43.0003 12.4109C42.3913 11.8113 42.0874 11.0677 42.0874 10.1805C42.0874 9.29298 42.3913 8.54983 43.0003 7.94979C43.6081 7.35016 44.3473 7.05014 45.2167 7.05014C45.6481 7.05014 46.0611 7.13404 46.4532 7.30142C46.8454 7.46921 47.1599 7.69192 47.3952 7.97087L46.8657 8.4979C46.467 8.0239 45.9179 7.7871 45.2167 7.7871C44.5826 7.7871 44.0344 8.00872 43.5717 8.45225C43.1089 8.89629 42.8776 9.47205 42.8776 10.1805C42.8776 10.889 43.1089 11.4648 43.5717 11.9088C44.0344 12.3524 44.5826 12.574 45.2167 12.574C45.8893 12.574 46.4501 12.3512 46.8991 11.9049C47.1905 11.6142 47.3591 11.2101 47.4041 10.6912H45.2167V9.97141H48.1356C48.1638 10.1279 48.1776 10.2781 48.1776 10.4236Z" fill="black"/>
<path d="M48.1774 10.4243H48.077C48.0762 11.242 47.8362 11.8771 47.3585 12.3539L47.3574 12.3547L47.357 12.3555C46.8083 12.9261 46.1032 13.2102 45.2165 13.2114C44.3703 13.2102 43.6621 12.9231 43.0706 12.341C42.4805 11.7577 42.1887 11.0458 42.1876 10.1813C42.1887 9.31636 42.4805 8.60477 43.0706 8.02191C43.6621 7.43946 44.3703 7.15193 45.2165 7.15073C45.635 7.15073 46.0334 7.23192 46.4134 7.39382C46.7938 7.55691 47.0943 7.77063 47.3181 8.036L47.395 7.97158L47.3241 7.90097L46.7946 8.4284L46.8656 8.49861L46.9429 8.43469C46.5255 7.93722 45.9398 7.68644 45.2165 7.68794C44.559 7.68714 43.9805 7.92084 43.502 8.38125C43.0189 8.84316 42.7762 9.45129 42.777 10.1813C42.7762 10.9112 43.0189 11.5193 43.502 11.9813C43.9805 12.4417 44.559 12.6754 45.2165 12.6746C45.9114 12.6758 46.5037 12.4413 46.9699 11.9763C47.2813 11.6657 47.4578 11.2354 47.5041 10.7005L47.5134 10.592H45.3169V10.072H48.1354V9.97212L48.0365 9.9897C48.0641 10.1411 48.077 10.285 48.077 10.4243H48.1774H48.2778C48.2778 10.2725 48.2636 10.1165 48.2342 9.95425L48.2194 9.87225H45.1161V10.6919V10.7918H47.404V10.6919L47.304 10.6833C47.2597 11.1859 47.0989 11.5643 46.8279 11.835C46.3965 12.2626 45.8672 12.4736 45.2165 12.4748C44.6059 12.474 44.0879 12.2649 43.6413 11.8377C43.199 11.4121 42.9789 10.8687 42.9778 10.1813C42.9789 9.49383 43.199 8.95043 43.6413 8.52477C44.0879 8.09762 44.6059 7.88849 45.2165 7.88769C45.8954 7.88928 46.408 8.1124 46.7888 8.56302L46.8593 8.64652L47.466 8.04219L47.5311 7.97747L47.4718 7.90756C47.2252 7.61504 46.8966 7.38283 46.4926 7.21045C46.0879 7.03757 45.6609 6.95098 45.2165 6.95098C44.324 6.95018 43.5538 7.26228 42.9291 7.8799C42.302 8.49631 41.986 9.27112 41.9868 10.1813C41.986 11.091 42.302 11.8662 42.9295 12.483C43.5538 13.1002 44.324 13.4119 45.2165 13.4111C46.146 13.4119 46.917 13.1048 47.5021 12.4935L47.4295 12.4245L47.5004 12.4951C48.0205 11.9782 48.2785 11.2799 48.2778 10.4243H48.1774Z" fill="black"/>
<path d="M52.805 7.92057H50.0619V9.82054H52.5357V10.5406H50.0619V12.4406H52.805V13.1768H49.2886V7.18441H52.805V7.92057Z" fill="black"/>
<path d="M52.8048 7.92129V7.82142H49.9613V9.92113H52.4351V10.4412L49.9613 10.4415V12.5412H52.7044V13.0776H49.3888V7.285H52.7044V7.92129H52.8048V7.82142V7.92129H52.9052V7.18513V7.08526H49.188V13.2773H52.9052V12.4413V12.3414H50.1621V10.6412H52.6359V9.82126V9.72139H50.1621V8.02116H52.9052V7.92129H52.8048Z" fill="black"/>
<path d="M56.0687 13.1768H55.2942V7.92057H53.6118V7.18441H57.7511V7.92057H56.0687V13.1768Z" fill="black"/>
<path d="M56.069 13.1775V13.0776H55.3949V7.82142H53.7125V7.285H57.651V7.82142H55.9686V13.1775H56.069V13.0776V13.1775H56.1694V8.02116H57.8517V7.18513V7.08526H53.5117V7.92129V8.02116H55.1941V13.2773H56.069H56.1694V13.1775H56.069Z" fill="black"/>
<path d="M60.7461 13.1768V7.18441H61.5198V13.1768H60.7461Z" fill="black"/>
<path d="M60.7459 13.1775H60.8463V7.285H61.4192V13.0776H60.7459V13.1775H60.8463H60.7459V13.2773H61.5196H61.62V7.08526H60.7459H60.6455V13.2773H60.7459V13.1775Z" fill="black"/>
<path d="M64.9529 13.1768H64.1784V7.92057H62.4961V7.18441H66.6353V7.92057H64.9529V13.1768Z" fill="black"/>
<path d="M64.9532 13.1775V13.0776H64.2791V7.82142H62.5968V7.285H66.5352V7.82142H64.8528V13.1775H64.9532V13.0776V13.1775H65.0536V8.02116H66.736V7.18513V7.08526H62.396V7.92129V8.02116H64.0783V13.2773H64.9532H65.0536V13.1775H64.9532Z" fill="black"/>
<path d="M70.6263 11.9006C71.0721 12.3497 71.6176 12.574 72.2627 12.574C72.9079 12.574 73.4537 12.3497 73.8988 11.9006C74.3451 11.4516 74.5686 10.8777 74.5686 10.1805C74.5686 9.48344 74.3451 8.90947 73.8988 8.46044C73.4537 8.01142 72.9079 7.7871 72.2627 7.7871C71.6176 7.7871 71.0721 8.01142 70.6263 8.46044C70.1811 8.90947 69.9577 9.48344 69.9577 10.1805C69.9577 10.8777 70.1811 11.4516 70.6263 11.9006ZM74.4714 12.4023C73.8792 13.0081 73.1427 13.3105 72.2627 13.3105C71.3819 13.3105 70.6458 13.0081 70.0549 12.4023C69.4623 11.7972 69.1675 11.0564 69.1675 10.1805C69.1675 9.30466 69.4623 8.56381 70.0549 7.95878C70.6458 7.35286 71.3819 7.05014 72.2627 7.05014C73.1381 7.05014 73.8725 7.35445 74.4674 7.96268C75.0616 8.5709 75.3588 9.31016 75.3588 10.1805C75.3588 11.0564 75.0623 11.7972 74.4714 12.4023Z" fill="black"/>
<path d="M70.6261 11.9014L70.5547 11.9716C71.0171 12.4386 71.594 12.6758 72.2626 12.6746C72.9308 12.6758 73.5084 12.4386 73.97 11.9716C74.4355 11.5042 74.6696 10.8994 74.6689 10.1813C74.6696 9.46307 74.4355 8.85835 73.97 8.39094C73.5084 7.92394 72.9308 7.68674 72.2626 7.68794C71.594 7.68674 71.0171 7.92394 70.5547 8.39094C70.0904 8.85835 69.8559 9.46307 69.8571 10.1813C69.8559 10.8994 70.0904 11.5042 70.5547 11.9716L70.6261 11.9014L70.6975 11.8311C70.2716 11.4 70.0587 10.8577 70.0579 10.1813C70.0587 9.50482 70.2716 8.96251 70.6975 8.53136C71.1272 8.10032 71.6405 7.88888 72.2626 7.88769C72.8841 7.88888 73.3986 8.10032 73.8273 8.53136C74.254 8.96251 74.4669 9.50482 74.4677 10.1813C74.4669 10.8577 74.254 11.4 73.8273 11.8311C73.3986 12.2622 72.8841 12.4736 72.2626 12.4748C71.6405 12.4736 71.1272 12.2622 70.6975 11.8311L70.6261 11.9014ZM74.4712 12.403L74.3994 12.3336C73.8238 12.9204 73.1198 13.2102 72.2626 13.2114C71.4049 13.2102 70.701 12.9204 70.1264 12.3336L70.1237 12.3305L70.1264 12.3336C69.552 11.7449 69.2685 11.0349 69.2677 10.1813C69.2685 9.32765 69.552 8.61765 70.1264 8.02891C70.701 7.44215 71.4049 7.15193 72.2626 7.15073C73.1143 7.15193 73.8166 7.44335 74.3955 8.0332C74.972 8.62464 75.2571 9.33354 75.2583 10.1813C75.2571 11.0349 74.9728 11.7449 74.3994 12.3336L74.4712 12.403L74.5434 12.4724C75.152 11.8506 75.4598 11.0793 75.4591 10.1813C75.4598 9.2883 75.1508 8.51858 74.5394 7.89398C73.9277 7.26698 73.1614 6.94988 72.2626 6.95098C71.359 6.94988 70.5904 7.26548 69.9826 7.89008V7.88968C69.3728 8.51189 69.0661 9.2832 69.0669 10.1813C69.0661 11.0793 69.3728 11.8506 69.9826 12.4728L69.9853 12.4756L69.9826 12.4724C70.5904 13.097 71.359 13.4119 72.2626 13.4111C73.1657 13.4119 73.9343 13.097 74.5434 12.4724L74.4712 12.403Z" fill="black"/>
<path d="M76.4448 13.1768V7.18441H77.3868L80.3142 11.8461H80.3476L80.3142 10.6912V7.18441H81.0888V13.1768H80.2809L77.2181 8.2892H77.1848L77.2181 9.44442V13.1768H76.4448Z" fill="black"/>
<path d="M76.4446 13.1775H76.545V7.285H77.3309L80.2583 11.9466H80.3474H80.4505L80.4144 10.6904V7.285H80.9882V13.0776H80.3364L77.2737 8.19005H77.1846H77.0815L77.1176 9.44674V13.0776H76.4446V13.1775H76.545H76.4446V13.2773H77.2179H77.3183V9.44354L77.285 8.28722L77.1846 8.28992V8.38979H77.2179V8.28992L77.1328 8.34305L80.225 13.2773H81.0886H81.189V7.08526H80.314H80.2136V10.6931L80.247 11.8495L80.3474 11.8468V11.7469H80.314V11.8468L80.3992 11.7937L77.4422 7.08526H76.4446H76.3442V13.2773H76.4446V13.1775Z" fill="black"/>
<path d="M107.928 30.1556H109.802V17.6703H107.928V30.1556ZM124.801 22.1678L122.654 27.5808H122.59L120.361 22.1678H118.343L121.685 29.7334L119.78 33.9417H121.734L126.884 22.1678H124.801ZM114.178 28.7375C113.563 28.7375 112.708 28.4324 112.708 27.6771C112.708 26.7135 113.774 26.344 114.694 26.344C115.518 26.344 115.905 26.5207 116.406 26.7619C116.26 27.9182 115.259 28.7375 114.178 28.7375ZM114.404 21.8946C113.047 21.8946 111.643 22.4892 111.062 23.8063L112.724 24.4968C113.08 23.8063 113.741 23.5812 114.436 23.5812C115.405 23.5812 116.389 24.1597 116.406 25.1877V25.316C116.066 25.1233 115.34 24.8343 114.452 24.8343C112.66 24.8343 110.835 25.8138 110.835 27.6451C110.835 29.3156 112.305 30.392 113.951 30.392C115.211 30.392 115.905 29.8298 116.341 29.1713H116.406V30.1349H118.214V25.348C118.214 23.1317 116.551 21.8946 114.404 21.8946ZM102.826 23.6876H100.162V19.408H102.826C104.227 19.408 105.022 20.5615 105.022 21.5478C105.022 22.5153 104.227 23.6876 102.826 23.6876ZM102.778 17.6703H98.2898V30.1556H100.162V25.4253H102.778C104.854 25.4253 106.895 23.9299 106.895 21.5478C106.895 19.1657 104.854 17.6703 102.778 17.6703ZM78.3017 28.7398C77.0076 28.7398 75.924 27.6618 75.924 26.1813C75.924 24.6853 77.0076 23.5909 78.3017 23.5909C79.5794 23.5909 80.5821 24.6853 80.5821 26.1813C80.5821 27.6618 79.5794 28.7398 78.3017 28.7398ZM80.4527 22.8669H80.388C79.9676 22.3682 79.1586 21.9177 78.1398 21.9177C76.0048 21.9177 74.048 23.784 74.048 26.1813C74.048 28.5627 76.0048 30.413 78.1398 30.413C79.1586 30.413 79.9676 29.9624 80.388 29.4479H80.4527V30.0592C80.4527 31.6845 79.5794 32.5533 78.1723 32.5533C77.024 32.5533 76.3123 31.7324 76.0209 31.0407L74.3876 31.7165C74.8567 32.8427 76.1021 34.2266 78.1723 34.2266C80.3719 34.2266 82.2319 32.9391 82.2319 29.8017V22.1752H80.4527V22.8669ZM83.5256 30.1556H85.4017V17.6699H83.5256V30.1556ZM88.1675 26.0366C88.119 24.3953 89.4452 23.5589 90.3994 23.5589C91.1439 23.5589 91.7743 23.9287 91.9841 24.4601L88.1675 26.0366ZM93.99 24.6208C93.6346 23.6712 92.5504 21.9177 90.3346 21.9177C88.135 21.9177 86.3076 23.6393 86.3076 26.1654C86.3076 28.5467 88.119 30.413 90.5448 30.413C92.5022 30.413 93.6346 29.2224 94.1034 28.5306L92.6477 27.5651C92.1628 28.2732 91.4993 28.7398 90.5448 28.7398C89.5907 28.7398 88.9115 28.3052 88.4746 27.4527L94.1837 25.1034L93.99 24.6208ZM48.5042 23.221V25.023H52.8386C52.7092 26.0366 52.3695 26.7767 51.8519 27.2916C51.2214 27.9193 50.2347 28.611 48.5042 28.611C45.8354 28.611 43.7492 26.4712 43.7492 23.8164C43.7492 21.1616 45.8354 19.0214 48.5042 19.0214C49.9437 19.0214 50.9947 19.5847 51.7711 20.3087L53.0488 19.0378C51.9653 18.0078 50.5256 17.2194 48.5042 17.2194C44.8488 17.2194 41.7759 20.18 41.7759 23.8164C41.7759 27.4527 44.8488 30.413 48.5042 30.413C50.4775 30.413 51.9653 29.7698 53.1296 28.5627C54.3265 27.372 54.6986 25.6988 54.6986 24.3474C54.6986 23.9287 54.6664 23.5429 54.6014 23.221H48.5042ZM59.6265 28.7398C58.3323 28.7398 57.2163 27.6778 57.2163 26.1654C57.2163 24.6368 58.3323 23.5909 59.6265 23.5909C60.9201 23.5909 62.0362 24.6368 62.0362 26.1654C62.0362 27.6778 60.9201 28.7398 59.6265 28.7398ZM59.6265 21.9177C57.2649 21.9177 55.3401 23.7036 55.3401 26.1654C55.3401 28.611 57.2649 30.413 59.6265 30.413C61.9876 30.413 63.9123 28.611 63.9123 26.1654C63.9123 23.7036 61.9876 21.9177 59.6265 21.9177ZM68.9762 28.7398C67.6825 28.7398 66.5664 27.6778 66.5664 26.1654C66.5664 24.6368 67.6825 23.5909 68.9762 23.5909C70.27 23.5909 71.386 24.6368 71.386 26.1654C71.386 27.6778 70.27 28.7398 68.9762 28.7398ZM68.9762 21.9177C66.6147 21.9177 64.6904 23.7036 64.6904 26.1654C64.6904 28.611 66.6147 30.413 68.9762 30.413C71.3374 30.413 73.2621 28.611 73.2621 26.1654C73.2621 23.7036 71.3374 21.9177 68.9762 21.9177Z" fill="black"/>
<path d="M11.1242 32.542L11.0496 32.471C10.7574 32.1635 10.585 31.686 10.585 31.0677V31.2132V9.12542C10.585 9.12342 10.585 9.12192 10.585 9.12032C10.585 9.12222 10.585 9.12382 10.585 9.12581V9.27173C10.585 8.60218 10.786 8.09783 11.123 7.79542L23.5613 20.1691L11.1242 32.542ZM10.585 9.11912C10.585 9.06409 10.5865 9.01066 10.5893 8.95803C10.5865 9.01026 10.585 9.06409 10.585 9.11912ZM10.5893 8.95563C10.5893 8.95494 10.5893 8.95413 10.5896 8.95334C10.5893 8.95413 10.5893 8.95494 10.5893 8.95563ZM10.5896 8.94864C10.5896 8.94824 10.5896 8.94784 10.5896 8.94744C10.5896 8.94784 10.5896 8.94824 10.5896 8.94864Z" fill="url(#paint0_linear)"/>
<path d="M27.707 24.4414L27.8016 24.388L32.7137 21.6114C33.182 21.3466 33.4941 21.0255 33.6498 20.6857C33.4945 21.0255 33.1823 21.347 32.7137 21.6118L27.8016 24.3884L27.707 24.4414ZM27.7082 24.2951L23.5615 20.1692L27.7078 16.0439L32.7137 18.8731C33.3493 19.2325 33.7062 19.6956 33.7659 20.1688C33.7659 20.1692 33.7659 20.17 33.7659 20.1707C33.7062 20.6428 33.3493 21.1063 32.7137 21.4655L27.7082 24.2951Z" fill="url(#paint1_linear)"/>
<path d="M12.0106 33.0127C11.6631 33.0127 11.36 32.9003 11.1235 32.6881L11.1239 32.6877C11.3604 32.8999 11.6639 33.0127 12.0114 33.0127C12.0415 33.0127 12.0721 33.0119 12.1032 33.0104C12.0717 33.0119 12.0407 33.0127 12.0106 33.0127ZM12.011 32.8664C11.6635 32.8668 11.3604 32.754 11.1239 32.5418V32.5415L23.5611 20.1686L27.7078 24.2945L13.1357 32.5313C12.7325 32.7587 12.3505 32.8664 12.011 32.8664ZM11.1204 32.6854C11.0984 32.6655 11.0768 32.6445 11.0557 32.6226L11.1204 32.6854Z" fill="url(#paint2_linear)"/>
<path d="M23.5614 20.1689L11.123 7.79525C11.3595 7.58343 11.6623 7.47107 12.0093 7.47107C12.3497 7.47107 12.732 7.57913 13.136 7.80694L27.7077 16.0437L23.5614 20.1689ZM27.8015 15.9505L13.136 7.66112C12.732 7.43322 12.3497 7.32516 12.0093 7.32516C12.0077 7.32516 12.0066 7.32516 12.005 7.32516C12.007 7.32516 12.0085 7.32516 12.0109 7.32516C12.3505 7.32516 12.7324 7.43282 13.136 7.66073L27.8015 15.9505Z" fill="url(#paint3_linear)"/>
<path d="M12.1031 33.0107C12.4188 32.9928 12.7682 32.8847 13.1357 32.6776L27.7066 24.4412L13.1357 32.6776C12.7685 32.8851 12.4188 32.9928 12.1031 33.0107ZM11.1235 32.6885L11.1204 32.6858C11.1215 32.6866 11.1227 32.6877 11.1235 32.6885ZM11.0556 32.6229L11.0493 32.6167V32.6163C11.0517 32.6186 11.0536 32.6209 11.0556 32.6229Z" fill="black"/>
<path d="M27.707 24.4414L27.8018 24.3878L27.707 24.4414Z" fill="url(#paint4_linear)"/>
<path d="M12.0114 33.0127C11.6639 33.0127 11.3603 32.8999 11.1239 32.6877L11.1235 32.6881C11.1227 32.6873 11.1215 32.6862 11.1204 32.6854L11.0556 32.6226C11.0536 32.6206 11.0517 32.6183 11.0493 32.616L11.1239 32.5418C11.3603 32.754 11.6635 32.8668 12.011 32.8664C12.3505 32.8664 12.7325 32.7587 13.1357 32.5313L27.7078 24.2945L27.8011 24.3874L27.7066 24.4408L13.1357 32.6772C12.7682 32.8844 12.4188 32.9924 12.1031 33.0104C12.0721 33.0119 12.0415 33.0127 12.0114 33.0127Z" fill="url(#paint5_linear)"/>
<path d="M11.0496 32.6162C10.7574 32.3087 10.585 31.8312 10.585 31.2129V31.2125C10.585 31.8312 10.7574 32.3083 11.0496 32.6158V32.6162Z" fill="black"/>
<path d="M11.0496 32.6162C10.7574 32.3087 10.585 31.8316 10.585 31.2129V31.0674C10.585 31.6857 10.7574 32.1632 11.0496 32.4707L11.1242 32.5417L11.0496 32.6162Z" fill="url(#paint6_linear)"/>
<path d="M11.0493 32.6162L11.1237 32.5417V32.542L11.0493 32.6162Z" fill="url(#paint7_linear)"/>
<path d="M33.6499 20.6855C33.7271 20.517 33.766 20.3438 33.766 20.1705C33.766 20.1702 33.766 20.1698 33.766 20.1698C33.766 20.3434 33.7271 20.5166 33.6499 20.6855Z" fill="black"/>
<path d="M27.8014 24.3877L27.708 24.2948L32.7135 21.4652C33.3491 21.106 33.706 20.6425 33.7657 20.1704C33.7657 20.3437 33.7268 20.5168 33.6496 20.6854C33.4939 21.0252 33.1818 21.3463 32.7135 21.6111L27.8014 24.3877Z" fill="url(#paint8_linear)"/>
<path d="M33.766 20.1689V20.1685C33.7656 19.6461 33.4146 19.1238 32.7138 18.7274L27.8017 15.9508H27.8013L27.8017 15.9505L32.7138 18.727C33.4154 19.1234 33.7668 19.6465 33.766 20.1689Z" fill="#404040"/>
<path d="M33.7656 20.1689C33.7059 19.6958 33.3491 19.2326 32.7134 18.8733L27.7075 16.0441L27.8009 15.9512H27.8013L32.7134 18.7278C33.4142 19.1242 33.7652 19.6465 33.7656 20.1689Z" fill="url(#paint9_linear)"/>
<path d="M10.585 9.12012C10.585 9.11972 10.585 9.11932 10.585 9.11892C10.585 9.11932 10.585 9.11972 10.585 9.12012ZM10.5893 8.95782C10.5893 8.95703 10.5893 8.95623 10.5893 8.95543C10.5893 8.95623 10.5893 8.95703 10.5893 8.95782ZM10.5896 8.95313C10.5896 8.95153 10.5896 8.95003 10.5896 8.94844C10.5896 8.95003 10.5896 8.95153 10.5896 8.95313ZM10.5896 8.94724C10.6477 7.92125 11.2085 7.3286 12.0018 7.32511C11.6579 7.32711 11.3583 7.43946 11.1238 7.6497V7.6493L11.121 7.65209C11.0963 7.67426 11.0728 7.69773 11.0496 7.7219C10.786 7.99925 10.6198 8.41472 10.5896 8.94724Z" fill="#404040"/>
<path d="M10.585 9.27148V9.12557C10.585 9.12357 10.585 9.12198 10.585 9.12008C10.585 9.11968 10.585 9.11928 10.585 9.11888C10.585 9.06385 10.5865 9.01002 10.5893 8.95779C10.5893 8.95699 10.5893 8.95619 10.5893 8.95539C10.5893 8.95469 10.5893 8.95389 10.5896 8.95309C10.5896 8.95149 10.5896 8.95 10.5896 8.9484C10.5896 8.948 10.5896 8.9476 10.5896 8.9472C10.6198 8.41468 10.786 7.99921 11.0496 7.72186L11.123 7.79517C10.786 8.09759 10.585 8.60194 10.585 9.27148ZM11.121 7.65205L11.1238 7.64926C11.123 7.65046 11.1218 7.65125 11.121 7.65205Z" fill="url(#paint10_linear)"/>
<path d="M27.7074 16.0439L13.1357 7.80717C12.7317 7.57936 12.3494 7.4713 12.009 7.4713C11.6619 7.4713 11.3591 7.58365 11.1227 7.79548L11.0493 7.72217C11.0725 7.69801 11.096 7.67453 11.1207 7.65236C11.1215 7.65156 11.1227 7.65077 11.1235 7.64997C11.358 7.43974 11.6576 7.32738 12.0015 7.32538C12.0023 7.32538 12.0034 7.32538 12.0046 7.32538C12.0063 7.32538 12.0074 7.32538 12.009 7.32538C12.3494 7.32538 12.7317 7.43344 13.1357 7.66135L27.8011 15.9508L27.8007 15.9511L27.7074 16.0439Z" fill="url(#paint11_linear)"/>
<defs>
<linearGradient id="paint0_linear" x1="22.4584" y1="8.89241" x2="5.69757" y2="25.7405" gradientUnits="userSpaceOnUse">
<stop stop-color="#00A0FF"/>
<stop offset="0.00657445" stop-color="#00A1FF"/>
<stop offset="0.2601" stop-color="#00BEFF"/>
<stop offset="0.5122" stop-color="#00D2FF"/>
<stop offset="0.7604" stop-color="#00DFFF"/>
<stop offset="1" stop-color="#00E3FF"/>
</linearGradient>
<linearGradient id="paint1_linear" x1="34.5404" y1="20.1698" x2="10.2485" y2="20.1698" gradientUnits="userSpaceOnUse">
<stop stop-color="#FFE000"/>
<stop offset="0.4087" stop-color="#FFBD00"/>
<stop offset="0.7754" stop-color="#FFA500"/>
<stop offset="1" stop-color="#FF9C00"/>
</linearGradient>
<linearGradient id="paint2_linear" x1="25.4973" y1="22.461" x2="2.7683" y2="45.3082" gradientUnits="userSpaceOnUse">
<stop stop-color="#FF3A44"/>
<stop offset="1" stop-color="#C31162"/>
</linearGradient>
<linearGradient id="paint3_linear" x1="7.89916" y1="0.369641" x2="18.0486" y2="10.5718" gradientUnits="userSpaceOnUse">
<stop stop-color="#32A071"/>
<stop offset="0.0685" stop-color="#2DA771"/>
<stop offset="0.4762" stop-color="#15CF74"/>
<stop offset="0.8009" stop-color="#06E775"/>
<stop offset="1" stop-color="#00F076"/>
</linearGradient>
<linearGradient id="paint4_linear" x1="34.5565" y1="20.1593" x2="10.2076" y2="20.1593" gradientUnits="userSpaceOnUse">
<stop stop-color="#CCB300"/>
<stop offset="0.4087" stop-color="#CC9700"/>
<stop offset="0.7754" stop-color="#CC8400"/>
<stop offset="1" stop-color="#CC7D00"/>
</linearGradient>
<linearGradient id="paint5_linear" x1="25.4972" y1="22.461" x2="2.76828" y2="45.3082" gradientUnits="userSpaceOnUse">
<stop stop-color="#CC2E36"/>
<stop offset="1" stop-color="#9C0E4E"/>
</linearGradient>
<linearGradient id="paint6_linear" x1="22.4584" y1="8.89196" x2="5.69745" y2="25.74" gradientUnits="userSpaceOnUse">
<stop stop-color="#008DE0"/>
<stop offset="0.00657445" stop-color="#008DE0"/>
<stop offset="0.2601" stop-color="#00A7E0"/>
<stop offset="0.5122" stop-color="#00B8E0"/>
<stop offset="0.7604" stop-color="#00C4E0"/>
<stop offset="1" stop-color="#00C7E0"/>
</linearGradient>
<linearGradient id="paint7_linear" x1="25.4569" y1="22.4601" x2="2.72531" y2="45.2437" gradientUnits="userSpaceOnUse">
<stop stop-color="#E0333C"/>
<stop offset="1" stop-color="#AB0F56"/>
</linearGradient>
<linearGradient id="paint8_linear" x1="34.5402" y1="20.1695" x2="10.2483" y2="20.1695" gradientUnits="userSpaceOnUse">
<stop stop-color="#E0C500"/>
<stop offset="0.4087" stop-color="#E0A600"/>
<stop offset="0.7754" stop-color="#E09100"/>
<stop offset="1" stop-color="#E08900"/>
</linearGradient>
<linearGradient id="paint9_linear" x1="34.5401" y1="20.1699" x2="10.2482" y2="20.1699" gradientUnits="userSpaceOnUse">
<stop stop-color="#FFE840"/>
<stop offset="0.4087" stop-color="#FFCE40"/>
<stop offset="0.7754" stop-color="#FFBC40"/>
<stop offset="1" stop-color="#FFB540"/>
</linearGradient>
<linearGradient id="paint10_linear" x1="22.4584" y1="8.89217" x2="5.69755" y2="25.7402" gradientUnits="userSpaceOnUse">
<stop stop-color="#40B8FF"/>
<stop offset="0.00657445" stop-color="#40B9FF"/>
<stop offset="0.2601" stop-color="#40CEFF"/>
<stop offset="0.5122" stop-color="#40DDFF"/>
<stop offset="0.7604" stop-color="#40E7FF"/>
<stop offset="1" stop-color="#40EAFF"/>
</linearGradient>
<linearGradient id="paint11_linear" x1="7.89881" y1="0.369867" x2="18.0482" y2="10.5721" gradientUnits="userSpaceOnUse">
<stop stop-color="#65B895"/>
<stop offset="0.0685" stop-color="#62BD95"/>
<stop offset="0.4762" stop-color="#50DB97"/>
<stop offset="0.8009" stop-color="#44ED98"/>
<stop offset="1" stop-color="#40F498"/>
</linearGradient>
</defs>
</svg>
