<svg width="23" height="23" viewBox="0 0 23 23" fill="none" xmlns="http://www.w3.org/2000/svg">
<path d="M21.4075 11.864C21.4075 5.27605 16.8067 0.800049 11.6875 0.800049C6.62225 0.800049 1.96745 5.18005 1.96745 11.936C1.31945 12.344 0.887451 13.112 0.887451 14V16.4C0.887451 17.72 1.85945 18.8 3.04745 18.8H4.12745V11.48C4.12745 6.83605 7.50785 3.08005 11.6875 3.08005C15.8671 3.08005 19.2475 6.83605 19.2475 11.48V20H10.6075V22.4H19.2475C20.4355 22.4 21.4075 21.32 21.4075 20V18.5361C22.0447 18.1641 22.4875 17.432 22.4875 16.568V13.808C22.4875 12.968 22.0447 12.236 21.4075 11.864Z" fill="#AFAFAF"/>
<path d="M8.44743 14.0001C9.0439 14.0001 9.52743 13.4628 9.52743 12.8001C9.52743 12.1374 9.0439 11.6001 8.44743 11.6001C7.85096 11.6001 7.36743 12.1374 7.36743 12.8001C7.36743 13.4628 7.85096 14.0001 8.44743 14.0001Z" fill="#AFAFAF"/>
<path d="M14.9274 14.0001C15.5239 14.0001 16.0074 13.4628 16.0074 12.8001C16.0074 12.1374 15.5239 11.6001 14.9274 11.6001C14.3309 11.6001 13.8474 12.1374 13.8474 12.8001C13.8474 13.4628 14.3309 14.0001 14.9274 14.0001Z" fill="#AFAFAF"/>
<path d="M18.1675 10.4361C17.6491 7.01615 14.9707 4.40015 11.7415 4.40015C8.46914 4.40015 4.94834 7.41215 5.22914 12.1401C7.89674 10.9281 9.90554 8.28815 10.4779 5.07215C11.8927 8.22815 14.7979 10.4001 18.1675 10.4361Z" fill="#AFAFAF"/>
</svg>
