<svg width="24" height="24" viewBox="0 0 24 24" fill="none" xmlns="http://www.w3.org/2000/svg">
<g clip-path="url(#clip0)">
<path d="M19.4615 14.0465C19.9692 14.0465 20.3846 13.586 20.3846 13.0233C20.3846 12.4605 19.9692 12 19.4615 12C18.9538 12 18.5385 12.4605 18.5385 13.0233C18.5385 13.586 18.9538 14.0465 19.4615 14.0465ZM17.7538 15.786L16.5723 22.3912C16.5123 22.7033 16.7338 23 17.0246 23H17.0615C17.2785 23 17.4631 22.8363 17.5138 22.6009L18.2615 18.907L19.2308 19.9302V22.4884C19.2308 22.7698 19.4385 23 19.6923 23C19.9462 23 20.1538 22.7698 20.1538 22.4884V19.6028C20.1538 19.3214 20.0523 19.0553 19.8677 18.8609L19.1846 18.1395L19.4615 16.6047C19.9554 17.2391 20.6708 17.6944 21.4738 17.8377C21.7508 17.8837 22 17.6381 22 17.326C22 17.0753 21.8338 16.8656 21.6077 16.8247C20.9062 16.6967 20.3246 16.2363 20.0154 15.6326L19.5538 14.814C19.2954 14.3586 18.7785 14.1744 18.3308 14.3842L16.5631 15.213C16.2215 15.3767 16 15.7451 16 16.1595V17.3721C16 17.6535 16.2077 17.8837 16.4615 17.8837C16.7154 17.8837 16.9231 17.6535 16.9231 17.3721V16.1442L17.7538 15.786Z" fill="#225B73"/>
<g clip-path="url(#clip1)">
<path fill-rule="evenodd" clip-rule="evenodd" d="M18.6667 3.22222H19.7778C21 3.22222 22 4.22222 22 5.44444V10.8889C22 10.3366 21.5523 9.8889 21 9.8889H19.7778V8.77778H4.22222V21H14.2222V22.2222C14.2222 22.7734 14.6681 23.2204 15.2188 23.2222H4.22222C2.98889 23.2222 2 22.2222 2 21L2.01111 5.44444C2.01111 4.22222 2.98889 3.22222 4.22222 3.22222H5.33333V1H7.55556V3.22222H16.4444V1H18.6667V3.22222ZM12 11H6.44444V16.5556H12V11Z" fill="#225B73"/>
</g>
</g>
<defs>
<clipPath id="clip0">
<rect width="24" height="24" fill="white"/>
</clipPath>
<clipPath id="clip1">
<rect width="24" height="24" fill="white" transform="translate(-1)"/>
</clipPath>
</defs>
</svg>
