<svg width="15" height="20" viewBox="0 0 15 20" fill="none" xmlns="http://www.w3.org/2000/svg">
<path d="M4.07227 11.446C4.07227 11.8537 4.33459 12.1842 4.6582 12.1842H10.3125C10.6361 12.1842 10.8984 11.8537 10.8984 11.446C10.8984 11.0383 10.6361 10.7078 10.3125 10.7078H4.6582C4.33459 10.7078 4.07227 11.0383 4.07227 11.446Z" fill="black"/>
<path d="M13.4449 11.5714L13.2512 9.83021C13.2062 9.42649 12.9101 9.14494 12.5896 9.20163C12.2691 9.25822 12.0457 9.63141 12.0906 10.0352L12.3535 12.3974C12.394 12.7619 12.6415 13.0332 12.9337 13.0332H13.2422C13.5653 13.0332 13.8281 13.3643 13.8281 13.7714C13.8281 14.1784 13.5653 14.5096 13.2422 14.5096H1.75781C1.43473 14.5096 1.17188 14.1784 1.17188 13.7714C1.17188 13.3643 1.43473 13.0332 1.75781 13.0332H2.06625C2.35843 13.0332 2.60596 12.762 2.6465 12.3974L3.27732 6.72777C3.44728 5.20043 4.11568 3.84716 5.11119 3.01502C5.82129 2.4215 6.65039 2.10777 7.55859 2.10777C8.12892 2.12261 8.69153 2.26412 9.16857 2.52611C9.46523 2.68899 9.81053 2.5181 9.93984 2.14438C10.0692 1.77067 9.93349 1.33561 9.63686 1.17269C9.01887 0.833335 8.34961 0.631363 7.55859 0.631363C6.4747 0.631363 5.36604 1.03021 4.46335 1.78477C3.18855 2.85036 2.33329 4.57731 2.11685 6.52284L1.55511 11.5714C0.681006 11.6985 0 12.6366 0 13.7714C0 14.9925 0.788555 15.986 1.75781 15.986H13.2422C14.2114 15.986 15 14.9925 15 13.7714C15 12.6366 14.319 11.6985 13.4449 11.5714Z" fill="black"/>
<path d="M7.52896 19.5293C6.63608 19.5293 5.88558 18.6933 5.78328 17.5845C5.74589 17.1796 5.97617 16.8131 6.29761 16.766C6.61906 16.7187 6.90992 17.009 6.9473 17.414C6.9809 17.7783 7.23098 18.0529 7.52896 18.0529C7.82694 18.0529 8.07702 17.7783 8.11062 17.414C8.148 17.009 8.43907 16.719 8.76031 16.766C9.08175 16.8131 9.31203 17.1796 9.27464 17.5845C9.17234 18.6933 8.42184 19.5293 7.52896 19.5293ZM14.4137 3.58417H12.6559V1.36957C12.6559 0.961856 12.3936 0.631363 12.07 0.631363C11.7464 0.631363 11.484 0.961856 11.484 1.36957V3.58417H9.72622C9.40261 3.58417 9.14029 3.91467 9.14029 4.32237C9.14029 4.73008 9.40261 5.06058 9.72622 5.06058H11.484V7.27518C11.484 7.68289 11.7464 8.01339 12.07 8.01339C12.3936 8.01339 12.6559 7.68289 12.6559 7.27518V5.06058H14.4137C14.7373 5.06058 14.9997 4.73008 14.9997 4.32237C14.9997 3.91467 14.7373 3.58417 14.4137 3.58417Z" fill="#1A6291"/>
</svg>
