<svg width="16" height="16" viewBox="0 0 16 16" fill="none" xmlns="http://www.w3.org/2000/svg">
<path d="M12.2188 10.9375C10.7541 10.9375 9.5625 9.74591 9.5625 8.28125C9.5625 6.81659 10.7541 5.625 12.2188 5.625C13.6834 5.625 14.875 6.81659 14.875 8.28125C14.875 9.74591 13.6834 10.9375 12.2188 10.9375ZM12.2188 6.875C11.4433 6.875 10.8125 7.50584 10.8125 8.28125C10.8125 9.05666 11.4433 9.6875 12.2188 9.6875C12.9942 9.6875 13.625 9.05666 13.625 8.28125C13.625 7.50584 12.9942 6.875 12.2188 6.875ZM7.25 15.375C7.25 15.0298 6.97019 14.75 6.625 14.75H3.74934C2.37122 14.75 1.25 13.6288 1.25 12.2507V3.74934C1.25 2.37122 2.37122 1.25 3.74934 1.25H9.50128C10.8794 1.25 12.0006 2.37122 12.0006 3.74934C12.0006 4.09453 12.2804 4.37434 12.6256 4.37434C12.9708 4.37434 13.2506 4.09453 13.2506 3.74934C13.2507 1.68197 11.5687 0 9.50066 0H3.74934C1.68197 0 0 1.68197 0 3.74934V12.2506C0 14.318 1.68197 16 3.74934 16H6.625C6.97019 16 7.25 15.7202 7.25 15.375ZM8.28125 7.09375C8.28125 6.74856 8.00144 6.46875 7.65625 6.46875H4.59375C4.24856 6.46875 3.96875 6.74856 3.96875 7.09375C3.96875 7.43894 4.24856 7.71875 4.59375 7.71875H7.65625C8.00144 7.71875 8.28125 7.43894 8.28125 7.09375ZM8.28125 11.875C8.28125 11.5298 8.00144 11.25 7.65625 11.25H4.59375C4.24856 11.25 3.96875 11.5298 3.96875 11.875C3.96875 12.2202 4.24856 12.5 4.59375 12.5H7.65625C8.00144 12.5 8.28125 12.2202 8.28125 11.875ZM8.28125 9.46875C8.28125 9.12356 8.00144 8.84375 7.65625 8.84375H4.59375C4.24856 8.84375 3.96875 9.12356 3.96875 9.46875C3.96875 9.81394 4.24856 10.0938 4.59375 10.0938H7.65625C8.00144 10.0938 8.28125 9.81394 8.28125 9.46875Z" fill="black"/>
<path d="M15.375 16C15.0298 16 14.75 15.7202 14.75 15.375C14.75 14.1343 13.7473 13.125 12.5148 13.125H11.9852C10.7527 13.125 9.75 14.1343 9.75 15.375C9.75 15.7202 9.47019 16 9.125 16C8.77981 16 8.5 15.7202 8.5 15.375C8.5 13.4451 10.0634 11.875 11.9852 11.875H12.5148C14.4366 11.875 16 13.4451 16 15.375C16 15.7202 15.7202 16 15.375 16ZM9.53125 4.6875C9.53125 4.34231 9.25144 4.0625 8.90625 4.0625H4.59375C4.24856 4.0625 3.96875 4.34231 3.96875 4.6875C3.96875 5.03269 4.24856 5.3125 4.59375 5.3125H8.90625C9.25144 5.3125 9.53125 5.03269 9.53125 4.6875Z" fill="#1A6291"/>
</svg>
