<svg width="27" height="17" viewBox="0 0 27 17" fill="none" xmlns="http://www.w3.org/2000/svg">
<path fill-rule="evenodd" clip-rule="evenodd" d="M4.59766 12.0256V15.5196C4.59766 16.2618 5.18762 16.8634 5.91541 16.8634H25.6817C26.4095 16.8634 26.9995 16.2618 26.9995 15.5196V4.769C26.9995 4.02687 26.4095 3.42517 25.6817 3.42517H21.1648V4.769H23.7058C23.7062 5.03286 23.7573 5.29403 23.8563 5.5378C23.9556 5.78231 24.1012 6.00458 24.2848 6.19171C24.4683 6.3789 24.6862 6.52739 24.926 6.62872C25.1656 6.72991 25.4224 6.78205 25.6817 6.78212V13.5039C25.4261 13.5054 25.1731 13.5576 24.9368 13.6573C24.697 13.7587 24.4791 13.9071 24.2955 14.0943C24.112 14.2815 23.9664 14.5037 23.8671 14.7482C23.7677 14.9928 23.7166 15.2549 23.7166 15.5196H7.88928C7.88611 15.2635 7.83512 15.0103 7.73899 14.7735C7.63963 14.5289 7.49402 14.3067 7.31045 14.1195C7.12696 13.9323 6.90907 13.7839 6.66923 13.6826C6.43019 13.5816 6.17409 13.5295 5.91541 13.5291V12.0256H4.59766Z" fill="#333333"/>
<path fill-rule="evenodd" clip-rule="evenodd" d="M11.2 8.06297C11.9278 8.06297 12.5177 7.46127 12.5177 6.71915C12.5177 5.97695 11.9278 5.37532 11.2 5.37532C10.4722 5.37532 9.88221 5.97695 9.88221 6.71915C9.88221 7.46127 10.4722 8.06297 11.2 8.06297ZM11.2 9.4068C12.6556 9.4068 13.8355 8.20347 13.8355 6.71915C13.8355 5.23476 12.6556 4.03149 11.2 4.03149C9.74444 4.03149 8.56445 5.23476 8.56445 6.71915C8.56445 8.20347 9.74444 9.4068 11.2 9.4068Z" fill="#333333"/>
<path fill-rule="evenodd" clip-rule="evenodd" d="M1.31776 0C0.589979 0 0 0.601631 0 1.34383V12.0944C0 12.8366 0.589979 13.4383 1.31776 13.4383H21.0841C21.8119 13.4383 22.4018 12.8366 22.4018 12.0944V1.34383C22.4018 0.601631 21.8119 0 21.0841 0H1.31776ZM3.29318 1.34383H19.1082C19.1085 1.60762 19.1596 1.86879 19.2586 2.11256C19.3579 2.35714 19.5036 2.57934 19.6871 2.76653C19.8707 2.95373 20.0886 3.10216 20.3284 3.20348C20.568 3.30467 20.8247 3.35681 21.0841 3.35694V10.0787C20.8284 10.0802 20.5754 10.1323 20.3391 10.2321C20.0993 10.3334 19.8814 10.4819 19.6979 10.6691C19.5144 10.8562 19.3687 11.0784 19.2694 11.323C19.1701 11.5676 19.119 11.8297 19.119 12.0944H3.29163C3.28848 11.8383 3.23749 11.5851 3.14132 11.3483C3.04199 11.1037 2.89639 10.8815 2.71284 10.6943C2.52929 10.5072 2.31139 10.3587 2.07158 10.2574C1.83256 10.1564 1.57644 10.1043 1.31776 10.104V3.35957C1.57692 3.35936 1.83353 3.30722 2.07297 3.2061C2.31279 3.10477 2.53069 2.95635 2.71424 2.76916C2.89779 2.58196 3.04338 2.35976 3.14272 2.11518C3.24205 1.87061 3.29318 1.60849 3.29318 1.34383Z" fill="#333333"/>
</svg>
