<svg width="19" height="25" viewBox="0 0 19 25" fill="none" xmlns="http://www.w3.org/2000/svg">
<path fill-rule="evenodd" clip-rule="evenodd" d="M0.633333 0C0.283556 0 0 0.274034 0 0.612065V23.8705C0 24.2086 0.283556 24.4826 0.633333 24.4826H18.3667C18.7165 24.4826 19 24.2086 19 23.8705V6.73271C19 6.57039 18.9332 6.41468 18.8145 6.29992L12.4812 0.179268C12.3624 0.0644872 12.2013 0 12.0333 0H0.633333ZM1.26667 23.2585V1.22413H11.4V6.73271C11.4 7.07075 11.6835 7.34477 12.0333 7.34477H17.7333V23.2585H1.26667ZM16.8377 6.12065L12.6667 2.08972V6.12065H16.8377ZM5.06667 17.7499H6.33333V13.4654H7.33761L10.5043 16.5258L8.41884 18.5413L9.31456 19.4069L11.4 17.3914L13.4854 19.4069L14.3812 18.5413L12.2957 16.5258L14.3812 14.5103L13.4855 13.6448L11.4 15.6602L9.11671 13.4537C10.3984 13.3323 11.4 12.2877 11.4 11.0172C11.4 9.66505 10.2658 8.5689 8.86667 8.5689H5.7C5.35021 8.5689 5.06667 8.84293 5.06667 9.18097V17.7499ZM8.86667 12.2413H6.33333V9.79303H8.86667C9.56625 9.79303 10.1333 10.3411 10.1333 11.0172C10.1333 11.6932 9.56625 12.2413 8.86667 12.2413Z" fill="#333333"/>
</svg>
