<svg width="25" height="25" viewBox="0 0 25 25" fill="none" xmlns="http://www.w3.org/2000/svg">
<g clip-path="url(#clip0)">
<path d="M19.6105 12.5C16.8881 12.5 14.6606 14.8438 14.6606 17.7083C14.6606 20.5729 16.8881 22.9167 19.6105 22.9167C22.3329 22.9167 24.5604 20.5729 24.5604 17.7083C24.5604 14.8438 22.3329 12.5 19.6105 12.5ZM21.6894 19.8958L19.1155 18.2292V15.1042H19.858V17.8125L22.0854 19.2188L21.6894 19.8958Z" fill="#225B73"/>
<path fill-rule="evenodd" clip-rule="evenodd" d="M19.2808 3.35681H20.3807C21.5907 3.35681 22.5807 4.39847 22.5807 5.67162V10.417H20.3807V9.14384H4.98119V21.8753H14.6609V24.0003C14.6609 24.0652 14.6671 24.1287 14.6789 24.1901H4.98119C3.76022 24.1901 2.78125 23.1485 2.78125 21.8753L2.79225 5.67162C2.79225 4.39847 3.76022 3.35681 4.98119 3.35681H6.08115V1.04199H8.28109V3.35681H17.0808V1.04199H19.2808V3.35681ZM12.681 11.4587H7.18112V17.2457H12.681V11.4587Z" fill="#225B73"/>
</g>
<defs>
<clipPath id="clip0">
<rect width="23.7593" height="25" fill="white" transform="translate(0.80127)"/>
</clipPath>
</defs>
</svg>
