<svg width="30" height="25" viewBox="0 0 30 25" fill="none" xmlns="http://www.w3.org/2000/svg">
<path d="M24.9726 4.50174C23.0804 4.11334 20.0294 3.58806 19.177 5.39499C16.572 9.97225 15.0764 14.7628 13.9507 16.8182C14.0689 16.8875 19.2576 19.9414 19.6246 20.1221C20.7911 20.6963 22.7386 20.4379 23.5683 18.92C25.8698 14.7091 25.2848 15.8054 27.7301 11.5088C29.3104 8.73219 27.3346 4.98652 24.9726 4.50174Z" fill="#EA4335"/>
<path d="M8.60146 23.0845C7.33091 21.6099 6.39888 18.6599 7.51531 17.0078C10.7768 11.277 13.3876 7.80792 15.441 4.33057C16.5297 4.96831 20.8924 7.47865 21.1828 7.7373C22.1575 8.60467 22.965 10.262 22.084 11.7498C19.6399 15.8773 18.6371 17.7452 16.1529 22.1101C14.5723 24.8874 10.1887 24.9266 8.60146 23.0845V23.0845Z" fill="#FDBD00"/>
<path d="M20.2996 1.5805C17.7579 0.0738108 16.4515 0.271276 15.0846 0.493651C13.8419 0.808774 12.1617 1.72488 11.4534 2.90181C9.66656 5.87068 7.97415 8.80848 5.78169 12.7896C5.10642 14.0157 5.60766 15.5222 6.23084 16.12C6.65317 16.5253 9.76061 18.2646 10.334 18.5146C11.145 18.8683 12.3599 18.6223 13.0927 17.8571C13.2951 17.6457 17.9309 9.56823 19.2363 7.18583C19.7874 6.18048 20.2838 5.62412 21.1078 5.08783C22.6997 4.24041 23.9426 4.1311 25.8464 4.83728C25.8464 4.83728 21.703 2.40095 20.2996 1.5805V1.5805Z" fill="#2DA94F"/>
<path d="M3.94542 20.5367C1.38821 19.0571 0.903543 17.8106 0.409933 16.4985C0.0576953 15.2494 -0.000355365 13.3151 0.650241 12.1042C2.29151 9.05019 2.27971 9.03471 4.58219 5.11793C5.29132 3.91161 6.82805 3.59879 7.65006 3.84728C8.2072 4.01561 11.2456 5.87599 11.7458 6.25472C12.4534 6.7904 12.8507 7.98075 12.5639 9.00726C12.4846 9.2907 9.58003 14.4618 8.19909 16.8001C7.6162 17.7868 7.38948 18.5009 7.34371 19.493C7.41619 21.3153 7.94424 22.4619 9.4991 23.7814C9.4991 23.7814 5.34746 21.3593 3.94542 20.5367V20.5367Z" fill="#297AEC"/>
</svg>
