<svg width="123" height="41" viewBox="0 0 123 41" fill="none" xmlns="http://www.w3.org/2000/svg">
<path d="M112.914 0.000102209H10.0915C9.71673 0.000102209 9.34642 0.000102209 8.97254 0.00214639C8.65968 0.00419058 8.34927 0.0101187 8.03334 0.015127C7.34702 0.0232001 6.66232 0.0835762 5.98517 0.195731C5.30897 0.310327 4.65396 0.52638 4.04228 0.836582C3.43137 1.14942 2.87317 1.55592 2.38792 2.04132C1.90013 2.52532 1.4935 3.08476 1.18369 3.69813C0.873021 4.31034 0.657605 4.96638 0.544886 5.64358C0.431087 6.31991 0.369851 7.00403 0.361727 7.68981C0.352222 8.00318 0.3512 8.31758 0.346191 8.63105V32.2559C0.3512 32.5732 0.352222 32.8807 0.361727 33.1983C0.369859 33.884 0.431095 34.568 0.544886 35.2443C0.657302 35.9219 0.872731 36.5782 1.18369 37.1907C1.49336 37.8021 1.90003 38.3593 2.38792 38.8406C2.87133 39.3282 3.42989 39.7349 4.04228 40.0454C4.65395 40.3564 5.3089 40.5737 5.98517 40.6901C6.66243 40.8013 7.34707 40.8618 8.03334 40.8708C8.34917 40.8777 8.65968 40.8817 8.97264 40.8817C9.34642 40.8838 9.71673 40.8838 10.0915 40.8838H112.914C113.281 40.8838 113.655 40.8838 114.022 40.8817C114.333 40.8817 114.653 40.8777 114.964 40.8708C115.649 40.8622 116.333 40.8018 117.008 40.6901C117.687 40.5729 118.344 40.3556 118.959 40.0454C119.571 39.7347 120.129 39.328 120.612 38.8406C121.098 38.3574 121.506 37.8006 121.819 37.1907C122.128 36.5778 122.341 35.9215 122.452 35.2443C122.566 34.5679 122.63 33.884 122.642 33.1982C122.646 32.8807 122.646 32.5732 122.646 32.2559C122.654 31.8846 122.654 31.5153 122.654 31.1379V9.74697C122.654 9.37258 122.654 9.00136 122.646 8.63105C122.646 8.31758 122.646 8.00318 122.642 7.68971C122.63 7.00387 122.566 6.3199 122.452 5.64348C122.341 4.96674 122.128 4.31082 121.819 3.69824C121.189 2.4687 120.188 1.46786 118.959 0.83648C118.344 0.527038 117.687 0.311043 117.008 0.195628C116.333 0.0829971 115.649 0.022617 114.964 0.0150248C114.653 0.0100165 114.333 0.00398616 114.022 0.00204418C113.655 0 113.281 0 112.914 0L112.914 0.000102209Z" fill="black"/>
<path d="M8.97736 39.9887C8.66592 39.9887 8.36206 39.9847 8.05308 39.9777C7.41304 39.9694 6.7745 39.9137 6.14269 39.8111C5.55355 39.7096 4.98284 39.5209 4.44939 39.251C3.9208 38.9835 3.43869 38.6326 3.02152 38.212C2.59828 37.7963 2.24591 37.3141 1.97838 36.7846C1.70792 36.2517 1.52075 35.6805 1.42338 35.0908C1.31827 34.4572 1.26141 33.8166 1.25331 33.1744C1.24676 32.9588 1.23828 32.2412 1.23828 32.2412V8.63018C1.23828 8.63018 1.24728 7.9235 1.25331 7.71581C1.26109 7.07466 1.31764 6.43503 1.42246 5.80246C1.52002 5.2112 1.70735 4.63831 1.97797 4.10364C2.24448 3.5745 2.59485 3.09197 3.01549 2.67475C3.43569 2.25358 3.91937 1.90093 4.44888 1.62967C4.98112 1.36075 5.55076 1.17335 6.1387 1.07375C6.7726 0.97013 7.41337 0.914133 8.05563 0.906229L8.97787 0.893555H114.017L114.95 0.906535C115.587 0.914096 116.222 0.969651 116.85 1.07273C117.444 1.17361 118.019 1.36235 118.557 1.63273C119.618 2.17938 120.481 3.04424 121.026 4.10609C121.292 4.6371 121.477 5.20534 121.573 5.79152C121.679 6.42927 121.738 7.07391 121.75 7.72031C121.754 8.00977 121.754 8.32069 121.754 8.63018C121.762 9.01346 121.762 9.37825 121.762 9.7461V31.137C121.762 31.5084 121.762 31.8707 121.754 32.236C121.754 32.5684 121.754 32.8729 121.749 33.1862C121.737 33.8211 121.679 34.4543 121.575 35.0807C121.479 35.6746 121.293 36.2503 121.023 36.7876C120.753 37.3113 120.403 37.7893 119.985 38.2039C119.567 38.6268 119.084 38.9797 118.554 39.249C118.018 39.5209 117.443 39.7103 116.85 39.8109C116.218 39.9141 115.579 39.9698 114.939 39.9776C114.633 39.9848 114.328 39.9884 114.022 39.9886L112.914 39.9906L8.97736 39.9887Z" fill="white"/>
<path d="M25.8951 20.3281C25.9065 19.4409 26.1422 18.5711 26.5801 17.7995C27.018 17.0279 27.644 16.3796 28.3998 15.915C27.9197 15.2293 27.2863 14.6649 26.5499 14.2668C25.8135 13.8687 24.9944 13.6478 24.1577 13.6216C22.3729 13.4343 20.6426 14.6897 19.7331 14.6897C18.806 14.6897 17.4057 13.6402 15.8977 13.6713C14.9223 13.7028 13.9718 13.9865 13.1386 14.4946C12.3055 15.0027 11.6182 15.7179 11.1436 16.5707C9.088 20.1296 10.6213 25.3599 12.5904 28.2368C13.5755 29.6455 14.7269 31.219 16.2334 31.1632C17.7077 31.102 18.2584 30.223 20.0379 30.223C21.801 30.223 22.3175 31.1632 23.8547 31.1277C25.4367 31.102 26.4334 29.7128 27.384 28.2908C28.0918 27.287 28.6365 26.1776 28.9978 25.0037C28.0788 24.615 27.2945 23.9644 26.7427 23.1329C26.191 22.3014 25.8962 21.326 25.8951 20.3281ZM22.9917 11.7297C23.8543 10.6942 24.2792 9.36329 24.1763 8.01953C22.8585 8.15797 21.6413 8.78781 20.7671 9.78356C20.3397 10.27 20.0123 10.8359 19.8037 11.4489C19.5951 12.062 19.5094 12.7101 19.5515 13.3563C20.2106 13.3631 20.8627 13.2202 21.4586 12.9384C22.0546 12.6567 22.5787 12.2435 22.9917 11.7297ZM43.5825 27.7385H38.7445L37.5827 31.1691H35.5334L40.1159 18.4768H42.245L46.8274 31.1691H44.7434L43.5825 27.7385ZM39.2455 26.1554H43.0804L41.19 20.5879H41.137L39.2455 26.1554ZM56.7239 26.5428C56.7239 29.4183 55.1847 31.2659 52.8621 31.2659C52.2738 31.2967 51.6886 31.1611 51.1737 30.8748C50.6588 30.5885 50.2349 30.1629 49.9506 29.6469H49.9067V34.2304H48.0071V21.9154H49.8457V23.4545H49.8807C50.1781 22.941 50.6091 22.5176 51.128 22.2296C51.6468 21.9415 52.234 21.7995 52.8272 21.8186C55.1758 21.8186 56.7239 23.6752 56.7239 26.5428ZM54.7715 26.5428C54.7715 24.6693 53.8034 23.4376 52.3262 23.4376C50.8748 23.4376 49.8987 24.6952 49.8987 26.5427C49.8987 28.4073 50.8748 29.656 52.3262 29.656C53.8034 29.656 54.7715 28.4334 54.7715 26.5428ZM66.9094 26.5428C66.9094 29.4183 65.3698 31.2659 63.0471 31.2659C62.4587 31.2967 61.8736 31.1611 61.3587 30.8748C60.8437 30.5885 60.4199 30.1629 60.1356 29.6469H60.0916V34.2304H58.1922V21.9154H60.0307V23.4545H60.0656C60.363 22.941 60.7941 22.5176 61.3129 22.2296C61.8318 21.9415 62.419 21.7995 63.0121 21.8186C65.3608 21.8186 66.9094 23.6752 66.9094 26.5428ZM64.9566 26.5428C64.9566 24.6693 63.9883 23.4376 62.5111 23.4376C61.0597 23.4376 60.0836 24.6952 60.0836 26.5427C60.0836 28.4073 61.0597 29.656 62.5111 29.656C63.9883 29.656 64.9566 28.4334 64.9566 26.5428ZM73.6398 27.6328C73.7806 28.8914 75.0033 29.7178 76.6741 29.7178C78.2751 29.7178 79.427 28.8914 79.427 27.7564C79.427 26.7712 78.7323 26.1814 77.0875 25.7771L75.4425 25.3809C73.1118 24.8179 72.0298 23.728 72.0298 21.9592C72.0298 19.7693 73.9383 18.2652 76.6472 18.2652C79.3302 18.2652 81.1688 19.7693 81.2307 21.9592H79.3133C79.1985 20.6926 78.1514 19.928 76.6213 19.928C75.0911 19.928 74.0441 20.7016 74.0441 21.8275C74.0441 22.7249 74.7128 23.2529 76.3488 23.657L77.7471 24.0004C80.3513 24.6163 81.4323 25.6624 81.4323 27.5188C81.4323 29.8934 79.5418 31.3807 76.5334 31.3807C73.7185 31.3807 71.8182 29.9283 71.6954 27.6327L73.6398 27.6328ZM85.5336 19.7255V21.9154H87.2934V23.4196H85.5336V28.5211C85.5336 29.3136 85.8859 29.6829 86.6596 29.6829C86.8685 29.6792 87.077 29.6646 87.2844 29.6389V31.1342C86.9366 31.1992 86.5831 31.2286 86.2294 31.2219C84.3559 31.2219 83.6252 30.5183 83.6252 28.7236V23.4196H82.2797V21.9154H83.6252V19.7255H85.5336ZM88.3115 26.5428C88.3115 23.6312 90.0262 21.8016 92.7003 21.8016C95.3833 21.8016 97.0901 23.6312 97.0901 26.5428C97.0901 29.4623 95.3922 31.2839 92.7002 31.2839C90.0093 31.2839 88.3115 29.4623 88.3115 26.5428ZM95.1547 26.5428C95.1547 24.5455 94.2394 23.3666 92.7002 23.3666C91.1612 23.3666 90.2459 24.5544 90.2459 26.5428C90.2459 28.548 91.1612 29.7178 92.7002 29.7178C94.2394 29.7178 95.1547 28.548 95.1547 26.5428ZM98.656 21.9154H100.468V23.4904H100.512C100.634 22.9985 100.922 22.5638 101.328 22.2593C101.733 21.9549 102.231 21.7992 102.738 21.8186C102.956 21.8178 103.175 21.8416 103.388 21.8894V23.6661C103.112 23.5817 102.824 23.5429 102.535 23.5513C102.259 23.5401 101.984 23.5888 101.728 23.6939C101.473 23.7991 101.244 23.9583 101.056 24.1605C100.867 24.3628 100.725 24.6034 100.639 24.8657C100.553 25.1281 100.524 25.406 100.556 25.6804V31.1691H98.656V21.9154ZM112.146 28.4511C111.89 30.1311 110.254 31.2839 108.161 31.2839C105.469 31.2839 103.799 29.4803 103.799 26.5866C103.799 23.6841 105.478 21.8016 108.082 21.8016C110.642 21.8016 112.252 23.5603 112.252 26.3661V27.0168H105.716V27.1316C105.686 27.4722 105.728 27.8153 105.841 28.1381C105.954 28.4609 106.134 28.7561 106.369 29.004C106.605 29.2519 106.89 29.4469 107.207 29.576C107.523 29.7051 107.864 29.7654 108.205 29.7528C108.654 29.7948 109.105 29.6909 109.49 29.4563C109.875 29.2218 110.174 28.8693 110.342 28.4511H112.146ZM105.725 25.6893H110.351C110.368 25.3831 110.322 25.0767 110.215 24.7893C110.108 24.5018 109.943 24.2396 109.73 24.0191C109.516 23.7985 109.26 23.6244 108.976 23.5077C108.693 23.391 108.388 23.3341 108.082 23.3407C107.772 23.3388 107.466 23.3983 107.179 23.5155C106.893 23.6328 106.633 23.8056 106.414 24.024C106.195 24.2423 106.021 24.5019 105.903 24.7878C105.785 25.0736 105.724 25.38 105.725 25.6893ZM39.008 8.92316C39.4062 8.89458 39.8058 8.95474 40.178 9.0993C40.5502 9.24386 40.8856 9.46921 41.1601 9.75911C41.4346 10.049 41.6414 10.3962 41.7655 10.7757C41.8895 11.1552 41.9279 11.5575 41.8776 11.9536C41.8776 13.9019 40.8246 15.0219 39.008 15.0219H36.8051V8.92306L39.008 8.92316ZM37.7524 14.1593H38.9022C39.1868 14.1763 39.4715 14.1297 39.7358 14.0227C40 13.9158 40.2371 13.7513 40.4297 13.5412C40.6224 13.3311 40.7657 13.0807 40.8494 12.8082C40.9331 12.5357 40.9549 12.2479 40.9134 11.9659C40.9519 11.685 40.9279 11.3991 40.8429 11.1286C40.758 10.8581 40.6142 10.6097 40.422 10.4013C40.2298 10.1928 39.9939 10.0295 39.7311 9.92294C39.4684 9.8164 39.1853 9.76929 38.9022 9.78499H37.7524V14.1593ZM42.9477 12.7186C42.9187 12.4161 42.9533 12.111 43.0492 11.8227C43.1451 11.5344 43.3002 11.2693 43.5046 11.0445C43.7089 10.8196 43.958 10.64 44.2359 10.517C44.5137 10.3941 44.8142 10.3306 45.1181 10.3306C45.4219 10.3306 45.7224 10.3941 46.0002 10.517C46.2781 10.64 46.5272 10.8196 46.7315 11.0445C46.9359 11.2693 47.091 11.5344 47.1869 11.8227C47.2828 12.111 47.3174 12.4161 47.2885 12.7186C47.318 13.0214 47.2839 13.3271 47.1883 13.6159C47.0927 13.9047 46.9377 14.1704 46.7333 14.3957C46.5289 14.6211 46.2795 14.8011 46.0014 14.9244C45.7232 15.0476 45.4223 15.1113 45.1181 15.1113C44.8138 15.1113 44.5129 15.0476 44.2348 14.9244C43.9566 14.8011 43.7073 14.6211 43.5029 14.3957C43.2984 14.1704 43.1434 13.9047 43.0478 13.6159C42.9522 13.3271 42.9181 13.0214 42.9477 12.7186ZM46.3543 12.7186C46.3543 11.7209 45.9061 11.1375 45.1196 11.1375C44.33 11.1375 43.8859 11.7209 43.8859 12.7186C43.8859 13.7242 44.3301 14.3031 45.1196 14.3031C45.9061 14.3031 46.3543 13.7202 46.3543 12.7186ZM53.0588 15.0218H52.1164L51.1653 11.6321H51.0934L50.1462 15.0218H49.213L47.9444 10.4193H48.8656L49.6901 13.9312H49.758L50.7042 10.4193H51.5755L52.5218 13.9312H52.5936L53.4141 10.4193H54.3224L53.0588 15.0218ZM55.3894 10.4194H56.2638V11.1505H56.3316C56.4468 10.8879 56.641 10.6677 56.8872 10.5207C57.1334 10.3738 57.4193 10.3072 57.7051 10.3305C57.9291 10.3136 58.1539 10.3474 58.363 10.4293C58.5722 10.5112 58.7602 10.639 58.9132 10.8034C59.0661 10.9678 59.1802 11.1645 59.2468 11.379C59.3135 11.5934 59.331 11.8201 59.2982 12.0423V15.0217H58.3898V12.2704C58.3898 11.5308 58.0684 11.163 57.3967 11.163C57.2446 11.1559 57.0928 11.1818 56.9517 11.2389C56.8106 11.2959 56.6835 11.3828 56.5792 11.4936C56.4748 11.6044 56.3956 11.7364 56.347 11.8806C56.2984 12.0249 56.2816 12.1779 56.2977 12.3293V15.0218H55.3894V10.4194ZM60.7454 8.62267H61.6537V15.0218H60.7454V8.62267ZM62.9164 12.7186C62.8874 12.4161 62.922 12.1109 63.0179 11.8226C63.1139 11.5342 63.269 11.2691 63.4734 11.0442C63.6778 10.8194 63.9269 10.6397 64.2048 10.5167C64.4827 10.3938 64.7832 10.3303 65.0871 10.3303C65.391 10.3303 65.6915 10.3938 65.9694 10.5167C66.2473 10.6397 66.4964 10.8194 66.7008 11.0442C66.9052 11.2691 67.0603 11.5342 67.1562 11.8226C67.2521 12.1109 67.2867 12.4161 67.2578 12.7186C67.2872 13.0214 67.253 13.3269 67.1573 13.6157C67.0616 13.9044 66.9065 14.1699 66.7021 14.3952C66.4976 14.6204 66.2484 14.8004 65.9702 14.9236C65.6921 15.0468 65.3913 15.1104 65.0871 15.1104C64.7829 15.1104 64.4821 15.0468 64.2039 14.9236C63.9258 14.8004 63.6765 14.6204 63.4721 14.3952C63.2677 14.1699 63.1126 13.9044 63.0169 13.6157C62.9212 13.3269 62.8869 13.0214 62.9164 12.7186ZM66.323 12.7186C66.323 11.7209 65.8748 11.1375 65.0883 11.1375C64.2987 11.1375 63.8546 11.7209 63.8546 12.7186C63.8546 13.7242 64.2988 14.3031 65.0883 14.3031C65.8748 14.3031 66.323 13.7202 66.323 12.7186ZM68.214 13.7202C68.214 12.8917 68.8308 12.4141 69.9258 12.3462L71.1724 12.2744V11.8771C71.1724 11.391 70.8511 11.1166 70.2302 11.1166C69.7232 11.1166 69.3718 11.3027 69.271 11.6281H68.3916C68.4844 10.8375 69.2281 10.3306 70.2722 10.3306C71.426 10.3306 72.0768 10.905 72.0768 11.8771V15.0218H71.2024V14.375H71.1305C70.9846 14.607 70.7798 14.7961 70.537 14.9231C70.2941 15.05 70.0219 15.1103 69.7481 15.0976C69.5549 15.1177 69.3596 15.0971 69.1749 15.0371C68.9901 14.9771 68.82 14.8791 68.6755 14.7493C68.5309 14.6195 68.4152 14.4609 68.3357 14.2837C68.2562 14.1064 68.2147 13.9145 68.214 13.7202ZM71.1724 13.3269V12.9421L70.0485 13.014C69.4147 13.0564 69.1272 13.2721 69.1272 13.6777C69.1272 14.092 69.4866 14.3331 69.9807 14.3331C70.1254 14.3478 70.2717 14.3331 70.4107 14.2901C70.5497 14.2471 70.6786 14.1765 70.7898 14.0827C70.901 13.9888 70.9922 13.8735 71.0579 13.7437C71.1237 13.6139 71.1626 13.4721 71.1724 13.3269ZM73.2706 12.7186C73.2706 11.2643 74.0181 10.3431 75.181 10.3431C75.4686 10.3298 75.7541 10.3987 76.004 10.5417C76.2539 10.6847 76.458 10.8958 76.5924 11.1505H76.6602V8.62257H77.5685V15.0217H76.6981V14.2945H76.6263C76.4816 14.5474 76.2704 14.756 76.0157 14.8975C75.7609 15.0391 75.4723 15.1082 75.1811 15.0975C74.0101 15.0975 73.2706 14.1763 73.2706 12.7186ZM74.2088 12.7186C74.2088 13.6947 74.669 14.2822 75.4384 14.2822C76.204 14.2822 76.6772 13.6863 76.6772 12.7225C76.6772 11.7634 76.1991 11.159 75.4384 11.159C74.6739 11.159 74.2088 11.7504 74.2088 12.7186ZM81.3265 12.7186C81.2975 12.4161 81.3321 12.111 81.428 11.8227C81.5239 11.5344 81.6791 11.2693 81.8834 11.0445C82.0878 10.8196 82.3369 10.64 82.6147 10.517C82.8926 10.3941 83.1931 10.3306 83.4969 10.3306C83.8007 10.3306 84.1012 10.3941 84.3791 10.517C84.6569 10.64 84.906 10.8196 85.1104 11.0445C85.3147 11.2693 85.4698 11.5344 85.5658 11.8227C85.6617 12.111 85.6962 12.4161 85.6673 12.7186C85.6969 13.0214 85.6627 13.3271 85.5671 13.6159C85.4715 13.9047 85.3165 14.1704 85.1121 14.3957C84.9077 14.6211 84.6584 14.8011 84.3802 14.9244C84.102 15.0476 83.8011 15.1113 83.4969 15.1113C83.1926 15.1113 82.8918 15.0476 82.6136 14.9244C82.3354 14.8011 82.0861 14.6211 81.8817 14.3957C81.6773 14.1704 81.5223 13.9047 81.4267 13.6159C81.331 13.3271 81.2969 13.0214 81.3265 12.7186ZM84.7331 12.7186C84.7331 11.7209 84.2849 11.1375 83.4984 11.1375C82.7089 11.1375 82.2648 11.7209 82.2648 12.7186C82.2648 13.7242 82.709 14.3031 83.4984 14.3031C84.2849 14.3031 84.7331 13.7202 84.7331 12.7186ZM86.8861 10.4194H87.7605V11.1505H87.8283C87.9435 10.8879 88.1377 10.6677 88.3839 10.5207C88.6301 10.3738 88.916 10.3072 89.2018 10.3305C89.4257 10.3136 89.6506 10.3474 89.8597 10.4293C90.0688 10.5112 90.2568 10.639 90.4098 10.8034C90.5628 10.9678 90.6769 11.1645 90.7435 11.379C90.8102 11.5934 90.8277 11.8201 90.7948 12.0423V15.0217H89.8865V12.2704C89.8865 11.5308 89.5651 11.163 88.8933 11.163C88.7413 11.1559 88.5895 11.1818 88.4484 11.2389C88.3073 11.2959 88.1802 11.3828 88.0758 11.4936C87.9715 11.6044 87.8923 11.7364 87.8437 11.8806C87.7951 12.0249 87.7783 12.1779 87.7944 12.3293V15.0218H86.8862L86.8861 10.4194ZM95.9273 9.27354V10.4404H96.9244V11.2054H95.9273V13.5719C95.9273 14.0541 96.1259 14.2652 96.578 14.2652C96.6938 14.2648 96.8094 14.2578 96.9243 14.2442V15.0008C96.7612 15.03 96.5959 15.0455 96.4302 15.0472C95.4202 15.0472 95.0179 14.6918 95.0179 13.8046V11.2054H94.2873V10.4403H95.0179V9.27364L95.9273 9.27354ZM98.165 8.62267H99.0654V11.159H99.1373C99.258 10.8939 99.4575 10.6725 99.7086 10.525C99.9598 10.3774 100.25 10.3109 100.541 10.3345C100.763 10.3223 100.986 10.3595 101.193 10.4434C101.4 10.5273 101.585 10.6557 101.737 10.8196C101.888 10.9835 102.001 11.1788 102.069 11.3915C102.136 11.6043 102.155 11.8292 102.126 12.0504V15.0218H101.216V12.2744C101.216 11.5392 100.874 11.167 100.232 11.167C100.076 11.1542 99.9191 11.1756 99.7721 11.2299C99.6252 11.2841 99.4919 11.3698 99.3815 11.4809C99.2711 11.592 99.1863 11.726 99.1331 11.8733C99.0799 12.0206 99.0595 12.1778 99.0734 12.3338V15.0218H98.165V8.62267ZM107.422 13.779C107.298 14.1997 107.031 14.5635 106.666 14.807C106.302 15.0504 105.863 15.1579 105.428 15.1106C105.124 15.1186 104.823 15.0605 104.544 14.9404C104.266 14.8203 104.017 14.641 103.815 14.415C103.612 14.189 103.462 13.9216 103.373 13.6315C103.284 13.3414 103.26 13.0355 103.301 12.7351C103.261 12.4336 103.286 12.1271 103.374 11.8361C103.463 11.5451 103.613 11.2765 103.814 11.0485C104.015 10.8205 104.263 10.6384 104.541 10.5145C104.818 10.3906 105.119 10.3279 105.424 10.3305C106.704 10.3305 107.477 11.2054 107.477 12.6506V12.9676H104.227V13.0185C104.213 13.1874 104.234 13.3574 104.289 13.5176C104.344 13.6778 104.433 13.8247 104.548 13.9488C104.663 14.073 104.803 14.1716 104.959 14.2385C105.115 14.3053 105.283 14.3389 105.452 14.337C105.67 14.3631 105.89 14.3239 106.085 14.2246C106.28 14.1252 106.441 13.9701 106.547 13.779H107.422ZM104.227 12.2959H106.551C106.563 12.1414 106.542 11.9862 106.49 11.8404C106.438 11.6945 106.356 11.5611 106.249 11.4489C106.142 11.3366 106.013 11.2479 105.87 11.1884C105.727 11.1289 105.573 11.1 105.419 11.1036C105.261 11.1016 105.106 11.1311 104.96 11.1903C104.814 11.2496 104.682 11.3373 104.571 11.4484C104.46 11.5595 104.372 11.6918 104.313 11.8373C104.254 11.9829 104.225 12.1388 104.227 12.2959Z" fill="black"/>
</svg>
