<svg width="130" height="101" viewBox="0 0 130 101" fill="none" xmlns="http://www.w3.org/2000/svg">
<rect y="30.7559" width="129.167" height="69.4445" rx="10" fill="url(#paint0_linear)" fill-opacity="0.7"/>
<path d="M25.0737 79.3359L29.0068 88.7476L32.9546 79.3359H34.1558V90H33.2549V85.3564L33.3281 80.5957L29.3584 90H28.6626L24.7075 80.6323L24.7808 85.3271V90H23.8799V79.3359H25.0737ZM41.6558 90C41.5679 89.751 41.5117 89.3823 41.4873 88.894C41.1797 89.2944 40.7866 89.6045 40.3081 89.8242C39.8345 90.0391 39.3315 90.1465 38.7993 90.1465C38.0376 90.1465 37.4199 89.9341 36.9463 89.5093C36.4775 89.0845 36.2432 88.5474 36.2432 87.8979C36.2432 87.1265 36.563 86.5161 37.2026 86.0669C37.8472 85.6177 38.7432 85.3931 39.8906 85.3931H41.48V84.4922C41.48 83.9258 41.3042 83.4814 40.9526 83.1592C40.606 82.832 40.0981 82.6685 39.4292 82.6685C38.8188 82.6685 38.3135 82.8247 37.9131 83.1372C37.5127 83.4497 37.3125 83.8257 37.3125 84.2651L36.4336 84.2578C36.4336 83.6279 36.7266 83.0835 37.3125 82.6245C37.8984 82.1606 38.6187 81.9287 39.4731 81.9287C40.3569 81.9287 41.0527 82.1509 41.5605 82.5952C42.0732 83.0347 42.3369 83.6499 42.3516 84.4409V88.1909C42.3516 88.9575 42.4321 89.5312 42.5933 89.9121V90H41.6558ZM38.9019 89.3701C39.4878 89.3701 40.0103 89.2285 40.4692 88.9453C40.9331 88.6621 41.27 88.2837 41.48 87.8101V86.0669H39.9126C39.0386 86.0767 38.355 86.2378 37.8618 86.5503C37.3687 86.8579 37.1221 87.2827 37.1221 87.8247C37.1221 88.269 37.2856 88.6377 37.6128 88.9307C37.9448 89.2236 38.3745 89.3701 38.9019 89.3701ZM45.5303 82.0752L45.5596 83.4302C45.8574 82.9419 46.2285 82.5708 46.6729 82.3169C47.1172 82.0581 47.6079 81.9287 48.145 81.9287C48.9946 81.9287 49.627 82.168 50.042 82.6465C50.457 83.125 50.667 83.8428 50.6719 84.7998V90H49.8003V84.7925C49.7954 84.0845 49.644 83.5571 49.3462 83.2104C49.0532 82.8638 48.582 82.6904 47.9326 82.6904C47.3906 82.6904 46.9097 82.8613 46.4897 83.2031C46.0747 83.54 45.7671 83.9966 45.5669 84.5728V90H44.6953V82.0752H45.5303ZM57.9448 90C57.8569 89.751 57.8008 89.3823 57.7764 88.894C57.4688 89.2944 57.0757 89.6045 56.5972 89.8242C56.1235 90.0391 55.6206 90.1465 55.0884 90.1465C54.3267 90.1465 53.709 89.9341 53.2354 89.5093C52.7666 89.0845 52.5322 88.5474 52.5322 87.8979C52.5322 87.1265 52.8521 86.5161 53.4917 86.0669C54.1362 85.6177 55.0322 85.3931 56.1797 85.3931H57.769V84.4922C57.769 83.9258 57.5933 83.4814 57.2417 83.1592C56.895 82.832 56.3872 82.6685 55.7183 82.6685C55.1079 82.6685 54.6025 82.8247 54.2021 83.1372C53.8018 83.4497 53.6016 83.8257 53.6016 84.2651L52.7227 84.2578C52.7227 83.6279 53.0156 83.0835 53.6016 82.6245C54.1875 82.1606 54.9077 81.9287 55.7622 81.9287C56.646 81.9287 57.3418 82.1509 57.8496 82.5952C58.3623 83.0347 58.626 83.6499 58.6406 84.4409V88.1909C58.6406 88.9575 58.7212 89.5312 58.8823 89.9121V90H57.9448ZM55.1909 89.3701C55.7769 89.3701 56.2993 89.2285 56.7583 88.9453C57.2222 88.6621 57.5591 88.2837 57.769 87.8101V86.0669H56.2017C55.3276 86.0767 54.644 86.2378 54.1509 86.5503C53.6577 86.8579 53.4111 87.2827 53.4111 87.8247C53.4111 88.269 53.5747 88.6377 53.9019 88.9307C54.2339 89.2236 54.6636 89.3701 55.1909 89.3701ZM60.6328 85.9644C60.6328 84.7241 60.9062 83.7427 61.4531 83.02C62.0049 82.2925 62.752 81.9287 63.6943 81.9287C64.7734 81.9287 65.5938 82.3584 66.1553 83.2178L66.1992 82.0752H67.0195V89.8389C67.0195 90.8594 66.7339 91.6675 66.1626 92.2632C65.5913 92.8589 64.8174 93.1567 63.8408 93.1567C63.2891 93.1567 62.7617 93.0322 62.2588 92.7832C61.7607 92.5391 61.3677 92.2119 61.0796 91.8018L61.5703 91.2744C62.1904 92.0361 62.9277 92.417 63.7822 92.417C64.5146 92.417 65.0859 92.1997 65.4961 91.7651C65.9062 91.3354 66.1187 90.7373 66.1333 89.9707V88.9746C65.5718 89.7559 64.7539 90.1465 63.6797 90.1465C62.7617 90.1465 62.0244 89.7803 61.4678 89.0479C60.9111 88.3154 60.6328 87.3267 60.6328 86.0815V85.9644ZM61.519 86.1182C61.519 87.1289 61.7217 87.9272 62.127 88.5132C62.5322 89.0942 63.1035 89.3848 63.8408 89.3848C64.9199 89.3848 65.6841 88.9014 66.1333 87.9346V84.2505C65.9282 83.7427 65.6328 83.3569 65.2471 83.0933C64.8613 82.8247 64.3975 82.6904 63.8555 82.6904C63.1182 82.6904 62.5444 82.981 62.1343 83.562C61.7241 84.1382 61.519 84.9902 61.519 86.1182ZM72.3735 90.1465C71.6997 90.1465 71.0894 89.9805 70.5425 89.6484C70.0005 89.3164 69.5781 88.855 69.2754 88.2642C68.9727 87.6685 68.8213 87.002 68.8213 86.2646V85.9497C68.8213 85.188 68.9678 84.502 69.2607 83.8916C69.5586 83.2812 69.9712 82.8027 70.4985 82.4561C71.0259 82.1045 71.5972 81.9287 72.2124 81.9287C73.1743 81.9287 73.936 82.2583 74.4976 82.9175C75.064 83.5718 75.3472 84.4678 75.3472 85.6055V86.0962H69.6929V86.2646C69.6929 87.1631 69.9492 87.9126 70.4619 88.5132C70.9795 89.1089 71.6289 89.4067 72.4102 89.4067C72.8789 89.4067 73.2915 89.3213 73.6479 89.1504C74.0093 88.9795 74.3364 88.7061 74.6294 88.3301L75.1787 88.7476C74.5342 89.6802 73.5991 90.1465 72.3735 90.1465ZM72.2124 82.6758C71.5532 82.6758 70.9966 82.9175 70.5425 83.4009C70.0933 83.8843 69.8198 84.5337 69.7222 85.3491H74.4756V85.2539C74.4512 84.4922 74.2339 83.8721 73.8237 83.3936C73.4136 82.915 72.8765 82.6758 72.2124 82.6758ZM80.9062 90V79.3359H84.0557C85.1982 79.3359 86.0649 79.5728 86.6558 80.0464C87.2466 80.5151 87.542 81.2085 87.542 82.1265C87.542 82.6782 87.3906 83.1592 87.0879 83.5693C86.79 83.9746 86.3799 84.2651 85.8574 84.4409C86.4775 84.5776 86.9756 84.8828 87.3516 85.3564C87.7324 85.8301 87.9229 86.377 87.9229 86.9971C87.9229 87.9395 87.6177 88.6768 87.0073 89.209C86.4019 89.7363 85.5571 90 84.4731 90H80.9062ZM81.8071 84.873V89.2383H84.5098C85.2812 89.2383 85.8916 89.043 86.3408 88.6523C86.7949 88.2568 87.022 87.71 87.022 87.0117C87.022 86.3525 86.8047 85.8325 86.3701 85.4517C85.9404 85.0659 85.3447 84.873 84.583 84.873H81.8071ZM81.8071 84.1187H84.2681C85.02 84.104 85.6011 83.9282 86.0112 83.5913C86.4263 83.2495 86.6338 82.7539 86.6338 82.1045C86.6338 81.4209 86.4189 80.918 85.9893 80.5957C85.5645 80.2686 84.9199 80.105 84.0557 80.105H81.8071V84.1187ZM90.8818 90H90.0029V82.0752H90.8818V90ZM89.8491 79.7827C89.8491 79.6167 89.9028 79.4775 90.0103 79.3652C90.1177 79.248 90.2642 79.1895 90.4497 79.1895C90.6353 79.1895 90.7817 79.248 90.8892 79.3652C91.0015 79.4775 91.0576 79.6167 91.0576 79.7827C91.0576 79.9487 91.0015 80.0879 90.8892 80.2002C90.7817 80.3125 90.6353 80.3687 90.4497 80.3687C90.2642 80.3687 90.1177 80.3125 90.0103 80.2002C89.9028 80.0879 89.8491 79.9487 89.8491 79.7827ZM94.251 90H93.3721V78.75H94.251V90ZM97.6201 90H96.7412V78.75H97.6201V90ZM104.754 87.9858C104.754 87.5513 104.578 87.2021 104.227 86.9385C103.88 86.6748 103.355 86.4697 102.652 86.3232C101.949 86.1719 101.402 86.001 101.011 85.8105C100.625 85.6152 100.337 85.3784 100.147 85.1001C99.9614 84.8218 99.8687 84.4849 99.8687 84.0894C99.8687 83.4644 100.13 82.9492 100.652 82.5439C101.175 82.1338 101.844 81.9287 102.659 81.9287C103.543 81.9287 104.251 82.1484 104.783 82.5879C105.32 83.0225 105.589 83.5913 105.589 84.2944H104.71C104.71 83.8306 104.515 83.4448 104.124 83.1372C103.738 82.8296 103.25 82.6758 102.659 82.6758C102.083 82.6758 101.619 82.8052 101.268 83.064C100.921 83.3179 100.748 83.6499 100.748 84.0601C100.748 84.4556 100.892 84.7632 101.18 84.9829C101.473 85.1978 102.002 85.3955 102.769 85.5762C103.541 85.7568 104.117 85.9497 104.498 86.1548C104.883 86.3599 105.169 86.6064 105.354 86.8945C105.54 87.1826 105.633 87.5317 105.633 87.9419C105.633 88.6108 105.362 89.1455 104.82 89.5459C104.283 89.9463 103.58 90.1465 102.71 90.1465C101.788 90.1465 101.038 89.9243 100.462 89.48C99.8906 89.0308 99.605 88.4644 99.605 87.7808H100.484C100.518 88.2935 100.733 88.6938 101.128 88.9819C101.529 89.2651 102.056 89.4067 102.71 89.4067C103.321 89.4067 103.814 89.2725 104.19 89.0039C104.566 88.7354 104.754 88.396 104.754 87.9858Z" fill="black"/>
<g filter="url(#filter0_d)">
<path d="M67.0323 18.5293H42.2581C37.6973 18.5293 34 22.2164 34 26.7646V61.7646C34 66.3128 37.6973 69.9999 42.2581 69.9999H67.0323C71.5931 69.9999 75.2903 66.3128 75.2903 61.7646V26.7646C75.2903 22.2164 71.5931 18.5293 67.0323 18.5293Z" fill="#A9C145"/>
<path d="M40.1935 26.7646H69.0968C69.6443 26.7646 70.1694 26.9816 70.5566 27.3677C70.9438 27.7538 71.1613 28.2774 71.1613 28.8235C71.1613 29.3695 70.9438 29.8932 70.5566 30.2793C70.1694 30.6654 69.6443 30.8823 69.0968 30.8823H40.1935C39.646 30.8823 39.1209 30.6654 38.7337 30.2793C38.3465 29.8932 38.129 29.3695 38.129 28.8235C38.129 28.2774 38.3465 27.7538 38.7337 27.3677C39.1209 26.9816 39.646 26.7646 40.1935 26.7646V26.7646Z" fill="#353F48"/>
<path d="M70.8124 28.8235H41.071C40.8392 28.8241 40.614 28.7467 40.4316 28.6041C40.2492 28.4614 40.1203 28.2617 40.0656 28.0371C38.2901 26.0297 37.0968 20.5553 37.0968 14.4118C37.0968 8.26824 38.2901 2.79177 40.0656 0.786481C40.1203 0.561852 40.2492 0.362119 40.4316 0.219453C40.614 0.076787 40.8392 -0.00051666 41.071 2.59896e-06H70.8124C69.6583 0.0947085 68.5765 1.63471 67.7673 4.34001C66.8815 7.62285 66.4577 11.0125 66.5079 14.4118C66.4574 17.811 66.8813 21.2007 67.7673 24.4835C68.5765 27.1909 69.6583 28.7309 70.8124 28.8194V28.8235Z" fill="#FFE54C"/>
<path d="M67.0323 32.9414H42.2581C39.9777 32.9414 38.129 34.7849 38.129 37.0591C38.129 39.3332 39.9777 41.1767 42.2581 41.1767H67.0323C69.3127 41.1767 71.1613 39.3332 71.1613 37.0591C71.1613 34.7849 69.3127 32.9414 67.0323 32.9414Z" fill="#E4E4E4"/>
<path d="M62.9033 48.3822C62.9033 46.6766 61.5168 45.2939 59.8065 45.2939C58.0962 45.2939 56.7097 46.6766 56.7097 48.3822C56.7097 50.0878 58.0962 51.4704 59.8065 51.4704C61.5168 51.4704 62.9033 50.0878 62.9033 48.3822Z" fill="white"/>
<path d="M54.6451 48.3822C54.6451 46.6766 53.2587 45.2939 51.5484 45.2939C49.8381 45.2939 48.4516 46.6766 48.4516 48.3822C48.4516 50.0878 49.8381 51.4704 51.5484 51.4704C53.2587 51.4704 54.6451 50.0878 54.6451 48.3822Z" fill="white"/>
<path d="M46.3871 48.3822C46.3871 46.6766 45.0006 45.2939 43.2903 45.2939C41.58 45.2939 40.1935 46.6766 40.1935 48.3822C40.1935 50.0878 41.58 51.4704 43.2903 51.4704C45.0006 51.4704 46.3871 50.0878 46.3871 48.3822Z" fill="white"/>
<path d="M68.1327 61.603C69.843 61.574 71.2059 60.1678 71.1768 58.4623C71.1477 56.7567 69.7377 55.3975 68.0274 55.4265L59.7693 55.5665C58.059 55.5955 56.6961 57.0017 56.7252 58.7073C56.7543 60.4128 58.1643 61.772 59.8746 61.743L68.1327 61.603Z" fill="white"/>
<path d="M71.1613 48.3822C71.1613 46.6766 69.7748 45.2939 68.0645 45.2939C66.3542 45.2939 64.9678 46.6766 64.9678 48.3822C64.9678 50.0878 66.3542 51.4704 68.0645 51.4704C69.7748 51.4704 71.1613 50.0878 71.1613 48.3822Z" fill="#EB5151"/>
<path d="M46.3871 58.6761C46.3871 56.9705 45.0006 55.5879 43.2903 55.5879C41.58 55.5879 40.1935 56.9705 40.1935 58.6761C40.1935 60.3817 41.58 61.7644 43.2903 61.7644C45.0006 61.7644 46.3871 60.3817 46.3871 58.6761Z" fill="white"/>
<path d="M54.6451 58.6761C54.6451 56.9705 53.2587 55.5879 51.5484 55.5879C49.8381 55.5879 48.4516 56.9705 48.4516 58.6761C48.4516 60.3817 49.8381 61.7644 51.5484 61.7644C53.2587 61.7644 54.6451 60.3817 54.6451 58.6761Z" fill="#D5EB74"/>
<path d="M93.8709 39.1172H83.5483C81.2679 39.1172 79.4193 40.9607 79.4193 43.2348V59.7054C79.4193 61.9795 81.2679 63.8231 83.5483 63.8231H93.8709C96.1513 63.8231 98 61.9795 98 59.7054V43.2348C98 40.9607 96.1513 39.1172 93.8709 39.1172Z" fill="url(#paint1_linear)"/>
<path d="M86.6451 40.1475V62.7945" stroke="#353F48" stroke-width="2"/>
<path d="M92.8387 46.3232V50.4409" stroke="white"/>
<path d="M52.5807 6.17676H62.9033" stroke="#C68400" stroke-linecap="round"/>
<path d="M42.2581 22.6475H62.9032" stroke="#FFB300" stroke-linecap="round"/>
<path d="M50.5161 14.4121H60.8387" stroke="#C68400" stroke-linecap="round"/>
<path d="M44.3226 6.17676H48.4516" stroke="#C68400" stroke-linecap="round"/>
<path d="M42.2581 14.4121H46.3871" stroke="#C68400" stroke-linecap="round"/>
</g>
<defs>
<filter id="filter0_d" x="30" y="0" width="72" height="78" filterUnits="userSpaceOnUse" color-interpolation-filters="sRGB">
<feFlood flood-opacity="0" result="BackgroundImageFix"/>
<feColorMatrix in="SourceAlpha" type="matrix" values="0 0 0 0 0 0 0 0 0 0 0 0 0 0 0 0 0 0 127 0"/>
<feOffset dy="4"/>
<feGaussianBlur stdDeviation="2"/>
<feColorMatrix type="matrix" values="0 0 0 0 0 0 0 0 0 0 0 0 0 0 0 0 0 0 0.25 0"/>
<feBlend mode="normal" in2="BackgroundImageFix" result="effect1_dropShadow"/>
<feBlend mode="normal" in="SourceGraphic" in2="effect1_dropShadow" result="shape"/>
</filter>
<linearGradient id="paint0_linear" x1="0" y1="30.7559" x2="129.167" y2="100.2" gradientUnits="userSpaceOnUse">
<stop stop-color="#D5EB74"/>
<stop offset="0.895833" stop-color="#9BDAF5"/>
</linearGradient>
<linearGradient id="paint1_linear" x1="98" y1="51.4701" x2="79.4193" y2="51.4701" gradientUnits="userSpaceOnUse">
<stop stop-color="#FFBD2D"/>
<stop offset="0.071" stop-color="#F9B92C"/>
<stop offset="1" stop-color="#FFE54C"/>
</linearGradient>
</defs>
</svg>
