<svg xmlns="http://www.w3.org/2000/svg" width="33" height="33" viewBox="0 0 33 33"><g transform="translate(10)"><rect width="20" height="30" rx="2" fill="#a9c145"/><path d="M1,0H15a3,3,0,0,1,3,3V27a3,3,0,0,1-3,3H1a1,1,0,0,1-1-1V1A1,1,0,0,1,1,0Z" fill="#d5eb74"/><rect width="13" height="4" rx="1" transform="translate(3 2)" fill="#84a70f"/><rect width="13" height="1" rx="0.5" transform="translate(3 8)" fill="#84a70f"/><rect width="13" height="1" rx="0.5" transform="translate(3 10)" fill="#84a70f"/><rect width="5" height="1" rx="0.5" transform="translate(11 12)" fill="#84a70f"/><rect width="5" height="1" rx="0.5" transform="translate(11 14)" fill="#84a70f"/><rect width="5" height="1" rx="0.5" transform="translate(11 16)" fill="#84a70f"/><rect width="13" height="1" rx="0.5" transform="translate(3 18)" fill="#84a70f"/><rect width="13" height="1" rx="0.5" transform="translate(3 20)" fill="#84a70f"/><rect width="8" height="1" rx="0.5" transform="translate(8 23)" fill="#84a70f"/><rect width="5" height="1" rx="0.5" transform="translate(11 25)" fill="#84a70f"/></g><g transform="translate(0 12)"><path d="M-147,84a2,2,0,0,1-2-2V65a2,2,0,0,1,2-2h8a3,3,0,0,1,3,3h18a2,2,0,0,1,2,2V82a2,2,0,0,1-2,2Z" transform="translate(149 -63)" fill="#ffbd2d"/><path d="M-147,84a2,2,0,0,1-2-2V65a2,2,0,0,1,2-2h8.818a3,3,0,0,1,3,3H-121a3,3,0,0,1,3,3V81a3,3,0,0,1-3,3Z" transform="translate(149 -63)" fill="#ffe54c"/><g transform="translate(21 8)"><rect width="2" height="7" rx="1" transform="translate(2.5)" fill="#eb5151"/><rect width="2" height="7" rx="1" transform="translate(7 2.5) rotate(90)" fill="#eb5151"/></g><line x2="6" transform="translate(3 2)" fill="none" stroke="#c68400" stroke-linecap="round" stroke-width="2"/><line x2="7" transform="translate(8 8)" fill="none" stroke="#c68400" stroke-linecap="round" stroke-width="1"/><line x2="7" transform="translate(8 10)" fill="none" stroke="#c68400" stroke-linecap="round" stroke-width="1"/></g></svg>