<svg width="130" height="100" viewBox="0 0 130 100" fill="none" xmlns="http://www.w3.org/2000/svg">
<rect x="6.10352e-05" y="30.5557" width="129.167" height="69.4445" rx="10" fill="url(#paint0_linear)" fill-opacity="0.5"/>
<path d="M12.3003 78.3359L16.2334 87.7476L20.1812 78.3359H21.3823V89H20.4814V84.3564L20.5547 79.5957L16.585 89H15.8892L11.9341 79.6323L12.0073 84.3271V89H11.1064V78.3359H12.3003ZM26.9487 89.1465C26.2749 89.1465 25.6646 88.9805 25.1177 88.6484C24.5757 88.3164 24.1533 87.855 23.8506 87.2642C23.5479 86.6685 23.3965 86.002 23.3965 85.2646V84.9497C23.3965 84.188 23.543 83.502 23.8359 82.8916C24.1338 82.2812 24.5464 81.8027 25.0737 81.4561C25.6011 81.1045 26.1724 80.9287 26.7876 80.9287C27.7495 80.9287 28.5112 81.2583 29.0728 81.9175C29.6392 82.5718 29.9224 83.4678 29.9224 84.6055V85.0962H24.2681V85.2646C24.2681 86.1631 24.5244 86.9126 25.0371 87.5132C25.5547 88.1089 26.2041 88.4067 26.9854 88.4067C27.4541 88.4067 27.8667 88.3213 28.2231 88.1504C28.5845 87.9795 28.9116 87.7061 29.2046 87.3301L29.7539 87.7476C29.1094 88.6802 28.1743 89.1465 26.9487 89.1465ZM26.7876 81.6758C26.1284 81.6758 25.5718 81.9175 25.1177 82.4009C24.6685 82.8843 24.395 83.5337 24.2974 84.3491H29.0508V84.2539C29.0264 83.4922 28.8091 82.8721 28.3989 82.3936C27.9888 81.915 27.4517 81.6758 26.7876 81.6758ZM31.2773 84.9644C31.2773 83.7339 31.5508 82.7549 32.0977 82.0273C32.6494 81.2949 33.3965 80.9287 34.3389 80.9287C35.4082 80.9287 36.2236 81.3511 36.7852 82.1958V77.75H37.6567V89H36.8364L36.7998 87.9453C36.2383 88.7461 35.4131 89.1465 34.3242 89.1465C33.4111 89.1465 32.6738 88.7803 32.1123 88.0479C31.5557 87.3105 31.2773 86.3169 31.2773 85.0669V84.9644ZM32.1636 85.1182C32.1636 86.1289 32.3662 86.9272 32.7715 87.5132C33.1768 88.0942 33.748 88.3848 34.4854 88.3848C35.5645 88.3848 36.3311 87.9087 36.7852 86.9565V83.2358C36.3311 82.2056 35.5693 81.6904 34.5 81.6904C33.7627 81.6904 33.189 81.981 32.7788 82.562C32.3687 83.1382 32.1636 83.9902 32.1636 85.1182ZM40.9453 89H40.0664V81.0752H40.9453V89ZM39.9126 78.7827C39.9126 78.6167 39.9663 78.4775 40.0737 78.3652C40.1812 78.248 40.3276 78.1895 40.5132 78.1895C40.6987 78.1895 40.8452 78.248 40.9526 78.3652C41.0649 78.4775 41.1211 78.6167 41.1211 78.7827C41.1211 78.9487 41.0649 79.0879 40.9526 79.2002C40.8452 79.3125 40.6987 79.3687 40.5132 79.3687C40.3276 79.3687 40.1812 79.3125 40.0737 79.2002C39.9663 79.0879 39.9126 78.9487 39.9126 78.7827ZM46.2627 88.4067C46.873 88.4067 47.3833 88.2358 47.7935 87.894C48.2085 87.5474 48.4331 87.1006 48.4673 86.5537H49.3096C49.2852 87.0371 49.1338 87.479 48.8555 87.8794C48.5771 88.2749 48.2061 88.585 47.7422 88.8096C47.2832 89.0342 46.79 89.1465 46.2627 89.1465C45.2227 89.1465 44.3975 88.7852 43.7871 88.0625C43.1816 87.3398 42.8789 86.3682 42.8789 85.1475V84.8838C42.8789 84.1025 43.0156 83.4116 43.2891 82.811C43.5625 82.2104 43.9531 81.7466 44.4609 81.4194C44.9736 81.0923 45.5718 80.9287 46.2554 80.9287C47.1245 80.9287 47.8398 81.1875 48.4014 81.7051C48.9678 82.2227 49.2705 82.9038 49.3096 83.7485H48.4673C48.4282 83.1284 48.2036 82.6279 47.7935 82.2471C47.3882 81.8662 46.8755 81.6758 46.2554 81.6758C45.4644 81.6758 44.8491 81.9614 44.4097 82.5327C43.9751 83.104 43.7578 83.9048 43.7578 84.9351V85.1914C43.7578 86.2021 43.9751 86.9907 44.4097 87.5571C44.8491 88.1235 45.4668 88.4067 46.2627 88.4067ZM56.0698 89C55.9819 88.751 55.9258 88.3823 55.9014 87.894C55.5938 88.2944 55.2007 88.6045 54.7222 88.8242C54.2485 89.0391 53.7456 89.1465 53.2134 89.1465C52.4517 89.1465 51.834 88.9341 51.3604 88.5093C50.8916 88.0845 50.6572 87.5474 50.6572 86.8979C50.6572 86.1265 50.9771 85.5161 51.6167 85.0669C52.2612 84.6177 53.1572 84.3931 54.3047 84.3931H55.894V83.4922C55.894 82.9258 55.7183 82.4814 55.3667 82.1592C55.02 81.832 54.5122 81.6685 53.8433 81.6685C53.2329 81.6685 52.7275 81.8247 52.3271 82.1372C51.9268 82.4497 51.7266 82.8257 51.7266 83.2651L50.8477 83.2578C50.8477 82.6279 51.1406 82.0835 51.7266 81.6245C52.3125 81.1606 53.0327 80.9287 53.8872 80.9287C54.771 80.9287 55.4668 81.1509 55.9746 81.5952C56.4873 82.0347 56.751 82.6499 56.7656 83.4409V87.1909C56.7656 87.9575 56.8462 88.5312 57.0073 88.9121V89H56.0698ZM53.3159 88.3701C53.9019 88.3701 54.4243 88.2285 54.8833 87.9453C55.3472 87.6621 55.6841 87.2837 55.894 86.8101V85.0669H54.3267C53.4526 85.0767 52.769 85.2378 52.2759 85.5503C51.7827 85.8579 51.5361 86.2827 51.5361 86.8247C51.5361 87.269 51.6997 87.6377 52.0269 87.9307C52.3589 88.2236 52.7886 88.3701 53.3159 88.3701ZM60.0908 89H59.2119V77.75H60.0908V89ZM70.3154 84.5615H67.2173V89H66.3091V78.3359H69.7734C70.9111 78.3359 71.7998 78.6118 72.4395 79.1636C73.0791 79.7153 73.3989 80.4868 73.3989 81.478C73.3989 82.1616 73.1987 82.7646 72.7983 83.2871C72.3979 83.8096 71.8608 84.1709 71.187 84.3711L73.853 88.9048V89H72.8936L70.3154 84.5615ZM67.2173 83.7925H69.9785C70.7354 83.7925 71.3433 83.5776 71.8022 83.1479C72.2612 82.7183 72.4907 82.1616 72.4907 81.478C72.4907 80.7261 72.2515 80.1426 71.7729 79.7275C71.2944 79.3125 70.623 79.105 69.7588 79.105H67.2173V83.7925ZM78.7163 89.1465C78.0425 89.1465 77.4321 88.9805 76.8853 88.6484C76.3433 88.3164 75.9209 87.855 75.6182 87.2642C75.3154 86.6685 75.1641 86.002 75.1641 85.2646V84.9497C75.1641 84.188 75.3105 83.502 75.6035 82.8916C75.9014 82.2812 76.314 81.8027 76.8413 81.4561C77.3687 81.1045 77.9399 80.9287 78.5552 80.9287C79.5171 80.9287 80.2788 81.2583 80.8403 81.9175C81.4067 82.5718 81.6899 83.4678 81.6899 84.6055V85.0962H76.0356V85.2646C76.0356 86.1631 76.292 86.9126 76.8047 87.5132C77.3223 88.1089 77.9717 88.4067 78.7529 88.4067C79.2217 88.4067 79.6343 88.3213 79.9907 88.1504C80.3521 87.9795 80.6792 87.7061 80.9722 87.3301L81.5215 87.7476C80.877 88.6802 79.9419 89.1465 78.7163 89.1465ZM78.5552 81.6758C77.896 81.6758 77.3394 81.9175 76.8853 82.4009C76.436 82.8843 76.1626 83.5337 76.0649 84.3491H80.8184V84.2539C80.7939 83.4922 80.5767 82.8721 80.1665 82.3936C79.7563 81.915 79.2192 81.6758 78.5552 81.6758ZM86.3262 88.4067C86.9365 88.4067 87.4468 88.2358 87.8569 87.894C88.272 87.5474 88.4966 87.1006 88.5308 86.5537H89.373C89.3486 87.0371 89.1973 87.479 88.9189 87.8794C88.6406 88.2749 88.2695 88.585 87.8057 88.8096C87.3467 89.0342 86.8535 89.1465 86.3262 89.1465C85.2861 89.1465 84.4609 88.7852 83.8506 88.0625C83.2451 87.3398 82.9424 86.3682 82.9424 85.1475V84.8838C82.9424 84.1025 83.0791 83.4116 83.3525 82.811C83.626 82.2104 84.0166 81.7466 84.5244 81.4194C85.0371 81.0923 85.6353 80.9287 86.3188 80.9287C87.188 80.9287 87.9033 81.1875 88.4648 81.7051C89.0312 82.2227 89.334 82.9038 89.373 83.7485H88.5308C88.4917 83.1284 88.2671 82.6279 87.8569 82.2471C87.4517 81.8662 86.939 81.6758 86.3188 81.6758C85.5278 81.6758 84.9126 81.9614 84.4731 82.5327C84.0386 83.104 83.8213 83.9048 83.8213 84.9351V85.1914C83.8213 86.2021 84.0386 86.9907 84.4731 87.5571C84.9126 88.1235 85.5303 88.4067 86.3262 88.4067ZM90.6475 84.9204C90.6475 84.1587 90.7939 83.4727 91.0869 82.8623C91.3848 82.252 91.8022 81.7783 92.3394 81.4414C92.8813 81.0996 93.4941 80.9287 94.1777 80.9287C95.2324 80.9287 96.0869 81.2998 96.7412 82.042C97.3955 82.7793 97.7227 83.7583 97.7227 84.979V85.1621C97.7227 85.9287 97.5737 86.6196 97.2759 87.2349C96.9829 87.8452 96.5679 88.3164 96.0308 88.6484C95.4937 88.9805 94.8809 89.1465 94.1924 89.1465C93.1426 89.1465 92.2881 88.7778 91.6289 88.0405C90.9746 87.2983 90.6475 86.3169 90.6475 85.0962V84.9204ZM91.5264 85.1621C91.5264 86.1094 91.7705 86.8882 92.2588 87.4985C92.752 88.104 93.3965 88.4067 94.1924 88.4067C94.9834 88.4067 95.623 88.104 96.1113 87.4985C96.6045 86.8882 96.8511 86.085 96.8511 85.0889V84.9204C96.8511 84.3149 96.7388 83.7607 96.5142 83.2578C96.2896 82.7549 95.9746 82.3667 95.5693 82.0933C95.1641 81.8149 94.7002 81.6758 94.1777 81.6758C93.3965 81.6758 92.7593 81.9834 92.2661 82.5986C91.7729 83.209 91.5264 84.0098 91.5264 85.001V85.1621ZM103.201 81.8223C103.016 81.7881 102.818 81.771 102.608 81.771C102.061 81.771 101.597 81.9248 101.216 82.2324C100.84 82.5352 100.572 82.9771 100.411 83.5581V89H99.5391V81.0752H100.396L100.411 82.335C100.875 81.3975 101.619 80.9287 102.645 80.9287C102.889 80.9287 103.082 80.9604 103.223 81.0239L103.201 81.8223ZM104.095 84.9644C104.095 83.7339 104.368 82.7549 104.915 82.0273C105.467 81.2949 106.214 80.9287 107.156 80.9287C108.226 80.9287 109.041 81.3511 109.603 82.1958V77.75H110.474V89H109.654L109.617 87.9453C109.056 88.7461 108.23 89.1465 107.142 89.1465C106.229 89.1465 105.491 88.7803 104.93 88.0479C104.373 87.3105 104.095 86.3169 104.095 85.0669V84.9644ZM104.981 85.1182C104.981 86.1289 105.184 86.9272 105.589 87.5132C105.994 88.0942 106.565 88.3848 107.303 88.3848C108.382 88.3848 109.148 87.9087 109.603 86.9565V83.2358C109.148 82.2056 108.387 81.6904 107.317 81.6904C106.58 81.6904 106.006 81.981 105.596 82.562C105.186 83.1382 104.981 83.9902 104.981 85.1182ZM117.527 86.9858C117.527 86.5513 117.352 86.2021 117 85.9385C116.653 85.6748 116.128 85.4697 115.425 85.3232C114.722 85.1719 114.175 85.001 113.785 84.8105C113.399 84.6152 113.111 84.3784 112.92 84.1001C112.735 83.8218 112.642 83.4849 112.642 83.0894C112.642 82.4644 112.903 81.9492 113.426 81.5439C113.948 81.1338 114.617 80.9287 115.433 80.9287C116.316 80.9287 117.024 81.1484 117.557 81.5879C118.094 82.0225 118.362 82.5913 118.362 83.2944H117.483C117.483 82.8306 117.288 82.4448 116.897 82.1372C116.512 81.8296 116.023 81.6758 115.433 81.6758C114.856 81.6758 114.393 81.8052 114.041 82.064C113.694 82.3179 113.521 82.6499 113.521 83.0601C113.521 83.4556 113.665 83.7632 113.953 83.9829C114.246 84.1978 114.776 84.3955 115.542 84.5762C116.314 84.7568 116.89 84.9497 117.271 85.1548C117.657 85.3599 117.942 85.6064 118.128 85.8945C118.313 86.1826 118.406 86.5317 118.406 86.9419C118.406 87.6108 118.135 88.1455 117.593 88.5459C117.056 88.9463 116.353 89.1465 115.484 89.1465C114.561 89.1465 113.812 88.9243 113.235 88.48C112.664 88.0308 112.378 87.4644 112.378 86.7808H113.257C113.292 87.2935 113.506 87.6938 113.902 87.9819C114.302 88.2651 114.83 88.4067 115.484 88.4067C116.094 88.4067 116.587 88.2725 116.963 88.0039C117.339 87.7354 117.527 87.396 117.527 86.9858Z" fill="black"/>
<g clip-path="url(#clip0)" filter="url(#filter0_d)">
<path d="M88.5892 0H54.9191C52.5947 0 50.7103 1.88433 50.7103 4.20876V58.9226C50.7103 61.2471 52.5947 63.1314 54.9191 63.1314H88.5892C90.9136 63.1314 92.7979 61.2471 92.7979 58.9226V4.20876C92.7979 1.88433 90.9136 0 88.5892 0Z" fill="#A9C145"/>
<path d="M52.8147 0H82.276C83.9504 0 85.5561 0.665132 86.7401 1.84908C87.924 3.03302 88.5891 4.63879 88.5891 6.31314V56.8182C88.5891 58.4926 87.924 60.0984 86.7401 61.2823C85.5561 62.4663 83.9504 63.1314 82.276 63.1314H52.8147C52.2566 63.1314 51.7213 62.9097 51.3267 62.515C50.932 62.1204 50.7103 61.5851 50.7103 61.027V2.10438C50.7103 1.54626 50.932 1.01101 51.3267 0.616358C51.7213 0.221711 52.2566 0 52.8147 0V0Z" fill="#D5EB74"/>
<path d="M82.276 4.20898H59.1278C57.9656 4.20898 57.0234 5.15115 57.0234 6.31336V10.5221C57.0234 11.6843 57.9656 12.6265 59.1278 12.6265H82.276C83.4382 12.6265 84.3804 11.6843 84.3804 10.5221V6.31336C84.3804 5.15115 83.4382 4.20898 82.276 4.20898Z" fill="#84A70F"/>
<path d="M83.3282 16.835H58.0756C57.4945 16.835 57.0234 17.306 57.0234 17.8872C57.0234 18.4683 57.4945 18.9393 58.0756 18.9393H83.3282C83.9093 18.9393 84.3804 18.4683 84.3804 17.8872C84.3804 17.306 83.9093 16.835 83.3282 16.835Z" fill="#84A70F"/>
<path d="M83.3282 21.0439H58.0756C57.4945 21.0439 57.0234 21.515 57.0234 22.0961C57.0234 22.6772 57.4945 23.1483 58.0756 23.1483H83.3282C83.9093 23.1483 84.3804 22.6772 84.3804 22.0961C84.3804 21.515 83.9093 21.0439 83.3282 21.0439Z" fill="#84A70F"/>
<path d="M83.3282 25.2529H74.9107C74.3295 25.2529 73.8585 25.724 73.8585 26.3051C73.8585 26.8862 74.3295 27.3573 74.9107 27.3573H83.3282C83.9093 27.3573 84.3804 26.8862 84.3804 26.3051C84.3804 25.724 83.9093 25.2529 83.3282 25.2529Z" fill="#84A70F"/>
<path d="M83.3282 29.4609H74.9107C74.3295 29.4609 73.8585 29.932 73.8585 30.5131C73.8585 31.0942 74.3295 31.5653 74.9107 31.5653H83.3282C83.9093 31.5653 84.3804 31.0942 84.3804 30.5131C84.3804 29.932 83.9093 29.4609 83.3282 29.4609Z" fill="#84A70F"/>
<path d="M83.3282 33.6699H74.9107C74.3295 33.6699 73.8585 34.141 73.8585 34.7221C73.8585 35.3032 74.3295 35.7743 74.9107 35.7743H83.3282C83.9093 35.7743 84.3804 35.3032 84.3804 34.7221C84.3804 34.141 83.9093 33.6699 83.3282 33.6699Z" fill="#84A70F"/>
<path d="M83.3282 37.8789H58.0756C57.4945 37.8789 57.0234 38.35 57.0234 38.9311C57.0234 39.5122 57.4945 39.9833 58.0756 39.9833H83.3282C83.9093 39.9833 84.3804 39.5122 84.3804 38.9311C84.3804 38.35 83.9093 37.8789 83.3282 37.8789Z" fill="#84A70F"/>
<path d="M83.3282 42.0879H58.0756C57.4945 42.0879 57.0234 42.559 57.0234 43.1401C57.0234 43.7212 57.4945 44.1923 58.0756 44.1923H83.3282C83.9093 44.1923 84.3804 43.7212 84.3804 43.1401C84.3804 42.559 83.9093 42.0879 83.3282 42.0879Z" fill="#84A70F"/>
<path d="M83.3282 48.4004H68.5975C68.0164 48.4004 67.5453 48.8715 67.5453 49.4526C67.5453 50.0337 68.0164 50.5048 68.5975 50.5048H83.3282C83.9093 50.5048 84.3804 50.0337 84.3804 49.4526C84.3804 48.8715 83.9093 48.4004 83.3282 48.4004Z" fill="#84A70F"/>
<path d="M83.3282 52.6094H74.9107C74.3295 52.6094 73.8585 53.0805 73.8585 53.6616C73.8585 54.2427 74.3295 54.7138 74.9107 54.7138H83.3282C83.9093 54.7138 84.3804 54.2427 84.3804 53.6616C84.3804 53.0805 83.9093 52.6094 83.3282 52.6094Z" fill="#84A70F"/>
<path d="M33.8753 69.4449C32.759 69.4449 31.6885 69.0015 30.8992 68.2122C30.1099 67.4229 29.6665 66.3524 29.6665 65.2362V29.4617C29.6665 28.3455 30.1099 27.2749 30.8992 26.4856C31.6885 25.6963 32.759 25.2529 33.8753 25.2529H50.7103C52.3846 25.2529 53.9904 25.9181 55.1744 27.102C56.3583 28.286 57.0234 29.8917 57.0234 31.5661H94.9023C96.0185 31.5661 97.089 32.0095 97.8783 32.7988C98.6676 33.5881 99.111 34.6586 99.111 35.7748V65.2362C99.111 66.3524 98.6676 67.4229 97.8783 68.2122C97.089 69.0015 96.0185 69.4449 94.9023 69.4449H33.8753Z" fill="#FFBD2D"/>
<path d="M33.8753 69.4449C32.759 69.4449 31.6885 69.0015 30.8992 68.2122C30.1099 67.4229 29.6665 66.3524 29.6665 65.2362V29.4617C29.6665 28.3455 30.1099 27.2749 30.8992 26.4856C31.6885 25.6963 32.759 25.2529 33.8753 25.2529H52.4317C54.106 25.2529 55.7118 25.9181 56.8957 27.102C58.0797 28.286 58.7448 29.8917 58.7448 31.5661H88.5891C90.2635 31.5661 91.8693 32.2312 93.0532 33.4151C94.2371 34.5991 94.9023 36.2049 94.9023 37.8792V63.1318C94.9023 64.8061 94.2371 66.4119 93.0532 67.5958C91.8693 68.7798 90.2635 69.4449 88.5891 69.4449H33.8753Z" fill="#FFE54C"/>
<path d="M83.3282 44.1923C83.3282 43.0301 82.386 42.0879 81.2238 42.0879C80.0616 42.0879 79.1194 43.0301 79.1194 44.1923V54.7142C79.1194 55.8764 80.0616 56.8185 81.2238 56.8185C82.386 56.8185 83.3282 55.8764 83.3282 54.7142V44.1923Z" fill="#EB5151"/>
<path d="M86.4848 51.5574C87.647 51.5574 88.5892 50.6152 88.5892 49.453C88.5892 48.2908 87.647 47.3486 86.4848 47.3486H75.9629C74.8007 47.3486 73.8585 48.2908 73.8585 49.453C73.8585 50.6152 74.8007 51.5574 75.9629 51.5574H86.4848Z" fill="#EB5151"/>
<path d="M35.9796 29.4619H48.6059" stroke="#C68400" stroke-width="2" stroke-linecap="round"/>
<path d="M46.5015 42.0879H61.2322" stroke="#C68400" stroke-linecap="round"/>
<path d="M46.5015 46.2969H61.2322" stroke="#C68400" stroke-linecap="round"/>
</g>
<defs>
<filter id="filter0_d" x="25.6665" y="0" width="77.4445" height="77.4445" filterUnits="userSpaceOnUse" color-interpolation-filters="sRGB">
<feFlood flood-opacity="0" result="BackgroundImageFix"/>
<feColorMatrix in="SourceAlpha" type="matrix" values="0 0 0 0 0 0 0 0 0 0 0 0 0 0 0 0 0 0 127 0"/>
<feOffset dy="4"/>
<feGaussianBlur stdDeviation="2"/>
<feColorMatrix type="matrix" values="0 0 0 0 0 0 0 0 0 0 0 0 0 0 0 0 0 0 0.25 0"/>
<feBlend mode="normal" in2="BackgroundImageFix" result="effect1_dropShadow"/>
<feBlend mode="normal" in="SourceGraphic" in2="effect1_dropShadow" result="shape"/>
</filter>
<linearGradient id="paint0_linear" x1="129.167" y1="100" x2="5.60508e-05" y2="30.5557" gradientUnits="userSpaceOnUse">
<stop stop-color="#15F0F8"/>
<stop offset="0.817708" stop-color="#BEFFAE"/>
</linearGradient>
<clipPath id="clip0">
<rect width="69.4445" height="69.4445" fill="white" transform="translate(29.6665)"/>
</clipPath>
</defs>
</svg>
