<svg width="99" height="123" viewBox="0 0 99 123" fill="none" xmlns="http://www.w3.org/2000/svg">
<rect x="0.5" y="0.5" width="98" height="122" rx="3.5" fill="#F5F5F5" stroke="#DCDCDC"/>
<line x1="20.5" y1="48.5" x2="51.5" y2="48.5" stroke="#C4C4C4" stroke-width="5" stroke-linecap="round"/>
<line x1="20.5" y1="61.5" x2="51.5" y2="61.5" stroke="#C4C4C4" stroke-width="5" stroke-linecap="round"/>
<line x1="20.5" y1="76.5" x2="81.5" y2="76.5" stroke="#DFDFDF" stroke-width="5" stroke-linecap="round"/>
<line x1="20.5" y1="89.5" x2="81.5" y2="89.5" stroke="#DFDFDF" stroke-width="5" stroke-linecap="round"/>
<line x1="20.5" y1="102.5" x2="81.5" y2="102.5" stroke="#DFDFDF" stroke-width="5" stroke-linecap="round"/>
<rect x="12" y="15" width="52" height="20" rx="5" fill="#E13426"/>
<path d="M23.9979 26.2686V31H22.4042V18.9141H26.8617C28.1843 18.9141 29.2191 19.2516 29.9662 19.9268C30.7188 20.6019 31.0951 21.4956 31.0951 22.6079C31.0951 23.7811 30.7271 24.6859 29.9911 25.3223C29.2606 25.9531 28.2119 26.2686 26.8451 26.2686H23.9979ZM23.9979 24.9653H26.8617C27.7139 24.9653 28.3669 24.7661 28.8207 24.3677C29.2744 23.9637 29.5013 23.3826 29.5013 22.6245C29.5013 21.9051 29.2744 21.3296 28.8207 20.8979C28.3669 20.4663 27.7443 20.2422 26.953 20.2256H23.9979V24.9653ZM34.4888 31V18.9141H37.9004C38.9518 18.9141 39.8815 19.1465 40.6895 19.6113C41.4974 20.0762 42.12 20.7375 42.5571 21.5952C42.9998 22.453 43.224 23.438 43.2295 24.5503V25.3223C43.2295 26.4622 43.0081 27.4611 42.5654 28.3188C42.1283 29.1766 41.5002 29.8351 40.6812 30.2944C39.8677 30.7537 38.9186 30.9889 37.834 31H34.4888ZM36.0825 20.2256V29.6968H37.7593C38.9878 29.6968 39.9424 29.3149 40.623 28.5513C41.3092 27.7876 41.6523 26.7002 41.6523 25.2891V24.5835C41.6523 23.2111 41.3286 22.1458 40.6812 21.3877C40.0392 20.624 39.1261 20.2367 37.9419 20.2256H36.0825ZM53.6705 25.6626H48.5988V31H47.005V18.9141H54.4923V20.2256H48.5988V24.3594H53.6705V25.6626Z" fill="white"/>
</svg>
