<svg width="130" height="100" viewBox="0 0 130 100" fill="none" xmlns="http://www.w3.org/2000/svg">
<rect x="-3.05176e-05" y="30.5557" width="129.167" height="69.4445" rx="10" fill="url(#paint0_linear)" fill-opacity="0.7"/>
<path d="M23.5356 84.6567V89H22.6348V78.3359H26.2676C27.376 78.3359 28.25 78.6191 28.8896 79.1855C29.5342 79.752 29.8564 80.5308 29.8564 81.522C29.8564 82.5229 29.5464 83.2969 28.9263 83.8438C28.311 84.3857 27.4175 84.6567 26.2456 84.6567H23.5356ZM23.5356 83.895H26.2676C27.1416 83.895 27.8081 83.6875 28.2671 83.2725C28.7261 82.8574 28.9556 82.2788 28.9556 81.5366C28.9556 80.7993 28.7261 80.2134 28.2671 79.7788C27.813 79.3394 27.166 79.1147 26.3262 79.105H23.5356V83.895ZM35.335 81.8223C35.1494 81.7881 34.9517 81.771 34.7417 81.771C34.1948 81.771 33.731 81.9248 33.3501 82.2324C32.9741 82.5352 32.7056 82.9771 32.5444 83.5581V89H31.6729V81.0752H32.5298L32.5444 82.335C33.0083 81.3975 33.7529 80.9287 34.7783 80.9287C35.0225 80.9287 35.2153 80.9604 35.3569 81.0239L35.335 81.8223ZM39.6489 89.1465C38.9751 89.1465 38.3647 88.9805 37.8179 88.6484C37.2759 88.3164 36.8535 87.855 36.5508 87.2642C36.248 86.6685 36.0967 86.002 36.0967 85.2646V84.9497C36.0967 84.188 36.2432 83.502 36.5361 82.8916C36.834 82.2812 37.2466 81.8027 37.7739 81.4561C38.3013 81.1045 38.8726 80.9287 39.4878 80.9287C40.4497 80.9287 41.2114 81.2583 41.7729 81.9175C42.3394 82.5718 42.6226 83.4678 42.6226 84.6055V85.0962H36.9683V85.2646C36.9683 86.1631 37.2246 86.9126 37.7373 87.5132C38.2549 88.1089 38.9043 88.4067 39.6855 88.4067C40.1543 88.4067 40.5669 88.3213 40.9233 88.1504C41.2847 87.9795 41.6118 87.7061 41.9048 87.3301L42.4541 87.7476C41.8096 88.6802 40.8745 89.1465 39.6489 89.1465ZM39.4878 81.6758C38.8286 81.6758 38.272 81.9175 37.8179 82.4009C37.3687 82.8843 37.0952 83.5337 36.9976 84.3491H41.751V84.2539C41.7266 83.4922 41.5093 82.8721 41.0991 82.3936C40.689 81.915 40.1519 81.6758 39.4878 81.6758ZM49.0752 86.9858C49.0752 86.5513 48.8994 86.2021 48.5479 85.9385C48.2012 85.6748 47.6763 85.4697 46.9731 85.3232C46.27 85.1719 45.7231 85.001 45.3325 84.8105C44.9468 84.6152 44.6587 84.3784 44.4683 84.1001C44.2827 83.8218 44.1899 83.4849 44.1899 83.0894C44.1899 82.4644 44.4512 81.9492 44.9736 81.5439C45.4961 81.1338 46.165 80.9287 46.9805 80.9287C47.8643 80.9287 48.5723 81.1484 49.1045 81.5879C49.6416 82.0225 49.9102 82.5913 49.9102 83.2944H49.0312C49.0312 82.8306 48.8359 82.4448 48.4453 82.1372C48.0596 81.8296 47.5713 81.6758 46.9805 81.6758C46.4043 81.6758 45.9404 81.8052 45.5889 82.064C45.2422 82.3179 45.0688 82.6499 45.0688 83.0601C45.0688 83.4556 45.2129 83.7632 45.501 83.9829C45.7939 84.1978 46.3237 84.3955 47.0903 84.5762C47.8618 84.7568 48.438 84.9497 48.8188 85.1548C49.2046 85.3599 49.4902 85.6064 49.6758 85.8945C49.8613 86.1826 49.9541 86.5317 49.9541 86.9419C49.9541 87.6108 49.6831 88.1455 49.1411 88.5459C48.604 88.9463 47.9009 89.1465 47.0317 89.1465C46.1089 89.1465 45.3594 88.9243 44.7832 88.48C44.2119 88.0308 43.9263 87.4644 43.9263 86.7808H44.8052C44.8394 87.2935 45.0542 87.6938 45.4497 87.9819C45.8501 88.2651 46.3774 88.4067 47.0317 88.4067C47.6421 88.4067 48.1353 88.2725 48.5112 88.0039C48.8872 87.7354 49.0752 87.396 49.0752 86.9858ZM54.8613 88.4067C55.4717 88.4067 55.9819 88.2358 56.3921 87.894C56.8071 87.5474 57.0317 87.1006 57.0659 86.5537H57.9082C57.8838 87.0371 57.7324 87.479 57.4541 87.8794C57.1758 88.2749 56.8047 88.585 56.3408 88.8096C55.8818 89.0342 55.3887 89.1465 54.8613 89.1465C53.8213 89.1465 52.9961 88.7852 52.3857 88.0625C51.7803 87.3398 51.4775 86.3682 51.4775 85.1475V84.8838C51.4775 84.1025 51.6143 83.4116 51.8877 82.811C52.1611 82.2104 52.5518 81.7466 53.0596 81.4194C53.5723 81.0923 54.1704 80.9287 54.854 80.9287C55.7231 80.9287 56.4385 81.1875 57 81.7051C57.5664 82.2227 57.8691 82.9038 57.9082 83.7485H57.0659C57.0269 83.1284 56.8022 82.6279 56.3921 82.2471C55.9868 81.8662 55.4741 81.6758 54.854 81.6758C54.063 81.6758 53.4478 81.9614 53.0083 82.5327C52.5737 83.104 52.3564 83.9048 52.3564 84.9351V85.1914C52.3564 86.2021 52.5737 86.9907 53.0083 87.5571C53.4478 88.1235 54.0654 88.4067 54.8613 88.4067ZM63.3281 81.8223C63.1426 81.7881 62.9448 81.771 62.7349 81.771C62.188 81.771 61.7241 81.9248 61.3433 82.2324C60.9673 82.5352 60.6987 82.9771 60.5376 83.5581V89H59.666V81.0752H60.5229L60.5376 82.335C61.0015 81.3975 61.7461 80.9287 62.7715 80.9287C63.0156 80.9287 63.2085 80.9604 63.3501 81.0239L63.3281 81.8223ZM65.7012 89H64.8223V81.0752H65.7012V89ZM64.6685 78.7827C64.6685 78.6167 64.7222 78.4775 64.8296 78.3652C64.937 78.248 65.0835 78.1895 65.269 78.1895C65.4546 78.1895 65.6011 78.248 65.7085 78.3652C65.8208 78.4775 65.877 78.6167 65.877 78.7827C65.877 78.9487 65.8208 79.0879 65.7085 79.2002C65.6011 79.3125 65.4546 79.3687 65.269 79.3687C65.0835 79.3687 64.937 79.3125 64.8296 79.2002C64.7222 79.0879 64.6685 78.9487 64.6685 78.7827ZM74.4609 85.1182C74.4609 86.3535 74.1875 87.335 73.6406 88.0625C73.0938 88.7852 72.3613 89.1465 71.4434 89.1465C70.3594 89.1465 69.5293 88.7656 68.9531 88.0039V92.0469H68.0815V81.0752H68.8945L68.9385 82.1958C69.5098 81.3511 70.3374 80.9287 71.4214 80.9287C72.3687 80.9287 73.1108 81.2876 73.6479 82.0054C74.1899 82.7231 74.4609 83.7192 74.4609 84.9937V85.1182ZM73.582 84.9644C73.582 83.9536 73.3745 83.1553 72.9595 82.5693C72.5444 81.9834 71.9658 81.6904 71.2236 81.6904C70.6865 81.6904 70.2251 81.8198 69.8394 82.0786C69.4536 82.3374 69.1582 82.7134 68.9531 83.2065V87.0078C69.1631 87.4619 69.4634 87.8086 69.854 88.0479C70.2446 88.2871 70.7061 88.4067 71.2383 88.4067C71.9756 88.4067 72.5493 88.1138 72.9595 87.5278C73.3745 86.937 73.582 86.0825 73.582 84.9644ZM77.7715 79.0464V81.0752H79.4121V81.793H77.7715V87.0737C77.7715 87.5132 77.8496 87.8403 78.0059 88.0552C78.167 88.27 78.4331 88.3774 78.8042 88.3774C78.9507 88.3774 79.1875 88.353 79.5146 88.3042L79.5513 89.022C79.3218 89.105 79.0093 89.1465 78.6138 89.1465C78.0132 89.1465 77.5762 88.9731 77.3027 88.6265C77.0293 88.2749 76.8926 87.7598 76.8926 87.0811V81.793H75.4351V81.0752H76.8926V79.0464H77.7715ZM82.21 89H81.3311V81.0752H82.21V89ZM81.1772 78.7827C81.1772 78.6167 81.231 78.4775 81.3384 78.3652C81.4458 78.248 81.5923 78.1895 81.7778 78.1895C81.9634 78.1895 82.1099 78.248 82.2173 78.3652C82.3296 78.4775 82.3857 78.6167 82.3857 78.7827C82.3857 78.9487 82.3296 79.0879 82.2173 79.2002C82.1099 79.3125 81.9634 79.3687 81.7778 79.3687C81.5923 79.3687 81.4458 79.3125 81.3384 79.2002C81.231 79.0879 81.1772 78.9487 81.1772 78.7827ZM84.1143 84.9204C84.1143 84.1587 84.2607 83.4727 84.5537 82.8623C84.8516 82.252 85.269 81.7783 85.8062 81.4414C86.3481 81.0996 86.9609 80.9287 87.6445 80.9287C88.6992 80.9287 89.5537 81.2998 90.208 82.042C90.8623 82.7793 91.1895 83.7583 91.1895 84.979V85.1621C91.1895 85.9287 91.0405 86.6196 90.7427 87.2349C90.4497 87.8452 90.0347 88.3164 89.4976 88.6484C88.9604 88.9805 88.3477 89.1465 87.6592 89.1465C86.6094 89.1465 85.7549 88.7778 85.0957 88.0405C84.4414 87.2983 84.1143 86.3169 84.1143 85.0962V84.9204ZM84.9932 85.1621C84.9932 86.1094 85.2373 86.8882 85.7256 87.4985C86.2188 88.104 86.8633 88.4067 87.6592 88.4067C88.4502 88.4067 89.0898 88.104 89.5781 87.4985C90.0713 86.8882 90.3179 86.085 90.3179 85.0889V84.9204C90.3179 84.3149 90.2056 83.7607 89.981 83.2578C89.7563 82.7549 89.4414 82.3667 89.0361 82.0933C88.6309 81.8149 88.167 81.6758 87.6445 81.6758C86.8633 81.6758 86.2261 81.9834 85.7329 82.5986C85.2397 83.209 84.9932 84.0098 84.9932 85.001V85.1621ZM93.8408 81.0752L93.8701 82.4302C94.168 81.9419 94.5391 81.5708 94.9834 81.3169C95.4277 81.0581 95.9185 80.9287 96.4556 80.9287C97.3052 80.9287 97.9375 81.168 98.3525 81.6465C98.7676 82.125 98.9775 82.8428 98.9824 83.7998V89H98.1108V83.7925C98.106 83.0845 97.9546 82.5571 97.6567 82.2104C97.3638 81.8638 96.8926 81.6904 96.2432 81.6904C95.7012 81.6904 95.2202 81.8613 94.8003 82.2031C94.3853 82.54 94.0776 82.9966 93.8774 83.5728V89H93.0059V81.0752H93.8408ZM105.999 86.9858C105.999 86.5513 105.823 86.2021 105.472 85.9385C105.125 85.6748 104.6 85.4697 103.897 85.3232C103.194 85.1719 102.647 85.001 102.256 84.8105C101.871 84.6152 101.583 84.3784 101.392 84.1001C101.207 83.8218 101.114 83.4849 101.114 83.0894C101.114 82.4644 101.375 81.9492 101.897 81.5439C102.42 81.1338 103.089 80.9287 103.904 80.9287C104.788 80.9287 105.496 81.1484 106.028 81.5879C106.565 82.0225 106.834 82.5913 106.834 83.2944H105.955C105.955 82.8306 105.76 82.4448 105.369 82.1372C104.983 81.8296 104.495 81.6758 103.904 81.6758C103.328 81.6758 102.864 81.8052 102.513 82.064C102.166 82.3179 101.993 82.6499 101.993 83.0601C101.993 83.4556 102.137 83.7632 102.425 83.9829C102.718 84.1978 103.248 84.3955 104.014 84.5762C104.786 84.7568 105.362 84.9497 105.743 85.1548C106.128 85.3599 106.414 85.6064 106.6 85.8945C106.785 86.1826 106.878 86.5317 106.878 86.9419C106.878 87.6108 106.607 88.1455 106.065 88.5459C105.528 88.9463 104.825 89.1465 103.956 89.1465C103.033 89.1465 102.283 88.9243 101.707 88.48C101.136 88.0308 100.85 87.4644 100.85 86.7808H101.729C101.763 87.2935 101.978 87.6938 102.374 87.9819C102.774 88.2651 103.301 88.4067 103.956 88.4067C104.566 88.4067 105.059 88.2725 105.435 88.0039C105.811 87.7354 105.999 87.396 105.999 86.9858Z" fill="black"/>
<g clip-path="url(#clip0)" filter="url(#filter0_d)">
<path d="M69.4846 1.92871H34.7623C33.697 1.92871 32.8333 2.79236 32.8333 3.85773V57.8701C32.8333 58.9355 33.697 59.7991 34.7623 59.7991H69.4846C70.55 59.7991 71.4136 58.9355 71.4136 57.8701V3.85773C71.4136 2.79236 70.55 1.92871 69.4846 1.92871Z" fill="#D5EB74"/>
<path d="M40.8955 11.3809L40.5977 10.9707C40.4674 10.7949 40.3486 10.6436 40.2412 10.5166C40.1338 10.3864 40.0215 10.2806 39.9043 10.1992C39.7904 10.1146 39.6667 10.0527 39.5332 10.0137C39.3997 9.97135 39.2419 9.9502 39.0596 9.9502H38.4297V12.9287H37.6094V5.92676H39.6992C40.002 5.92676 40.2835 5.96582 40.5439 6.04395C40.8044 6.12207 41.029 6.23926 41.2178 6.39551C41.4098 6.5485 41.5596 6.74219 41.667 6.97656C41.7777 7.20768 41.833 7.47786 41.833 7.78711C41.833 8.03125 41.7956 8.25586 41.7207 8.46094C41.6491 8.66276 41.5449 8.84505 41.4082 9.00781C41.2715 9.16732 41.1071 9.30404 40.915 9.41797C40.723 9.5319 40.5081 9.61816 40.2705 9.67676V9.69629C40.4658 9.78092 40.6481 9.91276 40.8174 10.0918C40.9899 10.2676 41.1738 10.4873 41.3691 10.751L42.1504 9.70117H42.9658L41.7744 11.3027L42.9658 12.9287H42.0381L41.3057 11.9326L40.5635 12.9287H39.7432L40.8955 11.3809ZM38.4297 6.66895V9.20801H39.543C39.748 9.20801 39.9368 9.17708 40.1094 9.11523C40.2852 9.05339 40.4365 8.96549 40.5635 8.85156C40.6937 8.73438 40.7946 8.59277 40.8662 8.42676C40.9378 8.26074 40.9736 8.07194 40.9736 7.86035C40.9736 7.48275 40.8516 7.18978 40.6074 6.98145C40.3665 6.77311 40.015 6.66895 39.5527 6.66895H38.4297Z" fill="#84A70F"/>
<path d="M47.3009 26.042H62.733" stroke="#84A70F" stroke-linecap="round"/>
<path d="M47.3009 30.8643H62.733" stroke="#84A70F" stroke-linecap="round"/>
<path d="M47.3009 35.6865H62.733" stroke="#84A70F" stroke-linecap="round"/>
<path d="M42.4784 45.332H52.1235" stroke="#84A70F" stroke-linecap="round"/>
<path d="M42.4784 49.1895H52.1235" stroke="#84A70F" stroke-linecap="round"/>
<path d="M61.7685 52.083C63.2946 52.083 64.7865 52.5355 66.0554 53.3834C67.3243 54.2313 68.3132 55.4363 68.8973 56.8463C69.4813 58.2562 69.6341 59.8076 69.3363 61.3044C69.0386 62.8012 68.3037 64.176 67.2246 65.2552C66.1455 66.3343 64.7706 67.0691 63.2739 67.3669C61.7771 67.6646 60.2257 67.5118 58.8157 66.9278C57.4058 66.3438 56.2007 65.3548 55.3529 64.0859C54.505 62.817 54.0525 61.3252 54.0525 59.7991C54.0525 57.7526 54.8654 55.79 56.3125 54.343C57.7595 52.8959 59.7221 52.083 61.7685 52.083V52.083Z" fill="#FFBD2D"/>
<path d="M58.875 62.6923L64.662 56.9053" stroke="#FFE54C" stroke-width="1.5" stroke-linecap="round"/>
<path d="M90.7038 28.9346H81.0587C76.7972 28.9346 73.3427 32.3892 73.3427 36.6506V61.7278C73.3427 65.9893 76.7972 69.4439 81.0587 69.4439H90.7038C94.9652 69.4439 98.4198 65.9893 98.4198 61.7278V36.6506C98.4198 32.3892 94.9652 28.9346 90.7038 28.9346Z" fill="#FFE54C"/>
<path d="M79.1296 15.4316H92.6327C93.1443 15.4316 93.635 15.6349 93.9968 15.9966C94.3585 16.3584 94.5617 16.849 94.5617 17.3607V27.0057H77.2006V17.3607C77.2006 16.849 77.4039 16.3584 77.7656 15.9966C78.1274 15.6349 78.618 15.4316 79.1296 15.4316V15.4316Z" fill="#C68400"/>
<path d="M78.1652 27.9707H93.5973" stroke="#FFB300" stroke-width="2" stroke-linecap="round"/>
<path d="M85.8812 57.8695C80.3527 57.8695 75.5378 57.1886 73.904 56.1759C73.7727 56.1147 73.6567 56.0251 73.5645 55.9135C73.4335 55.7976 73.3538 55.6347 73.3426 55.4602C73.3409 55.4384 73.3409 55.4164 73.3426 55.3946C73.3409 55.3631 73.3409 55.3316 73.3426 55.3001V39.5555C73.3426 39.5233 73.3426 39.4918 73.3426 39.4609C73.5355 40.7746 79.0313 41.8047 85.8812 41.8047C92.7311 41.8047 98.2269 40.7746 98.4198 39.4609C98.4213 39.4796 98.4213 39.4983 98.4198 39.5169V55.2982C98.4216 55.3296 98.4216 55.3612 98.4198 55.3927C98.4215 55.4145 98.4215 55.4364 98.4198 55.4583C98.4149 55.5436 98.3931 55.627 98.3556 55.7039C98.3182 55.7807 98.2659 55.8493 98.2018 55.9058C98.1079 56.0216 97.9884 56.114 97.8527 56.1759C96.213 57.1905 91.4001 57.8695 85.8812 57.8695Z" fill="#FFB300"/>
<path d="M85.8812 57.8695C80.3527 57.8695 75.5378 57.1886 73.904 56.1759C73.7727 56.1147 73.6567 56.0251 73.5645 55.9135C73.4335 55.7976 73.3538 55.6347 73.3426 55.4602C73.3409 55.4384 73.3409 55.4164 73.3426 55.3946C73.3409 55.3631 73.3409 55.3316 73.3426 55.3001V39.5555C73.3426 39.5233 73.3426 39.4918 73.3426 39.4609C73.5355 40.7746 79.0313 41.8047 85.8812 41.8047C92.7311 41.8047 98.2269 40.7746 98.4198 39.4609C98.4213 39.4796 98.4213 39.4983 98.4198 39.5169V55.2982C98.4216 55.3296 98.4216 55.3612 98.4198 55.3927C98.4215 55.4145 98.4215 55.4364 98.4198 55.4583C98.4149 55.5436 98.3931 55.627 98.3556 55.7039C98.3182 55.7807 98.2659 55.8493 98.2018 55.9058C98.1079 56.0216 97.9884 56.114 97.8527 56.1759C96.213 57.1905 91.4001 57.8695 85.8812 57.8695Z" fill="#FFB300"/>
</g>
<defs>
<filter id="filter0_d" x="28.8333" y="0" width="73.5865" height="77.4445" filterUnits="userSpaceOnUse" color-interpolation-filters="sRGB">
<feFlood flood-opacity="0" result="BackgroundImageFix"/>
<feColorMatrix in="SourceAlpha" type="matrix" values="0 0 0 0 0 0 0 0 0 0 0 0 0 0 0 0 0 0 127 0"/>
<feOffset dy="4"/>
<feGaussianBlur stdDeviation="2"/>
<feColorMatrix type="matrix" values="0 0 0 0 0 0 0 0 0 0 0 0 0 0 0 0 0 0 0.25 0"/>
<feBlend mode="normal" in2="BackgroundImageFix" result="effect1_dropShadow"/>
<feBlend mode="normal" in="SourceGraphic" in2="effect1_dropShadow" result="shape"/>
</filter>
<linearGradient id="paint0_linear" x1="129.167" y1="100" x2="-3.55019e-05" y2="30.5557" gradientUnits="userSpaceOnUse">
<stop stop-color="#FFB3BF"/>
<stop offset="1" stop-color="#FFE5AE"/>
</linearGradient>
<clipPath id="clip0">
<rect width="65.5865" height="69.4445" fill="white" transform="translate(32.8333)"/>
</clipPath>
</defs>
</svg>
