<svg width="18" height="23" viewBox="0 0 18 23" fill="none" xmlns="http://www.w3.org/2000/svg">
<path d="M8.83043 22.4C9.95049 22.4 10.8567 21.5059 10.8567 20.4008H6.80415C6.80415 21.5059 7.71038 22.4 8.83043 22.4ZM17.2716 17.6681L15.9581 16.3721V10.3442C15.9581 6.97865 13.555 4.16563 10.3578 3.48247V2.30703C10.3578 1.47317 9.67556 0.800049 8.83043 0.800049C7.9853 0.800049 7.30308 1.47317 7.30308 2.30703V3.48247C4.10583 4.16563 1.7028 6.97865 1.7028 10.3442V16.3721L0.389285 17.6681C-0.252201 18.3011 0.195821 19.3861 1.10205 19.3861H16.5486C17.465 19.3861 17.9131 18.3011 17.2716 17.6681ZM9.96705 17H7.77784V14.84H9.96705V17ZM9.96705 12.14C9.96705 12.6926 9.40425 12.95 8.84422 12.95C8.28419 12.95 7.77784 12.6926 7.77784 12.14L7.74962 6.74005C7.74962 6.18749 8.28419 5.93005 8.84422 5.93005C9.40425 5.93005 9.96705 6.18749 9.96705 6.74005V12.14Z" fill="#225B73"/>
</svg>
