<svg width="25" height="25" viewBox="0 0 25 25" fill="none" xmlns="http://www.w3.org/2000/svg">
<path d="M22.6562 18.769C22.4375 18.7689 22.2213 18.7228 22.0215 18.6338C21.975 18.6131 21.9307 18.5879 21.8892 18.5586L17.8506 15.7158C17.6458 15.5716 17.4786 15.3803 17.3632 15.158C17.2478 14.9357 17.1876 14.6889 17.1875 14.4385V10.5615C17.1876 10.311 17.2478 10.0642 17.3632 9.84194C17.4786 9.61964 17.6458 9.42834 17.8506 9.28416L21.8892 6.44139C21.9307 6.41201 21.975 6.38683 22.0215 6.36619C22.2594 6.26043 22.5199 6.21578 22.7795 6.23631C23.039 6.25684 23.2893 6.34189 23.5076 6.48374C23.7259 6.62559 23.9053 6.81975 24.0295 7.04856C24.1537 7.27737 24.2187 7.53358 24.2188 7.79393V17.206C24.2188 17.6204 24.0541 18.0179 23.7611 18.3109C23.4681 18.6039 23.0707 18.7685 22.6562 18.7685V18.769Z" fill="#225B73"/>
<path d="M13.0859 19.5312H4.10156C3.22124 19.5303 2.37723 19.1802 1.75475 18.5578C1.13226 17.9353 0.782155 17.0913 0.78125 16.2109V8.78906C0.782155 7.90874 1.13226 7.06473 1.75475 6.44225C2.37723 5.81976 3.22124 5.46965 4.10156 5.46875H13.1094C13.9834 5.46978 14.8214 5.81746 15.4395 6.43552C16.0575 7.05358 16.4052 7.89156 16.4062 8.76563V16.2109C16.4053 17.0913 16.0552 17.9353 15.4328 18.5578C14.8103 19.1802 13.9663 19.5303 13.0859 19.5312Z" fill="#225B73"/>
</svg>
