<svg width="19" height="19" viewBox="0 0 19 19" fill="none" xmlns="http://www.w3.org/2000/svg">
<path d="M6.7168 19H4.45312C1.99767 19 0 17.0023 0 14.5469V8.46094C0 6.00548 1.99767 4.00781 4.45312 4.00781H14.5469C17.0023 4.00781 19 6.00548 19 8.46094V10.6875C19 11.0974 18.6677 11.4297 18.2578 11.4297C17.8479 11.4297 17.5156 11.0974 17.5156 10.6875V8.46094C17.5156 6.82397 16.1838 5.49219 14.5469 5.49219H4.45312C2.81616 5.49219 1.48438 6.82397 1.48438 8.46094V14.5469C1.48438 16.1838 2.81616 17.5156 4.45312 17.5156H6.7168C7.12671 17.5156 7.45898 17.8479 7.45898 18.2578C7.45898 18.6677 7.12671 19 6.7168 19ZM19 16.7363V14.7761C19 13.5243 17.9816 12.5059 16.7298 12.5059H14.7695C14.3596 12.5059 14.0273 12.8381 14.0273 13.248C14.0273 13.658 14.3596 13.9902 14.7695 13.9902H16.7298C17.1631 13.9902 17.5156 14.3428 17.5156 14.7761V16.7363C17.5156 17.1462 17.8479 17.4785 18.2578 17.4785C18.6677 17.4785 19 17.1462 19 16.7363ZM16.4192 16.2837C16.7023 15.9873 16.6915 15.5175 16.395 15.2344C16.0986 14.9513 15.6288 14.9621 15.3457 15.2586C13.9759 16.6929 12.0528 17.5156 10.0694 17.5156H9.72266C9.31275 17.5156 8.98047 17.8479 8.98047 18.2578C8.98047 18.6677 9.31275 19 9.72266 19H10.0694C12.4564 19 14.7708 18.01 16.4192 16.2837ZM4.86133 7.49609C4.34896 7.49609 3.93359 7.91146 3.93359 8.42383C3.93359 8.9362 4.34896 9.35156 4.86133 9.35156C5.3737 9.35156 5.78906 8.9362 5.78906 8.42383C5.78906 7.91146 5.3737 7.49609 4.86133 7.49609ZM8.05273 7.49609C7.54037 7.49609 7.125 7.91146 7.125 8.42383C7.125 8.9362 7.54037 9.35156 8.05273 9.35156C8.5651 9.35156 8.98047 8.9362 8.98047 8.42383C8.98047 7.91146 8.5651 7.49609 8.05273 7.49609ZM11.2441 7.49609C10.7318 7.49609 10.3164 7.91146 10.3164 8.42383C10.3164 8.9362 10.7318 9.35156 11.2441 9.35156C11.7565 9.35156 12.1719 8.9362 12.1719 8.42383C12.1719 7.91146 11.7565 7.49609 11.2441 7.49609ZM4.86133 10.6875C4.34896 10.6875 3.93359 11.1029 3.93359 11.6152C3.93359 12.1276 4.34896 12.543 4.86133 12.543C5.3737 12.543 5.78906 12.1276 5.78906 11.6152C5.78906 11.1029 5.3737 10.6875 4.86133 10.6875ZM4.86133 13.8789C4.34896 13.8789 3.93359 14.2943 3.93359 14.8066C3.93359 15.319 4.34896 15.7344 4.86133 15.7344C5.3737 15.7344 5.78906 15.319 5.78906 14.8066C5.78906 14.2943 5.3737 13.8789 4.86133 13.8789ZM8.05273 10.6875C7.54037 10.6875 7.125 11.1029 7.125 11.6152C7.125 12.1276 7.54037 12.543 8.05273 12.543C8.5651 12.543 8.98047 12.1276 8.98047 11.6152C8.98047 11.1029 8.5651 10.6875 8.05273 10.6875ZM8.05273 13.8789C7.54037 13.8789 7.125 14.2943 7.125 14.8066C7.125 15.319 7.54037 15.7344 8.05273 15.7344C8.5651 15.7344 8.98047 15.319 8.98047 14.8066C8.98047 14.2943 8.5651 13.8789 8.05273 13.8789ZM11.2441 10.6875C10.7318 10.6875 10.3164 11.1029 10.3164 11.6152C10.3164 12.1276 10.7318 12.543 11.2441 12.543C11.7565 12.543 12.1719 12.1276 12.1719 11.6152C12.1719 11.1029 11.7565 10.6875 11.2441 10.6875Z" fill="black"/>
<path d="M6.75391 2.96875C6.344 2.96875 6.01172 2.63647 6.01172 2.22656C6.01172 1.81732 5.67877 1.48438 5.26953 1.48438C4.86029 1.48438 4.52734 1.81732 4.52734 2.22656C4.52734 2.63647 4.19507 2.96875 3.78516 2.96875C3.37525 2.96875 3.04297 2.63647 3.04297 2.22656C3.04297 0.998836 4.0418 0 5.26953 0C6.49726 0 7.49609 0.998836 7.49609 2.22656C7.49609 2.63647 7.16382 2.96875 6.75391 2.96875ZM16.0312 2.22656C16.0312 0.998836 15.0324 0 13.8047 0C12.577 0 11.5781 0.998836 11.5781 2.22656C11.5781 2.63647 11.9104 2.96875 12.3203 2.96875C12.7302 2.96875 13.0625 2.63647 13.0625 2.22656C13.0625 1.81732 13.3954 1.48438 13.8047 1.48438C14.2139 1.48438 14.5469 1.81732 14.5469 2.22656C14.5469 2.63647 14.8792 2.96875 15.2891 2.96875C15.699 2.96875 16.0312 2.63647 16.0312 2.22656ZM14.4355 7.49609C13.9232 7.49609 13.5078 7.91146 13.5078 8.42383C13.5078 8.9362 13.9232 9.35156 14.4355 9.35156C14.9479 9.35156 15.3633 8.9362 15.3633 8.42383C15.3633 7.91146 14.9479 7.49609 14.4355 7.49609Z" fill="#1A6291"/>
</svg>
