<svg width="17" height="25" viewBox="0 0 17 25" fill="none" xmlns="http://www.w3.org/2000/svg">
<path d="M5.34 19.2399L0.169998 24.0499L0 23.9199C0.59 21.7199 1.18 19.5299 1.78 17.3399C3.28 11.8899 4.78 6.44987 6.29 0.999871C6.29 0.979871 6.29 0.959871 6.29 0.949871C6.29 0.679871 6.43 0.429871 6.67 0.299871C7.03 0.239871 7.02 0.649871 7.15 0.879871C7.92 2.29987 8.5 3.80987 9.4 5.15987C10.25 7.21987 11.24 9.26987 12.31 11.2199C12.44 11.4199 12.52 11.6499 12.52 11.8899C12.52 12.2999 12.31 12.6899 11.96 12.9099C9.71 14.9999 7.53 17.1299 5.34 19.2399Z" fill="#F07A25"/>
<path d="M5.34006 19.24C7.54006 17.13 9.72006 15 11.9501 12.92C12.3001 12.7 12.5101 12.31 12.5101 11.9C12.5101 11.66 12.4401 11.43 12.3001 11.23C11.2201 9.28 10.2401 7.23 9.39006 5.17L10.9301 0C11.5701 1.23 12.1001 2.24 12.6101 3.26C13.9001 5.83 15.1601 8.42 16.5001 10.97C16.6801 11.22 16.7701 11.52 16.7701 11.83C16.7701 12.34 16.5101 12.82 16.0701 13.09C12.4101 16.48 8.82006 19.95 5.21006 23.39C4.98006 23.69 4.67006 23.92 4.31006 24.04C4.77006 22.47 5.12006 20.86 5.34006 19.24Z" fill="#0C8D48"/>
</svg>
