<svg xmlns="http://www.w3.org/2000/svg" xmlns:xlink="http://www.w3.org/1999/xlink" width="31" height="34" viewBox="0 0 31 34"><defs><linearGradient id="a" x1="1" y1="0.5" x2="0" y2="0.5" gradientUnits="objectBoundingBox"><stop offset="0" stop-color="#ffbd2d"/><stop offset="0.071" stop-color="#f9b92c"/><stop offset="1" stop-color="#ffe54c"/></linearGradient></defs><rect width="20" height="25" rx="4" transform="translate(0 9)" fill="#a9c145"/><path d="M1,0H15a1,1,0,0,1,0,2H1A1,1,0,0,1,1,0Z" transform="translate(2 13)" fill="#353f48"/><path d="M-189.669,79h-14.406a.5.5,0,0,1-.487-.382C-205.422,77.643-206,74.984-206,72s.578-5.644,1.438-6.618a.5.5,0,0,1,.487-.382h14.406c-.559.046-1.083.794-1.475,2.108a17.818,17.818,0,0,0-.61,4.892,17.809,17.809,0,0,0,.61,4.892c.392,1.315.916,2.063,1.475,2.106Z" transform="translate(207.5 -65)" fill="#ffe54c"/><rect width="16" height="4" rx="2" transform="translate(2 16)" fill="#e4e4e4"/><rect width="3" height="3" rx="1.5" transform="translate(11 22)" fill="#fff"/><rect width="3" height="3" rx="1.5" transform="translate(7 22)" fill="#fff"/><rect width="3" height="3" rx="1.5" transform="translate(3 22)" fill="#fff"/><rect width="3" height="7" rx="1.5" transform="matrix(0.017, 1, -1, 0.017, 17.982, 26.896)" fill="#fff"/><rect width="3" height="3" rx="1.5" transform="translate(15 22)" fill="#eb5151"/><rect width="3" height="3" rx="1.5" transform="translate(3 27)" fill="#fff"/><rect width="3" height="3" rx="1.5" transform="translate(7 27)" fill="#d5eb74"/><rect width="9" height="12" rx="2" transform="translate(22 19)" fill="url(#a)"/><line y2="11" transform="translate(25.5 19.5)" fill="none" stroke="#353f48" stroke-width="2"/><line y2="2" transform="translate(28.5 22.5)" fill="none" stroke="#fff" stroke-width="1"/><line x2="5" transform="translate(9 3)" fill="none" stroke="#c68400" stroke-linecap="round" stroke-width="1"/><line x2="10" transform="translate(4 11)" fill="none" stroke="#ffb300" stroke-linecap="round" stroke-width="1"/><line x2="5" transform="translate(8 7)" fill="none" stroke="#c68400" stroke-linecap="round" stroke-width="1"/><line x2="2" transform="translate(5 3)" fill="none" stroke="#c68400" stroke-linecap="round" stroke-width="1"/><line x2="2" transform="translate(4 7)" fill="none" stroke="#c68400" stroke-linecap="round" stroke-width="1"/></svg>