<svg width="31" height="30" viewBox="0 0 31 30" fill="none" xmlns="http://www.w3.org/2000/svg">
<path d="M16.5499 2.5H7.5874C6.2124 2.5 5.0874 3.625 5.0874 5V25C5.0874 26.375 6.2124 27.5 7.5874 27.5H22.5874C23.9624 27.5 25.0874 26.375 25.0874 25V11.0375C25.0874 10.375 24.8249 9.7375 24.3499 9.275L18.3124 3.2375C17.8499 2.7625 17.2124 2.5 16.5499 2.5ZM20.0874 18.75C20.0874 21.675 17.5749 24.0125 14.5999 23.725C11.9999 23.475 10.0874 21.15 10.0874 18.5375V12.05C10.0874 10.4125 11.2624 8.925 12.8874 8.7625C14.7624 8.575 16.3374 10.0375 16.3374 11.875V17.5C16.3374 18.1875 15.7749 18.75 15.0874 18.75C14.3999 18.75 13.8374 18.1875 13.8374 17.5V11.875C13.8374 11.525 13.5624 11.25 13.2124 11.25C12.8624 11.25 12.5874 11.525 12.5874 11.875V18.6125C12.5874 19.8625 13.4374 21.0125 14.6624 21.2125C16.2374 21.475 17.5874 20.2625 17.5874 18.75V15C17.5874 14.3125 18.1499 13.75 18.8374 13.75C19.5249 13.75 20.0874 14.3125 20.0874 15V18.75ZM17.5874 8.75V5L22.5874 10H18.8374C18.1499 10 17.5874 9.4375 17.5874 8.75Z" fill="#AFAFAF"/>
</svg>
