<svg width="18" height="23" viewBox="0 0 18 23" fill="none" xmlns="http://www.w3.org/2000/svg">
<path d="M8.74303 22.3998C9.86308 22.3998 10.7693 21.5057 10.7693 20.4006H6.71675C6.71675 21.5057 7.62297 22.3998 8.74303 22.3998ZM17.1842 17.6679L15.8707 16.3719V10.344C15.8707 6.97841 13.4676 4.16539 10.2704 3.48222V2.30678C10.2704 1.47292 9.58816 0.799805 8.74303 0.799805C7.8979 0.799805 7.21568 1.47292 7.21568 2.30678V3.48222C4.01843 4.16539 1.6154 6.97841 1.6154 10.344V16.3719L0.301883 17.6679C-0.339604 18.3008 0.108418 19.3859 1.01465 19.3859H16.4612C17.3776 19.3859 17.8257 18.3008 17.1842 17.6679ZM9.87965 16.9998H7.69044V14.8398H9.87965V16.9998ZM9.87965 12.1398C9.87965 12.6924 9.31684 12.9498 8.75682 12.9498C8.19679 12.9498 7.69044 12.6924 7.69044 12.1398L7.66222 6.7398C7.66222 6.18725 8.19679 5.9298 8.75682 5.9298C9.31684 5.9298 9.87965 6.18725 9.87965 6.7398V12.1398Z" fill="#AFAFAF"/>
</svg>
