<svg width="30" height="29" viewBox="0 0 30 29" fill="none" xmlns="http://www.w3.org/2000/svg">
<path d="M22.8572 9.51562C22.6912 11.8192 20.9823 13.5938 19.1189 13.5938C17.2554 13.5938 15.5437 11.8198 15.3806 9.51562C15.2107 7.11916 16.8742 5.4375 19.1189 5.4375C21.3635 5.4375 23.0271 7.16277 22.8572 9.51562Z" fill="#AFAFAF" stroke="#AFAFAF" stroke-width="1.5" stroke-linecap="round" stroke-linejoin="round"/>
<path d="M19.1184 17.2188C15.4272 17.2188 11.8775 19.0522 10.9882 22.6228C10.8704 23.0952 11.1666 23.5625 11.6521 23.5625H19.1184H26.5854C27.0708 23.5625 27.3653 23.0952 27.2492 22.6228C26.3599 18.995 22.8103 17.2188 19.1184 17.2188Z" fill="#AFAFAF" stroke="#AFAFAF" stroke-width="1.5" stroke-miterlimit="10"/>
<path d="M11.4156 10.5318C11.2831 12.3714 9.9022 13.8203 8.41369 13.8203C6.92517 13.8203 5.54201 12.372 5.41173 10.5318C5.27636 8.61787 6.62045 7.25 8.41369 7.25C10.2069 7.25 11.551 8.65299 11.4156 10.5318Z" stroke="#AFAFAF" stroke-width="1.5" stroke-linecap="round" stroke-linejoin="round"/>
<path d="M11.7554 17.3321C10.7331 16.8637 9.60706 16.6836 8.41364 16.6836C5.46833 16.6836 2.63063 18.1478 1.91979 20.9996C1.82634 21.3768 2.06309 21.7501 2.45052 21.7501H8.81012" stroke="#AFAFAF" stroke-width="1.5" stroke-miterlimit="10" stroke-linecap="round"/>
</svg>
