<svg xmlns="http://www.w3.org/2000/svg" width="34" height="36" viewBox="0 0 34 36"><rect width="20" height="30" rx="1" transform="translate(0 1)" fill="#d5eb74"/><path d="M118-32.406" transform="translate(-103 59)" fill="none" stroke="#707070" stroke-width="1"/><path d="M113-28" transform="translate(-103 59)" fill="none" stroke="#707070" stroke-width="1"/><path d="M116.3-28" transform="translate(-103 59)" fill="none" stroke="#707070" stroke-width="1"/><text transform="translate(2 11)" fill="#84a70f" font-size="10" font-family="SegoeUISymbol, Segoe UI Symbol"><tspan x="0" y="0">℞</tspan></text><line x2="8" transform="translate(7.5 13.5)" fill="none" stroke="#84a70f" stroke-linecap="round" stroke-width="1"/><line x2="8" transform="translate(7.5 16)" fill="none" stroke="#84a70f" stroke-linecap="round" stroke-width="1"/><line x2="8" transform="translate(7.5 18.5)" fill="none" stroke="#84a70f" stroke-linecap="round" stroke-width="1"/><line x2="5" transform="translate(5 23.5)" fill="none" stroke="#84a70f" stroke-linecap="round" stroke-width="1"/><line x2="5" transform="translate(5 25.5)" fill="none" stroke="#84a70f" stroke-linecap="round" stroke-width="1"/><g transform="translate(11 27)"><path d="M4,0A4,4,0,1,1,0,4,4,4,0,0,1,4,0Z" fill="#ffbd2d"/><line y1="3" x2="3" transform="translate(2.5 2.5)" fill="none" stroke="#ffe54c" stroke-linecap="round" stroke-width="1.5"/></g><g transform="translate(21 8)"><rect width="13" height="21" rx="4" transform="translate(0 7)" fill="#ffe54c"/><path d="M1,0H8A1,1,0,0,1,9,1V6A0,0,0,0,1,9,6H0A0,0,0,0,1,0,6V1A1,1,0,0,1,1,0Z" transform="translate(2)" fill="#c68400"/><line x2="8" transform="translate(2.5 6.5)" fill="none" stroke="#ffb300" stroke-linecap="round" stroke-width="2"/><path d="M124.731-38" transform="translate(-124 52)" fill="none" stroke="#707070" stroke-width="1"/><path d="M6.5,11c-2.866,0-5.362-.353-6.209-.878a.505.505,0,0,1-.176-.136A.343.343,0,0,1,0,9.751a.219.219,0,0,1,0-.034.444.444,0,0,1,0-.049V1.506q0-.025,0-.049c.1.681,2.949,1.215,6.5,1.215s6.4-.534,6.5-1.215a.184.184,0,0,1,0,.029V9.667a.444.444,0,0,1,0,.049.219.219,0,0,1,0,.034.335.335,0,0,1-.113.232.5.5,0,0,1-.181.14C11.856,10.648,9.361,11,6.5,11Z" transform="translate(0 11)" fill="#ffb300"/><path d="M6.5,11c-2.866,0-5.362-.353-6.209-.878a.505.505,0,0,1-.176-.136A.343.343,0,0,1,0,9.751a.219.219,0,0,1,0-.034.444.444,0,0,1,0-.049V1.506q0-.025,0-.049c.1.681,2.949,1.215,6.5,1.215s6.4-.534,6.5-1.215a.184.184,0,0,1,0,.029V9.667a.444.444,0,0,1,0,.049.219.219,0,0,1,0,.034.335.335,0,0,1-.113.232.5.5,0,0,1-.181.14C11.856,10.648,9.361,11,6.5,11Z" transform="translate(0 11)" fill="#ffb300"/></g></svg>