<svg xmlns="http://www.w3.org/2000/svg" width="35" height="37" viewBox="0 0 35 37"><path d="M28,29H2a2,2,0,0,1-2-2V2A2,2,0,0,1,2,0H28a2,2,0,0,1,2,2V27A2,2,0,0,1,28,29ZM23.226,1A1.971,1.971,0,0,0,21.29,3a1.937,1.937,0,1,0,3.871,0A1.97,1.97,0,0,0,23.226,1ZM6.774,1A1.971,1.971,0,0,0,4.838,3,1.971,1.971,0,0,0,6.774,5,1.971,1.971,0,0,0,8.709,3,1.97,1.97,0,0,0,6.774,1Z" transform="translate(0 2)" fill="#84a70f"/><path d="M0,0H30a0,0,0,0,1,0,0V21a2,2,0,0,1-2,2H2a2,2,0,0,1-2-2V0A0,0,0,0,1,0,0Z" transform="translate(0 9)" fill="#d5eb74"/><rect width="2" height="5" rx="1" transform="translate(6)" fill="#c68400"/><rect width="2" height="5" rx="1" transform="translate(22)" fill="#c68400"/><line x2="30" transform="translate(0 9)" fill="none" stroke="#a9c145" stroke-width="1"/><g transform="translate(3 14)"><g fill="#fff"><path d="M 5.5 10.25 C 2.880840063095093 10.25 0.75 8.119159698486328 0.75 5.5 C 0.75 2.880840063095093 2.880840063095093 0.75 5.5 0.75 C 8.119159698486328 0.75 10.25 2.880840063095093 10.25 5.5 C 10.25 8.119159698486328 8.119159698486328 10.25 5.5 10.25 Z" stroke="none"/><path d="M 5.5 1.5 C 3.294390201568604 1.5 1.5 3.294390201568604 1.5 5.5 C 1.5 7.705610275268555 3.294390201568604 9.5 5.5 9.5 C 7.705610275268555 9.5 9.5 7.705610275268555 9.5 5.5 C 9.5 3.294390201568604 7.705610275268555 1.5 5.5 1.5 M 5.5 0 C 8.537569999694824 0 11 2.462430000305176 11 5.5 C 11 8.537569999694824 8.537569999694824 11 5.5 11 C 2.462430000305176 11 0 8.537569999694824 0 5.5 C 0 2.462430000305176 2.462430000305176 0 5.5 0 Z" stroke="none" fill="#84a70f"/></g><path d="M0,0V3.179H2.186" transform="translate(5.091 3)" fill="none" stroke="#84a70f" stroke-linecap="round" stroke-width="1"/></g><g transform="translate(13 12)"><path d="M-39,81h-5.75A2.25,2.25,0,0,1-47,78.75a2.25,2.25,0,0,1,2.25-2.25h.5V71.1A8.176,8.176,0,0,1-36,63a8.176,8.176,0,0,1,8.249,8.1v5.4h.5A2.25,2.25,0,0,1-25,78.75,2.25,2.25,0,0,1-27.249,81H-33a3,3,0,0,1-3,3A3,3,0,0,1-39,81Z" transform="translate(47 -59)" fill="#ffbd2d"/><g transform="translate(9)" fill="none"><path d="M2,0A2,2,0,1,1,0,2,2,2,0,0,1,2,0Z" stroke="none"/><path d="M 2 0 C 3.104569911956787 0 4 0.8954300880432129 4 2 C 4 3.104569911956787 3.104569911956787 4 2 4 C 0.8954300880432129 4 0 3.104569911956787 0 2 C 0 0.8954300880432129 0.8954300880432129 0 2 0 Z" stroke="none" fill="#ffbd2d"/></g><path d="M10,21a4,4,0,0,1-4-4V6.657A8.313,8.313,0,0,1,11,5a8.176,8.176,0,0,1,8.249,8.1v5.4h.5A2.25,2.25,0,0,1,22,20.75a2.275,2.275,0,0,1-.014.249Z" transform="translate(0 -1)" fill="#ffe54c"/></g></svg>