<svg width="24" height="24" viewBox="0 0 24 24" fill="none" xmlns="http://www.w3.org/2000/svg">
<g clip-path="url(#clip0)">
<path d="M19.261 12.0019C16.5022 11.9242 14.242 14.196 14.242 17.001H13.2718C13.0279 17.001 12.9087 17.3009 13.0821 17.4731L14.5943 19.0284C14.7027 19.1394 14.8707 19.1394 14.9791 19.0284L16.4913 17.4731C16.6594 17.3009 16.5401 17.001 16.2962 17.001H15.326C15.326 14.8347 17.0496 13.0851 19.1743 13.1128C21.1905 13.1406 22.887 14.8792 22.9141 16.9454C22.9412 19.1172 21.2339 20.8891 19.1201 20.8891C18.2474 20.8891 17.4398 20.5836 16.8003 20.067C16.5835 19.8949 16.28 19.9115 16.0848 20.1115C15.8572 20.3448 15.8735 20.7391 16.1282 20.9391C16.952 21.6056 17.9873 22 19.1201 22C21.8572 22 24.074 19.6838 23.9981 16.8566C23.9276 14.2515 21.803 12.0741 19.261 12.0019ZM18.9846 14.7792C18.7623 14.7792 18.5781 14.968 18.5781 15.1958V17.2398C18.5781 17.4342 18.681 17.6175 18.8436 17.7175L20.5347 18.7451C20.7298 18.8617 20.9791 18.7951 21.093 18.6007C21.2068 18.4007 21.1417 18.1452 20.952 18.0285L19.3911 17.0787V15.1902C19.3911 14.968 19.2068 14.7792 18.9846 14.7792Z" fill="#808080"/>
<path fill-rule="evenodd" clip-rule="evenodd" d="M18.6667 3.22222H19.7778C21 3.22222 22 4.22222 22 5.44444V10.8889C22 10.3366 21.5523 9.8889 21 9.8889H19.7778V8.77778H4.22222V21H14.2222V22.2222C14.2222 22.7734 14.6681 23.2204 15.2188 23.2222H4.22222C2.98889 23.2222 2 22.2222 2 21L2.01111 5.44444C2.01111 4.22222 2.98889 3.22222 4.22222 3.22222H5.33333V1H7.55556V3.22222H16.4444V1H18.6667V3.22222ZM12 11H6.44444V16.5556H12V11Z" fill="#808080"/>
</g>
<defs>
<clipPath id="clip0">
<rect width="24" height="24" fill="white"/>
</clipPath>
</defs>
</svg>
