<svg width="26" height="25" viewBox="0 0 26 25" fill="none" xmlns="http://www.w3.org/2000/svg">
<path d="M20.51 10.9564C19.7327 10.9564 19.1025 11.5867 19.1025 12.364C19.1025 13.1413 19.7327 13.7715 20.51 13.7715C21.2874 13.7715 21.9176 13.1413 21.9176 12.364C21.9176 11.5867 21.2874 10.9564 20.51 10.9564Z" fill="#225B73"/>
<path d="M20.5099 14.3862C19.3946 14.3862 18.4872 13.4789 18.4872 12.3636C18.4872 11.2483 19.3946 10.3409 20.5099 10.3409C21.6252 10.3409 22.5325 11.2483 22.5325 12.3636C22.5325 13.4789 21.6252 14.3862 20.5099 14.3862ZM23.7301 12.3636C23.7301 10.588 22.2855 9.14333 20.5099 9.14333C18.7342 9.14333 17.2896 10.588 17.2896 12.3636C17.2896 13.9346 18.4207 15.2456 19.9111 15.5271V18.1812C19.9111 21.0788 17.5538 23.4362 14.6562 23.4362C11.9457 23.4362 9.70813 21.3734 9.43039 18.7352C9.56092 18.5875 9.64073 18.3939 9.64073 18.1812V15.4327C10.7452 15.2665 11.777 14.7737 12.608 14.0037C13.6464 13.0415 14.2776 11.7342 14.3853 10.3228L14.4182 9.89269C14.4356 9.6651 14.3601 9.45198 14.224 9.28997L14.6147 4.17057C14.679 3.32857 14.3867 2.49035 13.8127 1.87091C13.5207 1.55576 13.1665 1.30939 12.7779 1.14302C12.6258 0.623266 12.1458 0.243536 11.5769 0.243536C10.8857 0.243536 10.3254 0.803864 10.3254 1.49501C10.3254 2.18621 10.8857 2.74654 11.5769 2.74654C11.9431 2.74654 12.2725 2.58923 12.5014 2.3385C12.6597 2.43004 12.8056 2.54592 12.9343 2.68489C13.2874 3.06606 13.4602 3.56133 13.4207 4.07946L13.0299 9.19876C12.8708 9.33825 12.7638 9.53748 12.7464 9.76503L12.7136 10.1952C12.5585 12.2271 10.8409 13.8188 8.80304 13.819C8.80285 13.819 8.80266 13.819 8.80242 13.819C8.80223 13.819 8.80199 13.819 8.8018 13.819C6.76408 13.8187 5.04645 12.227 4.89134 10.1951L4.85853 9.76503C4.84114 9.53739 4.73417 9.33816 4.57508 9.19866L4.18428 4.07946C4.14476 3.56133 4.31746 3.06606 4.67065 2.68489C4.79524 2.55042 4.93599 2.4378 5.08841 2.34765C5.31691 2.59291 5.64251 2.74654 6.00419 2.74654C6.69538 2.74654 7.25571 2.18621 7.25571 1.49501C7.25571 0.803864 6.69538 0.243536 6.00419 0.243536C5.43112 0.243536 4.94834 0.62887 4.79999 1.15442C4.42198 1.3206 4.07746 1.56309 3.79219 1.87096C3.21821 2.4904 2.92591 3.32857 2.99019 4.17057L3.38094 9.29001C3.2449 9.45198 3.16935 9.6651 3.18674 9.89269L3.2196 10.3228C3.32734 11.7342 3.95856 13.0415 4.99692 14.0037C5.828 14.7737 6.85965 15.2665 7.96411 15.4327V18.1812C7.96411 18.4241 8.06801 18.6422 8.23304 18.7953C8.54326 22.0663 11.3053 24.6338 14.6562 24.6338C18.1672 24.6338 21.0321 21.8148 21.1069 18.3214H21.1087V15.5271C22.5991 15.2456 23.7301 13.9346 23.7301 12.3636Z" fill="#225B73"/>
</svg>
