<svg width="22" height="22" viewBox="0 0 22 22" fill="none" xmlns="http://www.w3.org/2000/svg">
<path d="M20.52 11.064C20.52 4.476 15.9192 0 10.8 0C5.7348 0 1.08 4.38 1.08 11.136C0.432 11.544 0 12.312 0 13.2V15.6C0 16.92 0.972 18 2.16 18H3.24V10.68C3.24 6.036 6.6204 2.28 10.8 2.28C14.9796 2.28 18.36 6.036 18.36 10.68V19.2H9.72V21.6H18.36C19.548 21.6 20.52 20.52 20.52 19.2V17.736C21.1572 17.364 21.6 16.632 21.6 15.768V13.008C21.6 12.168 21.1572 11.436 20.52 11.064Z" fill="#225B73"/>
<path d="M7.55998 13.2C8.15644 13.2 8.63997 12.6627 8.63997 12C8.63997 11.3373 8.15644 10.8 7.55998 10.8C6.96351 10.8 6.47998 11.3373 6.47998 12C6.47998 12.6627 6.96351 13.2 7.55998 13.2Z" fill="#225B73"/>
<path d="M14.04 13.2C14.6365 13.2 15.12 12.6627 15.12 12C15.12 11.3373 14.6365 10.8 14.04 10.8C13.4435 10.8 12.96 11.3373 12.96 12C12.96 12.6627 13.4435 13.2 14.04 13.2Z" fill="#225B73"/>
<path d="M17.28 9.636C16.7616 6.216 14.0832 3.6 10.854 3.6C7.5816 3.6 4.0608 6.612 4.3416 11.34C7.0092 10.128 9.018 7.488 9.5904 4.272C11.0052 7.428 13.9104 9.6 17.28 9.636Z" fill="#225B73"/>
</svg>
